SplineFontDB: 3.2
FontName: KirbyNoKiraKizzuBRK
FullName: Kirby No Kira Kizzu (BRK)
FamilyName: Kirby No Kira Kizzu (BRK)
Weight: Book
Copyright: NIGMA FONTS   [e-mail]  kentpw@norwich.net
Version: 2.25
ItalicAngle: 0
UnderlinePosition: -125
UnderlineWidth: 50
Ascent: 800
Descent: 200
InvalidEm: 0
sfntRevision: 0x00010000
LayerCount: 2
Layer: 0 1 "Back" 1
Layer: 1 1 "Fore" 0
XUID: [1021 805 1761817969 10135145]
StyleMap: 0x0040
FSType: 0
OS2Version: 0
OS2_WeightWidthSlopeOnly: 0
OS2_UseTypoMetrics: 0
CreationTime: 961241510
ModificationTime: 1624127755
PfmFamily: 81
TTFWeight: 400
TTFWidth: 5
LineGap: 9
VLineGap: 0
Panose: 0 0 0 0 0 0 0 0 0 0
OS2TypoAscent: 750
OS2TypoAOffset: 0
OS2TypoDescent: -170
OS2TypoDOffset: 0
OS2TypoLinegap: 30
OS2WinAscent: 762
OS2WinAOffset: 0
OS2WinDescent: 110
OS2WinDOffset: 0
HheadAscent: 762
HheadAOffset: 0
HheadDescent: -110
HheadDOffset: 0
OS2SubXSize: 100
OS2SubYSize: 100
OS2SubXOff: 0
OS2SubYOff: 140
OS2SupXSize: 100
OS2SupYSize: 100
OS2SupXOff: 0
OS2SupYOff: 140
OS2StrikeYSize: 50
OS2StrikeYPos: 250
OS2Vendor: 'ERUC'
OS2UnicodeRanges: 00000001.00000000.00000000.00000000
Lookup: 258 0 0 "'kern' Horizontal Kerning in Latin lookup 0" { "'kern' Horizontal Kerning in Latin lookup 0 subtable"  } ['kern' ('DFLT' <'dflt' > 'latn' <'dflt' > ) ]
DEI: 91125
TtTable: prep
PUSHW_1
 0
CALL
PUSHW_3
 0
 3
 7
CALL
EndTTInstrs
TtTable: fpgm
PUSHW_1
 0
FDEF
MPPEM
PUSHW_1
 9
LT
IF
PUSHB_2
 1
 1
INSTCTRL
EIF
PUSHW_1
 511
SCANCTRL
PUSHW_1
 132
SCVTCI
PUSHW_2
 9
 3
SDS
SDB
ENDF
PUSHW_1
 1
FDEF
DUP
DUP
RCVT
ROUND[Black]
WCVTP
PUSHB_1
 1
ADD
ENDF
PUSHW_1
 2
FDEF
PUSHW_1
 1
LOOPCALL
POP
ENDF
PUSHW_1
 3
FDEF
DUP
GC[cur]
PUSHB_1
 3
CINDEX
GC[cur]
GT
IF
SWAP
EIF
DUP
ROLL
DUP
ROLL
MD[grid]
ABS
ROLL
DUP
GC[cur]
DUP
ROUND[Grey]
SUB
ABS
PUSHB_1
 4
CINDEX
GC[cur]
DUP
ROUND[Grey]
SUB
ABS
GT
IF
SWAP
NEG
ROLL
EIF
MDAP[rnd]
DUP
PUSHB_1
 0
GTEQ
IF
ROUND[Black]
DUP
PUSHB_1
 0
EQ
IF
POP
PUSHB_1
 64
EIF
ELSE
ROUND[Black]
DUP
PUSHB_1
 0
EQ
IF
POP
PUSHB_1
 64
NEG
EIF
EIF

StartChar: .notdef
Encoding: 65536 -1 0
Width: 736
Flags: W
LayerCount: 2
Fore
SplineSet
172 8 m 2,0,1
 180 8 180 8 188.5 15 c 128,-1,2
 197 22 197 22 202 27 c 0,3,4
 209 32 209 32 222.5 35.5 c 128,-1,5
 236 39 236 39 244 41 c 0,6,7
 246 42 246 42 248.5 41.5 c 128,-1,8
 251 41 251 41 251 41 c 1,9,-1
 251 25 l 1,10,11
 251 25 251 25 254.5 22.5 c 128,-1,12
 258 20 258 20 260 19 c 0,13,14
 268 14 268 14 275 10.5 c 128,-1,15
 282 7 282 7 287 0 c 1,16,-1
 298 0 l 2,17,18
 318 0 318 0 337 5 c 128,-1,19
 356 10 356 10 374.5 15.5 c 128,-1,20
 393 21 393 21 412.5 26 c 128,-1,21
 432 31 432 31 452 31 c 0,22,23
 464 31 464 31 476.5 30.5 c 128,-1,24
 489 30 489 30 496 19 c 0,25,26
 501 12 501 12 513 11 c 128,-1,27
 525 10 525 10 532 10 c 0,28,29
 535 10 535 10 542 13.5 c 128,-1,30
 549 17 549 17 556 22 c 128,-1,31
 563 27 563 27 568.5 32.5 c 128,-1,32
 574 38 574 38 575 41 c 0,33,34
 576 41 576 41 578 41.5 c 128,-1,35
 580 42 580 42 581 42 c 0,36,37
 588 42 588 42 598.5 39 c 128,-1,38
 609 36 609 36 614 31 c 0,39,40
 620 25 620 25 624.5 16.5 c 128,-1,41
 629 8 629 8 638 8 c 0,42,43
 653 8 653 8 673.5 16 c 128,-1,44
 694 24 694 24 703 35 c 1,45,-1
 703 46 l 2,46,47
 703 70 703 70 697 93 c 128,-1,48
 691 116 691 116 691 141 c 2,49,-1
 691 145 l 1,50,-1
 726 184 l 1,51,-1
 726 192 l 2,52,53
 726 204 726 204 724 215.5 c 128,-1,54
 722 227 722 227 720 240 c 1,55,56
 712 246 712 246 708.5 256 c 128,-1,57
 705 266 705 266 703 275 c 0,58,59
 703 277 703 277 702 285 c 128,-1,60
 701 293 701 293 700 302 c 128,-1,61
 699 311 699 311 698 319 c 128,-1,62
 697 327 697 327 697 329 c 0,63,64
 695 340 695 340 688.5 349.5 c 128,-1,65
 682 359 682 359 682 370 c 0,66,67
 682 379 682 379 686.5 386 c 128,-1,68
 691 393 691 393 695 401 c 0,69,70
 696 407 696 407 697.5 420.5 c 128,-1,71
 699 434 699 434 700.5 450 c 128,-1,72
 702 466 702 466 703.5 479.5 c 128,-1,73
 705 493 705 493 705 499 c 0,74,75
 705 500 705 500 705.5 506.5 c 128,-1,76
 706 513 706 513 706 516 c 0,77,78
 706 518 706 518 705.5 525 c 128,-1,79
 705 532 705 532 705 534 c 0,80,81
 699 535 699 535 696.5 541 c 128,-1,82
 694 547 694 547 693 554.5 c 128,-1,83
 692 562 692 562 692 569 c 256,84,85
 692 576 692 576 692 580 c 0,86,87
 692 605 692 605 698.5 628.5 c 128,-1,88
 705 652 705 652 705 678 c 2,89,-1
 705 693 l 1,90,91
 688 694 688 694 673 699.5 c 128,-1,92
 658 705 658 705 642.5 711 c 128,-1,93
 627 717 627 717 611.5 721.5 c 128,-1,94
 596 726 596 726 580 726 c 0,95,96
 568 726 568 726 558 722 c 128,-1,97
 548 718 548 718 538 712 c 1,98,-1
 525 712 l 2,99,100
 500 712 500 712 476.5 716 c 128,-1,101
 453 720 453 720 428 720 c 2,102,-1
 407 720 l 2,103,104
 396 718 396 718 386 712.5 c 128,-1,105
 376 707 376 707 366 701.5 c 128,-1,106
 356 696 356 696 346 691.5 c 128,-1,107
 336 687 336 687 326 687 c 1,108,-1
 326 718 l 2,109,110
 326 720 326 720 320.5 722 c 128,-1,111
 315 724 315 724 308 726 c 128,-1,112
 301 728 301 728 294.5 729.5 c 128,-1,113
 288 731 288 731 286 731 c 0,114,115
 285 731 285 731 283.5 730.5 c 128,-1,116
 282 730 282 730 281 730 c 0,117,118
 267 720 267 720 252.5 712.5 c 128,-1,119
 238 705 238 705 221 701 c 0,120,121
 218 701 218 701 209.5 700.5 c 128,-1,122
 201 700 201 700 191 699.5 c 128,-1,123
 181 699 181 699 172.5 698 c 128,-1,124
 164 697 164 697 161 697 c 2,125,-1
 140 697 l 1,126,-1
 120 697 l 2,127,128
 105 699 105 699 100 708.5 c 128,-1,129
 95 718 95 718 93 718 c 2,130,-1
 68 718 l 2,131,132
 67 718 67 718 61 711.5 c 128,-1,133
 55 705 55 705 48.5 696 c 128,-1,134
 42 687 42 687 36.5 678 c 128,-1,135
 31 669 31 669 31 665 c 2,136,-1
 31 662 l 2,137,138
 33 660 33 660 37 654 c 128,-1,139
 41 648 41 648 43 646 c 0,140,141
 43 645 43 645 44 644.5 c 128,-1,142
 45 644 45 644 45 644 c 1,143,-1
 45 633 l 2,144,145
 45 622 45 622 41 612.5 c 128,-1,146
 37 603 37 603 31.5 594.5 c 128,-1,147
 26 586 26 586 22 577.5 c 128,-1,148
 18 569 18 569 18 559 c 2,149,-1
 18 557 l 1,150,-1
 29 544 l 1,151,152
 29 544 29 544 30 531 c 128,-1,153
 31 518 31 518 32.5 501 c 128,-1,154
 34 484 34 484 35 465.5 c 128,-1,155
 36 447 36 447 37 435 c 2,156,-1
 37 416 l 1,157,-1
 37 397 l 2,158,159
 34 393 34 393 33.5 389 c 128,-1,160
 33 385 33 385 33 380 c 0,161,162
 33 355 33 355 42.5 332 c 128,-1,163
 52 309 52 309 52 284 c 0,164,165
 52 280 52 280 49 277 c 0,166,167
 48 276 48 276 43 272 c 128,-1,168
 38 268 38 268 32.5 263.5 c 128,-1,169
 27 259 27 259 22 255 c 128,-1,170
 17 251 17 251 16 250 c 0,171,172
 10 245 10 245 10 239 c 0,173,174
 10 234 10 234 10 226 c 0,175,176
 10 212 10 212 11.5 194.5 c 128,-1,177
 13 177 13 177 22 166 c 0,178,179
 29 158 29 158 41.5 150 c 128,-1,180
 54 142 54 142 54 133 c 0,181,182
 54 123 54 123 50.5 117.5 c 128,-1,183
 47 112 47 112 39 106 c 0,184,185
 38 105 38 105 35.5 103.5 c 128,-1,186
 33 102 33 102 33 101 c 0,187,188
 32 100 32 100 31.5 96 c 128,-1,189
 31 92 31 92 31 91 c 0,190,191
 28 83 28 83 24 77.5 c 128,-1,192
 20 72 20 72 20 64 c 2,193,-1
 20 60 l 1,194,195
 22 60 22 60 25.5 59 c 128,-1,196
 29 58 29 58 31 58 c 0,197,198
 35 57 35 57 47.5 56.5 c 128,-1,199
 60 56 60 56 64 56 c 1,200,201
 62 46 62 46 56.5 39 c 128,-1,202
 51 32 51 32 51 22 c 1,203,204
 75 22 75 22 90.5 29 c 128,-1,205
 106 36 106 36 126 50 c 1,206,-1
 128 50 l 2,207,208
 141 50 141 50 146.5 38.5 c 128,-1,209
 152 27 152 27 153 16 c 1,210,-1
 167 16 l 1,211,212
 167 14 167 14 167.5 11.5 c 128,-1,213
 168 9 168 9 169 8 c 2,214,-1
 172 8 l 2,0,1
469 139 m 2,215,-1
 463 139 l 1,216,-1
 403 126 l 1,217,-1
 395 126 l 2,218,219
 386 126 386 126 383 128 c 128,-1,220
 380 130 380 130 379 132.5 c 128,-1,221
 378 135 378 135 377 138 c 128,-1,222
 376 141 376 141 372 143 c 0,223,224
 355 147 355 147 339 149 c 1,225,-1
 329 252 l 2,226,227
 329 253 329 253 324.5 255 c 128,-1,228
 320 257 320 257 318 259 c 2,229,230
 318 259 318 259 314 260.5 c 128,-1,231
 310 262 310 262 310 263 c 0,232,233
 309 265 309 265 311 269 c 128,-1,234
 313 273 313 273 313 275 c 1,235,-1
 267 275 l 2,236,237
 263 275 263 275 255.5 273 c 128,-1,238
 248 271 248 271 246 267 c 0,239,240
 245 262 245 262 243.5 254 c 128,-1,241
 242 246 242 246 237 242 c 1,242,-1
 237 219 l 2,243,244
 235 217 235 217 228 211 c 128,-1,245
 221 205 221 205 219 203 c 0,246,247
 218 201 218 201 216.5 198.5 c 128,-1,248
 215 196 215 196 215 195 c 2,249,-1
 215 143 l 1,250,251
 210 142 210 142 206 137 c 128,-1,252
 202 132 202 132 200 130 c 2,253,-1
 161 130 l 1,254,255
 161 130 161 130 158.5 131 c 128,-1,256
 156 132 156 132 155 132 c 0,257,258
 154 133 154 133 149 135.5 c 128,-1,259
 144 138 144 138 142 139 c 2,260,-1
 141 139 l 2,261,262
 136 139 136 139 133 134.5 c 128,-1,263
 130 130 130 130 124 130 c 0,264,265
 119 130 119 130 117.5 130.5 c 128,-1,266
 116 131 116 131 116 132 c 256,267,268
 116 133 116 133 116 134 c 256,269,270
 116 135 116 135 113 137 c 0,271,272
 107 140 107 140 105 139 c 128,-1,273
 103 138 103 138 103 146 c 0,274,275
 103 155 103 155 107 163.5 c 128,-1,276
 111 172 111 172 122 174 c 1,277,-1
 140 195 l 2,278,279
 141 195 141 195 141.5 197 c 128,-1,280
 142 199 142 199 142 201 c 0,281,282
 145 217 145 217 147 233.5 c 128,-1,283
 149 250 149 250 161 263 c 0,284,285
 163 263 163 263 165 265 c 128,-1,286
 167 267 167 267 165 269 c 1,287,288
 167 271 167 271 170.5 279.5 c 128,-1,289
 174 288 174 288 176 290 c 0,290,291
 184 305 184 305 188 325 c 128,-1,292
 192 345 192 345 192 362 c 0,293,294
 192 374 192 374 186.5 380.5 c 128,-1,295
 181 387 181 387 178 399 c 0,296,297
 176 403 176 403 175.5 414 c 128,-1,298
 175 425 175 425 176 428 c 0,299,300
 177 429 177 429 178.5 433.5 c 128,-1,301
 180 438 180 438 181 444 c 128,-1,302
 182 450 182 450 183 455.5 c 128,-1,303
 184 461 184 461 184 464 c 0,304,305
 184 469 184 469 181 473 c 128,-1,306
 178 477 178 477 178 482 c 2,307,-1
 178 484 l 2,308,309
 178 486 178 486 178.5 493.5 c 128,-1,310
 179 501 179 501 180 503 c 0,311,312
 185 505 185 505 187 510 c 128,-1,313
 189 515 189 515 194 517 c 0,314,315
 200 519 200 519 204 520 c 128,-1,316
 208 521 208 521 213 526 c 0,317,318
 217 529 217 529 221 536 c 0,319,320
 222 537 222 537 224.5 543 c 128,-1,321
 227 549 227 549 230.5 555 c 128,-1,322
 234 561 234 561 236.5 566.5 c 128,-1,323
 239 572 239 572 240 573 c 0,324,325
 241 575 241 575 244 579.5 c 128,-1,326
 247 584 247 584 248 586 c 0,327,328
 255 594 255 594 264 607.5 c 128,-1,329
 273 621 273 621 284 621 c 2,330,-1
 287 621 l 1,331,332
 295 613 295 613 299 608.5 c 128,-1,333
 303 604 303 604 312 602 c 2,334,-1
 340 602 l 2,335,336
 366 602 366 602 390 606.5 c 128,-1,337
 414 611 414 611 440 611 c 0,338,339
 458 611 458 611 475.5 609.5 c 128,-1,340
 493 608 493 608 511 608 c 0,341,342
 546 608 546 608 579 621 c 0,343,344
 586 623 586 623 592 628 c 128,-1,345
 598 633 598 633 605 633 c 0,346,347
 610 633 610 633 611 625 c 128,-1,348
 612 617 612 617 612 615 c 0,349,350
 612 612 612 612 613 606 c 128,-1,351
 614 600 614 600 614.5 593 c 128,-1,352
 615 586 615 586 615.5 580 c 128,-1,353
 616 574 616 574 616 571 c 0,354,355
 617 567 617 567 618.5 563.5 c 128,-1,356
 620 560 620 560 622 557 c 2,357,-1
 622 519 l 2,358,359
 622 518 622 518 616.5 517.5 c 128,-1,360
 611 517 611 517 604 516.5 c 128,-1,361
 597 516 597 516 590 513.5 c 128,-1,362
 583 511 583 511 581 507 c 1,363,-1
 573 507 l 2,364,365
 558 507 558 507 545 507.5 c 128,-1,366
 532 508 532 508 515 509 c 0,367,368
 510 510 510 510 506.5 514 c 128,-1,369
 503 518 503 518 499.5 522 c 128,-1,370
 496 526 496 526 492.5 529 c 128,-1,371
 489 532 489 532 483 532 c 0,372,373
 456 532 456 532 434.5 528 c 128,-1,374
 413 524 413 524 393 507 c 2,375,-1
 387 501 l 1,376,-1
 387 478 l 1,377,378
 393 475 393 475 394.5 469 c 128,-1,379
 396 463 396 463 397 456 c 128,-1,380
 398 449 398 449 399.5 443.5 c 128,-1,381
 401 438 401 438 407 435 c 1,382,-1
 416 408 l 2,383,384
 418 403 418 403 424 399.5 c 128,-1,385
 430 396 430 396 432 391 c 128,-1,386
 434 386 434 386 435.5 384.5 c 128,-1,387
 437 383 437 383 442 383 c 0,388,389
 450 383 450 383 455 386.5 c 128,-1,390
 460 390 460 390 465 396 c 1,391,-1
 533 396 l 1,392,393
 543 407 543 407 561.5 406.5 c 128,-1,394
 580 406 580 406 591 406 c 2,395,-1
 622 406 l 2,396,397
 623 404 623 404 624.5 396.5 c 128,-1,398
 626 389 626 389 627 387 c 0,399,400
 627 385 627 385 628 380 c 128,-1,401
 629 375 629 375 629 375 c 2,402,403
 629 373 629 373 628 369 c 128,-1,404
 627 365 627 365 627 364 c 2,405,-1
 627 355 l 2,406,407
 627 344 627 344 627 336 c 256,408,409
 627 328 627 328 629 315 c 1,410,411
 623 311 623 311 613 308.5 c 128,-1,412
 603 306 603 306 592 304.5 c 128,-1,413
 581 303 581 303 570.5 302.5 c 128,-1,414
 560 302 560 302 554 302 c 0,415,416
 546 302 546 302 527.5 301.5 c 128,-1,417
 509 301 509 301 488 301 c 256,418,419
 467 301 467 301 448 300.5 c 128,-1,420
 429 300 429 300 422 300 c 1,421,422
 413 293 413 293 413 285 c 2,423,-1
 413 279 l 1,424,425
 419 279 419 279 424 273 c 0,426,427
 428 268 428 268 427 260.5 c 128,-1,428
 426 253 426 253 430 248 c 0,429,430
 431 247 431 247 434.5 244 c 128,-1,431
 438 241 438 241 438 240 c 2,432,433
 438 240 438 240 440.5 235 c 128,-1,434
 443 230 443 230 446 224.5 c 128,-1,435
 449 219 449 219 452 214.5 c 128,-1,436
 455 210 455 210 455 209 c 1,437,438
 457 209 457 209 462 208 c 128,-1,439
 467 207 467 207 469 207 c 0,440,441
 472 207 472 207 484.5 206 c 128,-1,442
 497 205 497 205 511 204.5 c 128,-1,443
 525 204 525 204 537 203.5 c 128,-1,444
 549 203 549 203 552 203 c 0,445,446
 563 202 563 202 570.5 199 c 128,-1,447
 578 196 578 196 588 196 c 0,448,449
 590 196 590 196 594 196 c 256,450,451
 598 196 598 196 600 197 c 0,452,453
 603 198 603 198 605.5 201.5 c 128,-1,454
 608 205 608 205 611 205 c 0,455,456
 616 205 616 205 621 204 c 128,-1,457
 626 203 626 203 631 201 c 0,458,459
 633 200 633 200 635 198.5 c 128,-1,460
 637 197 637 197 637 197 c 1,461,-1
 637 128 l 1,462,463
 632 128 632 128 621 127 c 128,-1,464
 610 126 610 126 597.5 125 c 128,-1,465
 585 124 585 124 573.5 123 c 128,-1,466
 562 122 562 122 558 122 c 2,467,-1
 536 122 l 2,468,469
 525 122 525 122 518 122 c 0,470,471
 512 122 512 122 502 124 c 0,472,473
 492 127 492 127 486 133 c 128,-1,474
 480 139 480 139 469 139 c 2,215,-1
268 382 m 0,475,476
 268 375 268 375 273.5 363.5 c 128,-1,477
 279 352 279 352 287 352 c 0,478,479
 296 352 296 352 307 360.5 c 128,-1,480
 318 369 318 369 322 375 c 1,481,-1
 322 382 l 1,482,-1
 322 389 l 2,483,484
 322 392 322 392 322 399 c 0,485,486
 322 407 322 407 321.5 415 c 128,-1,487
 321 423 321 423 320.5 430.5 c 128,-1,488
 320 438 320 438 320 441 c 0,489,490
 321 447 321 447 314 446 c 128,-1,491
 307 445 307 445 307 449 c 2,492,-1
 307 466 l 1,493,494
 300 466 300 466 296 474 c 1,495,-1
 279 474 l 1,496,497
 279 466 279 466 282 459 c 128,-1,498
 285 452 285 452 285 444 c 2,499,-1
 285 439 l 2,500,501
 285 437 285 437 283 432.5 c 128,-1,502
 281 428 281 428 281 426 c 0,503,504
 280 423 280 423 279.5 412 c 128,-1,505
 279 401 279 401 279 397 c 256,506,507
 279 393 279 393 275 391.5 c 128,-1,508
 271 390 271 390 269 389 c 0,509,510
 269 388 269 388 268.5 385.5 c 128,-1,511
 268 383 268 383 268 382 c 0,475,476
EndSplineSet
Validated: 9
EndChar

StartChar: exclam
Encoding: 33 33 2
Width: 230
Flags: W
LayerCount: 2
Fore
SplineSet
9 6 m 0,0,1
 9 -22 9 -22 25 -32 c 128,-1,2
 41 -42 41 -42 68 -42 c 0,3,4
 92 -42 92 -42 110.5 -31 c 128,-1,5
 129 -20 129 -20 129 8 c 0,6,7
 129 29 129 29 113.5 46.5 c 128,-1,8
 98 64 98 64 76 64 c 0,9,10
 65 64 65 64 53 59.5 c 128,-1,11
 41 55 41 55 31 47 c 128,-1,12
 21 39 21 39 15 28.5 c 128,-1,13
 9 18 9 18 9 6 c 0,0,1
44 179 m 0,14,15
 44 161 44 161 54 143.5 c 128,-1,16
 64 126 64 126 87 126 c 0,17,18
 112 126 112 126 131 143 c 128,-1,19
 150 160 150 160 163 184.5 c 128,-1,20
 176 209 176 209 183 235.5 c 128,-1,21
 190 262 190 262 191 280 c 2,22,-1
 205 502 l 1,23,24
 216 526 216 526 218 539.5 c 128,-1,25
 220 553 220 553 220 574 c 0,26,27
 220 592 220 592 215.5 615.5 c 128,-1,28
 211 639 211 639 201 660.5 c 128,-1,29
 191 682 191 682 176 697 c 128,-1,30
 161 712 161 712 139 712 c 0,31,32
 118 712 118 712 105 697.5 c 128,-1,33
 92 683 92 683 85 659.5 c 128,-1,34
 78 636 78 636 74.5 608 c 128,-1,35
 71 580 71 580 69 552.5 c 128,-1,36
 67 525 67 525 64 502.5 c 128,-1,37
 61 480 61 480 55 468 c 1,38,-1
 55 231 l 1,39,40
 47 214 47 214 45.5 204 c 128,-1,41
 44 194 44 194 44 179 c 0,14,15
EndSplineSet
Validated: 9
EndChar

StartChar: quotedbl
Encoding: 34 34 3
Width: 261
Flags: W
LayerCount: 2
Fore
SplineSet
74 499 m 0,0,1
 87 501 87 501 96 521 c 128,-1,2
 105 541 105 541 110 565 c 128,-1,3
 115 589 115 589 117 610.5 c 128,-1,4
 119 632 119 632 118 638 c 0,5,6
 114 661 114 661 95 674 c 128,-1,7
 76 687 76 687 53 682 c 128,-1,8
 30 677 30 677 23 665 c 128,-1,9
 16 653 16 653 11 630 c 1,10,-1
 20 582 l 1,11,-1
 24 557 l 2,12,13
 26 546 26 546 29.5 535 c 128,-1,14
 33 524 33 524 39 515.5 c 128,-1,15
 45 507 45 507 53.5 502 c 128,-1,16
 62 497 62 497 74 499 c 0,0,1
195 498 m 0,17,18
 208 499 208 499 217.5 518.5 c 128,-1,19
 227 538 227 538 233 562 c 128,-1,20
 239 586 239 586 242 607.5 c 128,-1,21
 245 629 245 629 245 634 c 0,22,23
 243 657 243 657 224.5 671 c 128,-1,24
 206 685 206 685 182 681 c 0,25,26
 159 678 159 678 151 666 c 128,-1,27
 143 654 143 654 138 631 c 1,28,-1
 145 583 l 1,29,-1
 147 558 l 2,30,31
 148 547 148 547 151.5 536 c 128,-1,32
 155 525 155 525 160.5 516 c 128,-1,33
 166 507 166 507 174.5 501.5 c 128,-1,34
 183 496 183 496 195 498 c 0,17,18
EndSplineSet
Validated: 41
EndChar

StartChar: dollar
Encoding: 36 36 4
Width: 645
Flags: W
LayerCount: 2
Fore
SplineSet
333 -76 m 0,0,1
 343 -76 343 -76 354 -72.5 c 128,-1,2
 365 -69 365 -69 374.5 -61 c 128,-1,3
 384 -53 384 -53 390 -41.5 c 128,-1,4
 396 -30 396 -30 396 -13 c 2,5,-1
 396 14 l 1,6,7
 433 20 433 20 475 33 c 128,-1,8
 517 46 517 46 552.5 67 c 128,-1,9
 588 88 588 88 611 117 c 128,-1,10
 634 146 634 146 634 184 c 0,11,12
 634 215 634 215 618 238 c 128,-1,13
 602 261 602 261 578.5 277 c 128,-1,14
 555 293 555 293 527.5 304.5 c 128,-1,15
 500 316 500 316 477 325 c 0,16,17
 465 328 465 328 441 336.5 c 128,-1,18
 417 345 417 345 396 353 c 1,19,-1
 396 562 l 1,20,-1
 405 562 l 2,21,22
 425 562 425 562 441.5 550.5 c 128,-1,23
 458 539 458 539 472.5 522 c 128,-1,24
 487 505 487 505 500.5 485 c 128,-1,25
 514 465 514 465 528 448 c 128,-1,26
 542 431 542 431 556.5 419.5 c 128,-1,27
 571 408 571 408 588 408 c 0,28,29
 607 408 607 408 620.5 421.5 c 128,-1,30
 634 435 634 435 634 457 c 0,31,32
 634 471 634 471 627 486.5 c 128,-1,33
 620 502 620 502 610.5 516 c 128,-1,34
 601 530 601 530 591 542 c 128,-1,35
 581 554 581 554 575 562 c 0,36,37
 537 609 537 609 492 634.5 c 128,-1,38
 447 660 447 660 396 669 c 1,39,-1
 396 690 l 2,40,41
 396 703 396 703 389 716 c 128,-1,42
 382 729 382 729 372.5 739.5 c 128,-1,43
 363 750 363 750 352 756 c 128,-1,44
 341 762 341 762 332 762 c 0,45,46
 314 762 314 762 297 743.5 c 128,-1,47
 280 725 280 725 280 699 c 2,48,-1
 280 673 l 1,49,50
 237 667 237 667 190 650 c 128,-1,51
 143 633 143 633 103.5 605.5 c 128,-1,52
 64 578 64 578 38.5 540 c 128,-1,53
 13 502 13 502 13 454 c 0,54,55
 13 404 13 404 39 373 c 128,-1,56
 65 342 65 342 105 323.5 c 128,-1,57
 145 305 145 305 191.5 294.5 c 128,-1,58
 238 284 238 284 280 276 c 1,59,-1
 280 120 l 1,60,-1
 242 120 l 2,61,62
 225 120 225 120 209 128 c 128,-1,63
 193 136 193 136 177.5 145.5 c 128,-1,64
 162 155 162 155 146 163 c 128,-1,65
 130 171 130 171 112 171 c 0,66,67
 95 171 95 171 83 163.5 c 128,-1,68
 71 156 71 156 71 135 c 0,69,70
 71 105 71 105 92 83 c 128,-1,71
 113 61 113 61 144.5 46 c 128,-1,72
 176 31 176 31 212.5 22.5 c 128,-1,73
 249 14 249 14 280 10 c 1,74,-1
 280 -13 l 2,75,76
 280 -41 280 -41 296.5 -58.5 c 128,-1,77
 313 -76 313 -76 333 -76 c 0,0,1
280 562 m 1,78,-1
 280 376 l 1,79,80
 259 377 259 377 238 378.5 c 128,-1,81
 217 380 217 380 197.5 385 c 128,-1,82
 178 390 178 390 161 400 c 128,-1,83
 144 410 144 410 130 429 c 0,84,85
 129 433 129 433 128.5 443.5 c 128,-1,86
 128 454 128 454 128 457 c 0,87,88
 128 480 128 480 141.5 499 c 128,-1,89
 155 518 155 518 175.5 532 c 128,-1,90
 196 546 196 546 219 554 c 128,-1,91
 242 562 242 562 261 562 c 2,92,-1
 280 562 l 1,78,-1
396 242 m 1,93,94
 413 237 413 237 426.5 232.5 c 128,-1,95
 440 228 440 228 444 226 c 0,96,97
 458 221 458 221 464.5 212.5 c 128,-1,98
 471 204 471 204 471 189 c 0,99,100
 471 160 471 160 452 140 c 128,-1,101
 433 120 433 120 405 120 c 2,102,-1
 396 120 l 1,103,-1
 396 242 l 1,93,94
EndSplineSet
Validated: 9
EndChar

StartChar: ampersand
Encoding: 38 38 5
Width: 685
Flags: W
LayerCount: 2
Fore
SplineSet
10 183 m 0,0,1
 10 132 10 132 31 90.5 c 128,-1,2
 52 49 52 49 86.5 19.5 c 128,-1,3
 121 -10 121 -10 165.5 -26 c 128,-1,4
 210 -42 210 -42 258 -42 c 0,5,6
 298 -42 298 -42 325.5 -29.5 c 128,-1,7
 353 -17 353 -17 376.5 -2.5 c 128,-1,8
 400 12 400 12 422 24.5 c 128,-1,9
 444 37 444 37 473 37 c 0,10,11
 498 37 498 37 515.5 24.5 c 128,-1,12
 533 12 533 12 549.5 -2.5 c 128,-1,13
 566 -17 566 -17 584 -29.5 c 128,-1,14
 602 -42 602 -42 627 -42 c 0,15,16
 644 -42 644 -42 652.5 -31.5 c 128,-1,17
 661 -21 661 -21 661 -4 c 0,18,19
 661 19 661 19 647.5 35 c 128,-1,20
 634 51 634 51 618.5 65.5 c 128,-1,21
 603 80 603 80 589.5 95.5 c 128,-1,22
 576 111 576 111 576 134 c 0,23,24
 576 158 576 158 591.5 168 c 128,-1,25
 607 178 607 178 625 185 c 128,-1,26
 643 192 643 192 658.5 201.5 c 128,-1,27
 674 211 674 211 674 235 c 0,28,29
 674 258 674 258 656.5 273 c 128,-1,30
 639 288 639 288 617 288 c 0,31,32
 597 288 597 288 581.5 278 c 128,-1,33
 566 268 566 268 551.5 256 c 128,-1,34
 537 244 537 244 521.5 234 c 128,-1,35
 506 224 506 224 485 224 c 0,36,37
 475 224 475 224 466 224 c 0,38,39
 458 224 458 224 450 232 c 0,40,41
 439 242 439 242 423.5 255 c 128,-1,42
 408 268 408 268 393.5 283.5 c 128,-1,43
 379 299 379 299 369 317 c 128,-1,44
 359 335 359 335 359 354 c 0,45,46
 359 383 359 383 382 403 c 128,-1,47
 405 423 405 423 433 444 c 128,-1,48
 461 465 461 465 484 492.5 c 128,-1,49
 507 520 507 520 507 563 c 0,50,51
 507 589 507 589 494.5 619.5 c 128,-1,52
 482 650 482 650 461.5 675.5 c 128,-1,53
 441 701 441 701 414.5 718 c 128,-1,54
 388 735 388 735 359 735 c 2,55,-1
 213 735 l 2,56,57
 179 735 179 735 152 715 c 128,-1,58
 125 695 125 695 105.5 665 c 128,-1,59
 86 635 86 635 75.5 601 c 128,-1,60
 65 567 65 567 65 539 c 256,61,62
 65 511 65 511 75 492 c 128,-1,63
 85 473 85 473 97 457.5 c 128,-1,64
 109 442 109 442 119 426.5 c 128,-1,65
 129 411 129 411 129 389 c 0,66,67
 129 371 129 371 120.5 360 c 128,-1,68
 112 349 112 349 100 340 c 128,-1,69
 88 331 88 331 75 322.5 c 128,-1,70
 62 314 62 314 52 301 c 0,71,72
 44 291 44 291 36.5 276 c 128,-1,73
 29 261 29 261 23 245 c 128,-1,74
 17 229 17 229 13.5 212.5 c 128,-1,75
 10 196 10 196 10 183 c 0,0,1
121 162 m 0,76,77
 121 184 121 184 127.5 206.5 c 128,-1,78
 134 229 134 229 146.5 247 c 128,-1,79
 159 265 159 265 177.5 276.5 c 128,-1,80
 196 288 196 288 220 288 c 0,81,82
 229 288 229 288 241.5 288.5 c 128,-1,83
 254 289 254 289 262 281 c 2,84,-1
 366 176 l 2,85,86
 375 168 375 168 374.5 153.5 c 128,-1,87
 374 139 374 139 374 130 c 0,88,89
 374 109 374 109 362 90 c 128,-1,90
 350 71 350 71 325 71 c 2,91,-1
 185 71 l 2,92,93
 167 71 167 71 154.5 80 c 128,-1,94
 142 89 142 89 134.5 102.5 c 128,-1,95
 127 116 127 116 124 132 c 128,-1,96
 121 148 121 148 121 162 c 0,76,77
178 546 m 0,97,98
 178 568 178 568 188 584 c 128,-1,99
 198 600 198 600 213.5 610.5 c 128,-1,100
 229 621 229 621 248.5 626 c 128,-1,101
 268 631 268 631 286 631 c 0,102,103
 307 631 307 631 325.5 626 c 128,-1,104
 344 621 344 621 358 611 c 128,-1,105
 372 601 372 601 380 584.5 c 128,-1,106
 388 568 388 568 388 546 c 0,107,108
 388 522 388 522 378 505 c 128,-1,109
 368 488 368 488 351.5 476.5 c 128,-1,110
 335 465 335 465 314.5 460 c 128,-1,111
 294 455 294 455 272 455 c 0,112,113
 253 455 253 455 236 462 c 128,-1,114
 219 469 219 469 206 481 c 128,-1,115
 193 493 193 493 185.5 509.5 c 128,-1,116
 178 526 178 526 178 546 c 0,97,98
EndSplineSet
Validated: 9
EndChar

StartChar: quotesingle
Encoding: 39 39 6
Width: 129
Flags: W
LayerCount: 2
Fore
SplineSet
74 503 m 0,0,1
 87 505 87 505 96 525 c 128,-1,2
 105 545 105 545 110 569 c 128,-1,3
 115 593 115 593 117 614.5 c 128,-1,4
 119 636 119 636 118 642 c 0,5,6
 114 665 114 665 95 678 c 128,-1,7
 76 691 76 691 53 686 c 128,-1,8
 30 681 30 681 23 669 c 128,-1,9
 16 657 16 657 11 634 c 1,10,-1
 20 586 l 1,11,-1
 24 561 l 2,12,13
 26 550 26 550 29.5 539 c 128,-1,14
 33 528 33 528 39 519.5 c 128,-1,15
 45 511 45 511 53.5 506 c 128,-1,16
 62 501 62 501 74 503 c 0,0,1
EndSplineSet
Validated: 41
EndChar

StartChar: parenleft
Encoding: 40 40 7
Width: 478
Flags: W
LayerCount: 2
Fore
SplineSet
450 706 m 1,0,1
 438 720 438 720 417.5 728 c 128,-1,2
 397 736 397 736 374.5 737 c 128,-1,3
 352 738 352 738 330.5 733 c 128,-1,4
 309 728 309 728 294 716 c 2,5,-1
 82 534 l 2,6,7
 81 533 81 533 74 524 c 128,-1,8
 67 515 67 515 65 511 c 0,9,10
 61 506 61 506 57 499 c 128,-1,11
 53 492 53 492 53 491 c 0,12,13
 38 446 38 446 27.5 405.5 c 128,-1,14
 17 365 17 365 15 325 c 128,-1,15
 13 285 13 285 21.5 244.5 c 128,-1,16
 30 204 30 204 53 158 c 1,17,-1
 61 148 l 2,18,19
 66 141 66 141 73 133.5 c 128,-1,20
 80 126 80 126 86 118 c 2,21,-1
 94 108 l 2,22,23
 98 103 98 103 105.5 93.5 c 128,-1,24
 113 84 113 84 122 73.5 c 128,-1,25
 131 63 131 63 141 54 c 128,-1,26
 151 45 151 45 160 42 c 2,27,-1
 363 -41 l 2,28,29
 378 -47 378 -47 402 -45.5 c 128,-1,30
 426 -44 426 -44 439 -33 c 0,31,32
 442 -30 442 -30 445.5 -23.5 c 128,-1,33
 449 -17 449 -17 451.5 -10 c 128,-1,34
 454 -3 454 -3 454.5 3.5 c 128,-1,35
 455 10 455 10 452 14 c 2,36,-1
 412 62 l 1,37,-1
 205 152 l 2,38,39
 203 153 203 153 192.5 160.5 c 128,-1,40
 182 168 182 168 177 173 c 2,41,-1
 171 183 l 1,42,43
 153 203 153 203 143.5 243 c 128,-1,44
 134 283 134 283 135 327 c 128,-1,45
 136 371 136 371 147 410.5 c 128,-1,46
 158 450 158 450 182 470 c 2,47,-1
 308 580 l 2,48,49
 322 592 322 592 340.5 601.5 c 128,-1,50
 359 611 359 611 377.5 618.5 c 128,-1,51
 396 626 396 626 412 631 c 128,-1,52
 428 636 428 636 438 639 c 0,53,54
 444 641 444 641 450 645 c 128,-1,55
 456 649 456 649 459 656.5 c 128,-1,56
 462 664 462 664 460.5 676 c 128,-1,57
 459 688 459 688 450 706 c 1,0,1
EndSplineSet
Validated: 41
EndChar

StartChar: parenright
Encoding: 41 41 8
Width: 467
Flags: W
LayerCount: 2
Fore
SplineSet
18 708 m 1,0,1
 30 722 30 722 50.5 730 c 128,-1,2
 71 738 71 738 93.5 739 c 128,-1,3
 116 740 116 740 137.5 735 c 128,-1,4
 159 730 159 730 174 718 c 2,5,-1
 386 536 l 2,6,7
 387 535 387 535 394 526 c 128,-1,8
 401 517 401 517 403 513 c 0,9,10
 407 508 407 508 411 501 c 128,-1,11
 415 494 415 494 415 493 c 0,12,13
 430 448 430 448 440 407.5 c 128,-1,14
 450 367 450 367 452 327 c 128,-1,15
 454 287 454 287 445.5 246 c 128,-1,16
 437 205 437 205 415 160 c 1,17,-1
 407 150 l 2,18,19
 402 143 402 143 395 135.5 c 128,-1,20
 388 128 388 128 382 120 c 2,21,-1
 374 110 l 2,22,23
 370 105 370 105 362.5 95.5 c 128,-1,24
 355 86 355 86 346 75.5 c 128,-1,25
 337 65 337 65 327 56 c 128,-1,26
 317 47 317 47 308 44 c 2,27,-1
 105 -39 l 2,28,29
 90 -45 90 -45 66 -43.5 c 128,-1,30
 42 -42 42 -42 29 -31 c 0,31,32
 22 -24 22 -24 16.5 -8.5 c 128,-1,33
 11 7 11 7 16 16 c 2,34,-1
 31 43 l 1,35,-1
 263 154 l 2,36,37
 265 155 265 155 275.5 162.5 c 128,-1,38
 286 170 286 170 291 175 c 2,39,-1
 297 185 l 2,40,41
 314 206 314 206 323 245.5 c 128,-1,42
 332 285 332 285 332 330 c 256,43,44
 332 375 332 375 321 413.5 c 128,-1,45
 310 452 310 452 286 472 c 2,46,-1
 160 582 l 2,47,48
 146 594 146 594 127.5 603.5 c 128,-1,49
 109 613 109 613 90.5 620.5 c 128,-1,50
 72 628 72 628 56 633 c 128,-1,51
 40 638 40 638 30 641 c 0,52,53
 19 645 19 645 14.5 662 c 128,-1,54
 10 679 10 679 18 708 c 1,0,1
EndSplineSet
Validated: 33
EndChar

StartChar: asterisk
Encoding: 42 42 9
Width: 783
Flags: W
LayerCount: 2
Fore
SplineSet
10 323 m 0,0,1
 10 304 10 304 36.5 294 c 128,-1,2
 63 284 63 284 98 277 c 128,-1,3
 133 270 133 270 168 263.5 c 128,-1,4
 203 257 203 257 220 246 c 0,5,6
 234 236 234 236 244.5 211.5 c 128,-1,7
 255 187 255 187 263.5 156 c 128,-1,8
 272 125 272 125 280 91.5 c 128,-1,9
 288 58 288 58 297.5 30 c 128,-1,10
 307 2 307 2 318.5 -16 c 128,-1,11
 330 -34 330 -34 346 -34 c 0,12,13
 347 -34 347 -34 354.5 -31.5 c 128,-1,14
 362 -29 362 -29 367 -27 c 0,15,16
 369 -26 369 -26 374.5 -23.5 c 128,-1,17
 380 -21 380 -21 381 -20 c 0,18,19
 403 -2 403 -2 427.5 20.5 c 128,-1,20
 452 43 452 43 479.5 63 c 128,-1,21
 507 83 507 83 536.5 97 c 128,-1,22
 566 111 566 111 597 113 c 0,23,24
 601 113 601 113 615 113 c 256,25,26
 629 113 629 113 645 113 c 0,27,28
 662 113 662 113 676 113 c 0,29,30
 691 113 691 113 695 113 c 0,31,32
 698 113 698 113 706 115.5 c 128,-1,33
 714 118 714 118 716 120 c 0,34,35
 733 131 733 131 735.5 137 c 128,-1,36
 738 143 738 143 738 160 c 0,37,38
 738 185 738 185 724.5 210.5 c 128,-1,39
 711 236 711 236 695.5 263 c 128,-1,40
 680 290 680 290 666.5 318.5 c 128,-1,41
 653 347 653 347 653 379 c 256,42,43
 653 411 653 411 671.5 432.5 c 128,-1,44
 690 454 690 454 712.5 470.5 c 128,-1,45
 735 487 735 487 754 501.5 c 128,-1,46
 773 516 773 516 773 535 c 0,47,48
 773 549 773 549 762 558 c 128,-1,49
 751 567 751 567 737 567 c 2,50,-1
 562 567 l 2,51,52
 559 567 559 567 551.5 570 c 128,-1,53
 544 573 544 573 535.5 576.5 c 128,-1,54
 527 580 527 580 520.5 583.5 c 128,-1,55
 514 587 514 587 513 588 c 2,56,-1
 381 714 l 1,57,-1
 353 728 l 1,58,-1
 349 728 l 2,59,60
 326 728 326 728 316.5 710 c 128,-1,61
 307 692 307 692 303.5 667.5 c 128,-1,62
 300 643 300 643 300 618 c 0,63,64
 300 594 300 594 297 581 c 0,65,66
 289 552 289 552 275 525 c 128,-1,67
 261 498 261 498 241 476 c 0,68,69
 220 452 220 452 196.5 435.5 c 128,-1,70
 173 419 173 419 147.5 405.5 c 128,-1,71
 122 392 122 392 95 380.5 c 128,-1,72
 68 369 68 369 38 357 c 0,73,74
 37 356 37 356 32.5 352.5 c 128,-1,75
 28 349 28 349 23 343.5 c 128,-1,76
 18 338 18 338 14 332.5 c 128,-1,77
 10 327 10 327 10 323 c 0,0,1
EndSplineSet
Validated: 9
EndChar

StartChar: plus
Encoding: 43 43 10
Width: 690
Flags: W
LayerCount: 2
Fore
SplineSet
349 0 m 0,0,1
 359 0 359 0 370.5 3 c 128,-1,2
 382 6 382 6 391.5 12 c 128,-1,3
 401 18 401 18 407.5 27.5 c 128,-1,4
 414 37 414 37 414 50 c 2,5,-1
 414 279 l 1,6,-1
 628 279 l 2,7,8
 650 279 650 279 664 296 c 128,-1,9
 678 313 678 313 678 333 c 0,10,11
 678 343 678 343 675 354.5 c 128,-1,12
 672 366 672 366 666 375.5 c 128,-1,13
 660 385 660 385 650.5 391.5 c 128,-1,14
 641 398 641 398 628 398 c 2,15,-1
 414 398 l 1,16,-1
 414 609 l 2,17,18
 414 619 414 619 407 629.5 c 128,-1,19
 400 640 400 640 390 648 c 128,-1,20
 380 656 380 656 368.5 661 c 128,-1,21
 357 666 357 666 348 666 c 0,22,23
 330 666 330 666 312.5 651 c 128,-1,24
 295 636 295 636 295 616 c 2,25,-1
 295 398 l 1,26,-1
 69 398 l 2,27,28
 58 398 58 398 48 391 c 128,-1,29
 38 384 38 384 30 374 c 128,-1,30
 22 364 22 364 17 352.5 c 128,-1,31
 12 341 12 341 12 332 c 0,32,33
 12 314 12 314 27 296.5 c 128,-1,34
 42 279 42 279 62 279 c 2,35,-1
 295 279 l 1,36,-1
 295 50 l 2,37,38
 295 28 295 28 312 14 c 128,-1,39
 329 0 329 0 349 0 c 0,0,1
EndSplineSet
Validated: 9
EndChar

StartChar: comma
Encoding: 44 44 11
Width: 132
Flags: W
LayerCount: 2
Fore
SplineSet
53 -110 m 0,0,1
 41 -110 41 -110 33.5 -103.5 c 128,-1,2
 26 -97 26 -97 21.5 -87.5 c 128,-1,3
 17 -78 17 -78 15.5 -66.5 c 128,-1,4
 14 -55 14 -55 14 -44 c 2,5,-1
 14 -19 l 1,6,-1
 14 30 l 1,7,8
 22 52 22 52 31.5 63 c 128,-1,9
 41 74 41 74 64 74 c 256,10,11
 87 74 87 74 103.5 58 c 128,-1,12
 120 42 120 42 120 19 c 0,13,14
 120 13 120 13 114.5 -7.5 c 128,-1,15
 109 -28 109 -28 99.5 -51 c 128,-1,16
 90 -74 90 -74 78 -92 c 128,-1,17
 66 -110 66 -110 53 -110 c 0,0,1
EndSplineSet
Validated: 1
EndChar

StartChar: minus
Encoding: 45 45 12
Width: 685
Flags: W
LayerCount: 2
Fore
SplineSet
9 344 m 0,0,1
 9 334 9 334 12 322.5 c 128,-1,2
 15 311 15 311 21 301.5 c 128,-1,3
 27 292 27 292 36.5 285.5 c 128,-1,4
 46 279 46 279 59 279 c 2,5,-1
 618 279 l 2,6,7
 629 279 629 279 639 286 c 128,-1,8
 649 293 649 293 657 303 c 128,-1,9
 665 313 665 313 670 324.5 c 128,-1,10
 675 336 675 336 675 345 c 0,11,12
 675 363 675 363 660 380.5 c 128,-1,13
 645 398 645 398 625 398 c 2,14,-1
 59 398 l 2,15,16
 37 398 37 398 23 381 c 128,-1,17
 9 364 9 364 9 344 c 0,0,1
EndSplineSet
Validated: 9
EndChar

StartChar: period
Encoding: 46 46 13
Width: 143
Flags: W
LayerCount: 2
Fore
SplineSet
11 14 m 0,0,1
 11 26 11 26 17 36.5 c 128,-1,2
 23 47 23 47 33 55 c 128,-1,3
 43 63 43 63 55 67.5 c 128,-1,4
 67 72 67 72 78 72 c 0,5,6
 100 72 100 72 115.5 54.5 c 128,-1,7
 131 37 131 37 131 16 c 0,8,9
 131 -11 131 -11 112.5 -22 c 128,-1,10
 94 -33 94 -33 70 -33 c 0,11,12
 43 -33 43 -33 27 -23 c 128,-1,13
 11 -13 11 -13 11 14 c 0,0,1
EndSplineSet
Validated: 1
EndChar

StartChar: slash
Encoding: 47 47 14
Width: 464
Flags: W
LayerCount: 2
Fore
SplineSet
41 11 m 0,0,1
 57 1 57 1 82.5 5 c 128,-1,2
 108 9 108 9 122 32 c 2,3,-1
 446 600 l 2,4,5
 453 612 453 612 452 624.5 c 128,-1,6
 451 637 451 637 445.5 648.5 c 128,-1,7
 440 660 440 660 431.5 669.5 c 128,-1,8
 423 679 423 679 416 684 c 0,9,10
 400 692 400 692 378.5 689.5 c 128,-1,11
 357 687 357 687 345 666 c 2,12,-1
 21 99 l 2,13,14
 7 74 7 74 13.5 49 c 128,-1,15
 20 24 20 24 41 11 c 0,0,1
EndSplineSet
Validated: 41
EndChar

StartChar: zero
Encoding: 48 48 15
Width: 685
Flags: W
LayerCount: 2
Fore
SplineSet
9 373 m 0,0,1
 9 310 9 310 36.5 246.5 c 128,-1,2
 64 183 64 183 110 132.5 c 128,-1,3
 156 82 156 82 216.5 50.5 c 128,-1,4
 277 19 277 19 342 19 c 0,5,6
 408 19 408 19 468.5 51 c 128,-1,7
 529 83 529 83 575 134 c 128,-1,8
 621 185 621 185 648 248.5 c 128,-1,9
 675 312 675 312 675 376 c 0,10,11
 675 395 675 395 672.5 411.5 c 128,-1,12
 670 428 670 428 665.5 443.5 c 128,-1,13
 661 459 661 459 654 474.5 c 128,-1,14
 647 490 647 490 639 509 c 0,15,16
 620 552 620 552 598.5 582 c 128,-1,17
 577 612 577 612 550.5 634 c 128,-1,18
 524 656 524 656 491 674 c 128,-1,19
 458 692 458 692 415 712 c 0,20,21
 398 720 398 720 378 726.5 c 128,-1,22
 358 733 358 733 338 733 c 0,23,24
 321 733 321 733 298.5 725.5 c 128,-1,25
 276 718 276 718 262 712 c 0,26,27
 210 689 210 689 164 655.5 c 128,-1,28
 118 622 118 622 83.5 579.5 c 128,-1,29
 49 537 49 537 29 485 c 128,-1,30
 9 433 9 433 9 373 c 0,0,1
128 344 m 0,31,32
 128 393 128 393 139 442 c 128,-1,33
 150 491 150 491 174.5 529 c 128,-1,34
 199 567 199 567 239 591 c 128,-1,35
 279 615 279 615 336 615 c 0,36,37
 388 615 388 615 429 595 c 128,-1,38
 470 575 470 575 498 541 c 128,-1,39
 526 507 526 507 541 462.5 c 128,-1,40
 556 418 556 418 556 369 c 0,41,42
 556 366 556 366 556 357 c 256,43,44
 556 348 556 348 555.5 338 c 128,-1,45
 555 328 555 328 555 319 c 256,46,47
 555 310 555 310 555 307 c 0,48,49
 545 269 545 269 525 237 c 128,-1,50
 505 205 505 205 477.5 181.5 c 128,-1,51
 450 158 450 158 415.5 144.5 c 128,-1,52
 381 131 381 131 342 131 c 0,53,54
 300 131 300 131 261 148 c 128,-1,55
 222 165 222 165 192.5 194 c 128,-1,56
 163 223 163 223 145.5 261.5 c 128,-1,57
 128 300 128 300 128 344 c 0,31,32
EndSplineSet
Validated: 9
EndChar

StartChar: one
Encoding: 49 49 16
Width: 153
Flags: W
LayerCount: 2
Fore
SplineSet
10 402 m 2,0,1
 10 399 10 399 11 391 c 128,-1,2
 12 383 12 383 13.5 374.5 c 128,-1,3
 15 366 15 366 16 358 c 128,-1,4
 17 350 17 350 17 347 c 0,5,6
 17 342 17 342 18 322.5 c 128,-1,7
 19 303 19 303 20 281 c 128,-1,8
 21 259 21 259 22 239.5 c 128,-1,9
 23 220 23 220 24 215 c 0,10,11
 24 212 24 212 27 200.5 c 128,-1,12
 30 189 30 189 34 176.5 c 128,-1,13
 38 164 38 164 41 152.5 c 128,-1,14
 44 141 44 141 45 138 c 0,15,16
 48 124 48 124 49.5 105 c 128,-1,17
 51 86 51 86 56 68.5 c 128,-1,18
 61 51 61 51 72.5 38.5 c 128,-1,19
 84 26 84 26 105 26 c 0,20,21
 119 26 119 26 129 37.5 c 128,-1,22
 139 49 139 49 142 62 c 0,23,24
 142 68 142 68 142 84 c 0,25,26
 142 101 142 101 142.5 119 c 128,-1,27
 143 137 143 137 143 153 c 0,28,29
 143 170 143 170 143 176 c 0,30,31
 143 279 143 279 136.5 379 c 128,-1,32
 130 479 130 479 128 583 c 0,33,34
 125 598 125 598 119 620.5 c 128,-1,35
 113 643 113 643 104 664.5 c 128,-1,36
 95 686 95 686 81.5 701 c 128,-1,37
 68 716 68 716 49 716 c 0,38,39
 37 716 37 716 23.5 709 c 128,-1,40
 10 702 10 702 10 687 c 2,41,-1
 10 402 l 2,0,1
EndSplineSet
Validated: 9
EndChar

StartChar: two
Encoding: 50 50 17
Width: 685
Flags: W
LayerCount: 2
Fore
SplineSet
177 181 m 0,0,1
 177 133 177 133 197 100.5 c 128,-1,2
 217 68 217 68 249 48.5 c 128,-1,3
 281 29 281 29 321 20.5 c 128,-1,4
 361 12 361 12 402 12 c 0,5,6
 408 12 408 12 417 12 c 256,7,8
 426 12 426 12 435 12.5 c 128,-1,9
 444 13 444 13 450 13 c 0,10,11
 457 13 457 13 457 13 c 1,12,-1
 632 62 l 2,13,14
 649 67 649 67 661.5 83.5 c 128,-1,15
 674 100 674 100 674 117 c 0,16,17
 674 146 674 146 654.5 160.5 c 128,-1,18
 635 175 635 175 609 175 c 0,19,20
 605 175 605 175 598 174.5 c 128,-1,21
 591 174 591 174 590 174 c 0,22,23
 588 173 588 173 578.5 169 c 128,-1,24
 569 165 569 165 558.5 160 c 128,-1,25
 548 155 548 155 539 151 c 128,-1,26
 530 147 530 147 527 146 c 0,27,28
 486 129 486 129 444.5 123.5 c 128,-1,29
 403 118 403 118 358 118 c 0,30,31
 333 118 333 118 314.5 128.5 c 128,-1,32
 296 139 296 139 296 167 c 0,33,34
 296 203 296 203 324 228.5 c 128,-1,35
 352 254 352 254 394 275.5 c 128,-1,36
 436 297 436 297 485 317.5 c 128,-1,37
 534 338 534 338 576 364.5 c 128,-1,38
 618 391 618 391 646 425.5 c 128,-1,39
 674 460 674 460 674 509 c 0,40,41
 674 543 674 543 659.5 573 c 128,-1,42
 645 603 645 603 620.5 628 c 128,-1,43
 596 653 596 653 564 672.5 c 128,-1,44
 532 692 532 692 498.5 706 c 128,-1,45
 465 720 465 720 431.5 727 c 128,-1,46
 398 734 398 734 370 734 c 0,47,48
 313 734 313 734 265 715.5 c 128,-1,49
 217 697 217 697 175.5 666.5 c 128,-1,50
 134 636 134 636 98.5 597 c 128,-1,51
 63 558 63 558 31 516 c 0,52,53
 22 504 22 504 16 491.5 c 128,-1,54
 10 479 10 479 10 464 c 0,55,56
 10 439 10 439 24 425 c 128,-1,57
 38 411 38 411 62 411 c 0,58,59
 85 411 85 411 105.5 429.5 c 128,-1,60
 126 448 126 448 144.5 474 c 128,-1,61
 163 500 163 500 181.5 527 c 128,-1,62
 200 554 200 554 220 572 c 0,63,64
 255 604 255 604 300.5 613 c 128,-1,65
 346 622 346 622 391 622 c 0,66,67
 394 622 394 622 402 622 c 0,68,69
 411 622 411 622 420.5 621.5 c 128,-1,70
 430 621 430 621 438 621 c 0,71,72
 447 621 447 621 450 621 c 0,73,74
 468 617 468 617 486.5 607.5 c 128,-1,75
 505 598 505 598 520 584.5 c 128,-1,76
 535 571 535 571 545 553.5 c 128,-1,77
 555 536 555 536 555 516 c 0,78,79
 555 499 555 499 546.5 484 c 128,-1,80
 538 469 538 469 525.5 456.5 c 128,-1,81
 513 444 513 444 498 434 c 128,-1,82
 483 424 483 424 471 418 c 2,83,-1
 269 321 l 2,84,85
 268 320 268 320 260 312.5 c 128,-1,86
 252 305 252 305 242 295 c 128,-1,87
 232 285 232 285 222 274.5 c 128,-1,88
 212 264 212 264 206 258 c 0,89,90
 192 243 192 243 184.5 222 c 128,-1,91
 177 201 177 201 177 181 c 0,0,1
EndSplineSet
Validated: 9
EndChar

StartChar: three
Encoding: 51 51 18
Width: 622
Flags: W
LayerCount: 2
Fore
SplineSet
394 65 m 0,0,1
 394 41 394 41 412 30 c 128,-1,2
 430 19 430 19 451 19 c 0,3,4
 490 19 490 19 520 46 c 128,-1,5
 550 73 550 73 570.5 112 c 128,-1,6
 591 151 591 151 601.5 193.5 c 128,-1,7
 612 236 612 236 612 268 c 0,8,9
 612 298 612 298 606.5 317 c 128,-1,10
 601 336 601 336 592.5 349 c 128,-1,11
 584 362 584 362 573.5 371.5 c 128,-1,12
 563 381 563 381 552 392 c 128,-1,13
 541 403 541 403 530.5 417 c 128,-1,14
 520 431 520 431 513 453 c 0,15,16
 507 470 507 470 505 485.5 c 128,-1,17
 503 501 503 501 502.5 516.5 c 128,-1,18
 502 532 502 532 501.5 549 c 128,-1,19
 501 566 501 566 499 586 c 0,20,21
 496 616 496 616 471 642.5 c 128,-1,22
 446 669 446 669 413 689 c 128,-1,23
 380 709 380 709 344 721 c 128,-1,24
 308 733 308 733 283 733 c 0,25,26
 266 733 266 733 239.5 725.5 c 128,-1,27
 213 718 213 718 182.5 705 c 128,-1,28
 152 692 152 692 121.5 674.5 c 128,-1,29
 91 657 91 657 66 637 c 128,-1,30
 41 617 41 617 25.5 596 c 128,-1,31
 10 575 10 575 10 555 c 0,32,33
 10 534 10 534 24.5 521.5 c 128,-1,34
 39 509 39 509 59 509 c 0,35,36
 92 509 92 509 117 526.5 c 128,-1,37
 142 544 142 544 166 565.5 c 128,-1,38
 190 587 190 587 217.5 604.5 c 128,-1,39
 245 622 245 622 283 622 c 0,40,41
 328 622 328 622 358 600.5 c 128,-1,42
 388 579 388 579 388 530 c 0,43,44
 388 489 388 489 364 465 c 128,-1,45
 340 441 340 441 304 426.5 c 128,-1,46
 268 412 268 412 226.5 403 c 128,-1,47
 185 394 185 394 149 384 c 128,-1,48
 113 374 113 374 89 358.5 c 128,-1,49
 65 343 65 343 65 316 c 0,50,51
 65 296 65 296 83 287 c 128,-1,52
 101 278 101 278 118 278 c 0,53,54
 153 278 153 278 186 288 c 128,-1,55
 219 298 219 298 252 310 c 128,-1,56
 285 322 285 322 318.5 332 c 128,-1,57
 352 342 352 342 388 342 c 0,58,59
 444 342 444 342 472 318 c 128,-1,60
 500 294 500 294 500 237 c 0,61,62
 500 197 500 197 483.5 174 c 128,-1,63
 467 151 467 151 447 134.5 c 128,-1,64
 427 118 427 118 410.5 103 c 128,-1,65
 394 88 394 88 394 65 c 0,0,1
EndSplineSet
Validated: 9
EndChar

StartChar: four
Encoding: 52 52 19
Width: 741
Flags: W
LayerCount: 2
Fore
SplineSet
360 118 m 0,0,1
 379 114 379 114 388 97 c 128,-1,2
 397 80 397 80 404.5 61.5 c 128,-1,3
 412 43 412 43 423 28 c 128,-1,4
 434 13 434 13 457 13 c 256,5,6
 480 13 480 13 490.5 27 c 128,-1,7
 501 41 501 41 507.5 59.5 c 128,-1,8
 514 78 514 78 520 97 c 128,-1,9
 526 116 526 116 541 125 c 0,10,11
 558 135 558 135 590 144 c 128,-1,12
 622 153 622 153 653 164 c 128,-1,13
 684 175 684 175 707 191 c 128,-1,14
 730 207 730 207 730 233 c 256,15,16
 730 259 730 259 711.5 269 c 128,-1,17
 693 279 693 279 671 279 c 0,18,19
 655 279 655 279 641 273.5 c 128,-1,20
 627 268 627 268 614 261 c 128,-1,21
 601 254 601 254 588 248.5 c 128,-1,22
 575 243 575 243 560 243 c 0,23,24
 532 243 532 243 519 261 c 128,-1,25
 506 279 506 279 506 305 c 0,26,27
 506 351 506 351 506 397 c 256,28,29
 506 443 506 443 520 488 c 0,30,31
 521 493 521 493 527.5 511.5 c 128,-1,32
 534 530 534 530 541.5 551 c 128,-1,33
 549 572 549 572 555 590.5 c 128,-1,34
 561 609 561 609 562 614 c 0,35,36
 563 616 563 616 563.5 630.5 c 128,-1,37
 564 645 564 645 564 653 c 0,38,39
 564 657 564 657 563.5 671.5 c 128,-1,40
 563 686 563 686 562 691 c 0,41,42
 557 708 557 708 544.5 717.5 c 128,-1,43
 532 727 532 727 515 727 c 0,44,45
 488 727 488 727 475.5 713.5 c 128,-1,46
 463 700 463 700 458 679.5 c 128,-1,47
 453 659 453 659 451 635.5 c 128,-1,48
 449 612 449 612 443 593 c 0,49,50
 442 589 442 589 437 574.5 c 128,-1,51
 432 560 432 560 426 543.5 c 128,-1,52
 420 527 420 527 414.5 513 c 128,-1,53
 409 499 409 499 408 495 c 0,54,55
 406 490 406 490 403.5 479.5 c 128,-1,56
 401 469 401 469 401 467 c 2,57,-1
 401 286 l 2,58,59
 401 271 401 271 394.5 260 c 128,-1,60
 388 249 388 249 377.5 242.5 c 128,-1,61
 367 236 367 236 354 232.5 c 128,-1,62
 341 229 341 229 329 229 c 0,63,64
 291 229 291 229 252.5 240 c 128,-1,65
 214 251 214 251 183.5 272.5 c 128,-1,66
 153 294 153 294 133.5 327 c 128,-1,67
 114 360 114 360 114 404 c 0,68,69
 114 435 114 435 130 462.5 c 128,-1,70
 146 490 146 490 170.5 514 c 128,-1,71
 195 538 195 538 223 560 c 128,-1,72
 251 582 251 582 275.5 602 c 128,-1,73
 300 622 300 622 316 641.5 c 128,-1,74
 332 661 332 661 332 681 c 0,75,76
 332 706 332 706 319.5 716.5 c 128,-1,77
 307 727 307 727 283 727 c 0,78,79
 264 727 264 727 253 721.5 c 128,-1,80
 242 716 242 716 227 705 c 0,81,82
 192 671 192 671 153.5 635 c 128,-1,83
 115 599 115 599 83 558.5 c 128,-1,84
 51 518 51 518 30 472 c 128,-1,85
 9 426 9 426 9 373 c 0,86,87
 9 307 9 307 42.5 259.5 c 128,-1,88
 76 212 76 212 127.5 181.5 c 128,-1,89
 179 151 179 151 241 136 c 128,-1,90
 303 121 303 121 360 118 c 0,0,1
EndSplineSet
Validated: 9
EndChar

StartChar: five
Encoding: 53 53 20
Width: 685
Flags: W
LayerCount: 2
Fore
SplineSet
457 58 m 0,0,1
 457 36 457 36 474.5 24 c 128,-1,2
 492 12 492 12 512 12 c 0,3,4
 548 12 548 12 578 31 c 128,-1,5
 608 50 608 50 629 79.5 c 128,-1,6
 650 109 650 109 662 144.5 c 128,-1,7
 674 180 674 180 674 212 c 0,8,9
 674 255 674 255 659 298 c 128,-1,10
 644 341 644 341 616.5 375.5 c 128,-1,11
 589 410 589 410 550 431.5 c 128,-1,12
 511 453 511 453 464 453 c 2,13,-1
 290 453 l 2,14,15
 276 453 276 453 263 448.5 c 128,-1,16
 250 444 250 444 237.5 439 c 128,-1,17
 225 434 225 434 211.5 429.5 c 128,-1,18
 198 425 198 425 185 425 c 0,19,20
 158 425 158 425 150 440 c 128,-1,21
 142 455 142 455 142 478 c 0,22,23
 142 493 142 493 149 509.5 c 128,-1,24
 156 526 156 526 167.5 539 c 128,-1,25
 179 552 179 552 194.5 560.5 c 128,-1,26
 210 569 210 569 227 569 c 2,27,-1
 632 569 l 2,28,29
 639 569 639 569 646.5 575 c 128,-1,30
 654 581 654 581 660 590 c 128,-1,31
 666 599 666 599 670 608.5 c 128,-1,32
 674 618 674 618 674 625 c 0,33,34
 674 643 674 643 659.5 660 c 128,-1,35
 645 677 645 677 625 677 c 2,36,-1
 283 677 l 2,37,38
 265 677 265 677 251 684.5 c 128,-1,39
 237 692 237 692 223.5 701.5 c 128,-1,40
 210 711 210 711 195.5 718.5 c 128,-1,41
 181 726 181 726 164 726 c 0,42,43
 144 726 144 726 132.5 716.5 c 128,-1,44
 121 707 121 707 108 691 c 1,45,46
 91 658 91 658 73 626 c 128,-1,47
 55 594 55 594 41 561 c 128,-1,48
 27 528 27 528 18 494 c 128,-1,49
 9 460 9 460 9 422 c 0,50,51
 9 402 9 402 11.5 380.5 c 128,-1,52
 14 359 14 359 22 341 c 128,-1,53
 30 323 30 323 45.5 311 c 128,-1,54
 61 299 61 299 87 299 c 0,55,56
 89 299 89 299 94 299 c 256,57,58
 99 299 99 299 101 300 c 0,59,60
 107 302 107 302 122 307 c 128,-1,61
 137 312 137 312 153.5 317.5 c 128,-1,62
 170 323 170 323 185 328 c 128,-1,63
 200 333 200 333 206 335 c 0,64,65
 211 337 211 337 221.5 339.5 c 128,-1,66
 232 342 232 342 234 342 c 2,67,-1
 485 342 l 2,68,69
 505 342 505 342 520 330.5 c 128,-1,70
 535 319 535 319 544.5 301.5 c 128,-1,71
 554 284 554 284 558.5 264.5 c 128,-1,72
 563 245 563 245 563 229 c 0,73,74
 563 205 563 205 554 184.5 c 128,-1,75
 545 164 545 164 531 146.5 c 128,-1,76
 517 129 517 129 499.5 113.5 c 128,-1,77
 482 98 482 98 464 83 c 0,78,79
 459 77 459 77 458 71.5 c 128,-1,80
 457 66 457 66 457 58 c 0,0,1
EndSplineSet
Validated: 9
EndChar

StartChar: six
Encoding: 54 54 21
Width: 685
Flags: W
LayerCount: 2
Fore
SplineSet
9 333 m 0,0,1
 9 327 9 327 9 318 c 256,2,3
 9 309 9 309 9.5 300.5 c 128,-1,4
 10 292 10 292 10 285 c 0,5,6
 10 279 10 279 10 279 c 2,7,8
 10 277 10 277 15 262.5 c 128,-1,9
 20 248 20 248 27 229 c 128,-1,10
 34 210 34 210 40.5 191 c 128,-1,11
 47 172 47 172 52 160 c 0,12,13
 68 119 68 119 100 90.5 c 128,-1,14
 132 62 132 62 171.5 44.5 c 128,-1,15
 211 27 211 27 255 19.5 c 128,-1,16
 299 12 299 12 338 12 c 0,17,18
 388 12 388 12 447 26 c 128,-1,19
 506 40 506 40 556.5 69.5 c 128,-1,20
 607 99 607 99 641 143.5 c 128,-1,21
 675 188 675 188 675 249 c 0,22,23
 675 288 675 288 656 330 c 128,-1,24
 637 372 637 372 607 408.5 c 128,-1,25
 577 445 577 445 539 472 c 128,-1,26
 501 499 501 499 464 509 c 0,27,28
 459 509 459 509 446 509 c 0,29,30
 434 509 434 509 420.5 509.5 c 128,-1,31
 407 510 407 510 394 510 c 0,32,33
 382 510 382 510 377 510 c 0,34,35
 339 510 339 510 304 506 c 128,-1,36
 269 502 269 502 233 502 c 0,37,38
 217 502 217 502 204 510.5 c 128,-1,39
 191 519 191 519 191 536 c 0,40,41
 191 557 191 557 202 570.5 c 128,-1,42
 213 584 213 584 229.5 593.5 c 128,-1,43
 246 603 246 603 265 610 c 128,-1,44
 284 617 284 617 300.5 626 c 128,-1,45
 317 635 317 635 328 647.5 c 128,-1,46
 339 660 339 660 339 680 c 256,47,48
 339 700 339 700 322.5 716.5 c 128,-1,49
 306 733 306 733 286 733 c 0,50,51
 263 733 263 733 246.5 722 c 128,-1,52
 230 711 230 711 213 698 c 0,53,54
 163 662 163 662 124.5 625 c 128,-1,55
 86 588 86 588 60.5 544.5 c 128,-1,56
 35 501 35 501 22 449.5 c 128,-1,57
 9 398 9 398 9 333 c 0,0,1
121 261 m 0,58,59
 121 285 121 285 130 309 c 128,-1,60
 139 333 139 333 154.5 352.5 c 128,-1,61
 170 372 170 372 192 384.5 c 128,-1,62
 214 397 214 397 241 397 c 2,63,-1
 450 397 l 2,64,65
 473 397 473 397 493.5 383.5 c 128,-1,66
 514 370 514 370 529.5 349.5 c 128,-1,67
 545 329 545 329 554 305 c 128,-1,68
 563 281 563 281 563 261 c 256,69,70
 563 241 563 241 554 217 c 128,-1,71
 545 193 545 193 529.5 172.5 c 128,-1,72
 514 152 514 152 493.5 138.5 c 128,-1,73
 473 125 473 125 450 125 c 2,74,-1
 234 125 l 2,75,76
 211 125 211 125 190.5 138.5 c 128,-1,77
 170 152 170 152 154.5 172.5 c 128,-1,78
 139 193 139 193 130 217 c 128,-1,79
 121 241 121 241 121 261 c 0,58,59
EndSplineSet
Validated: 9
EndChar

StartChar: seven
Encoding: 55 55 22
Width: 685
Flags: W
LayerCount: 2
Fore
SplineSet
289 65 m 0,0,1
 289 43 289 43 305.5 31 c 128,-1,2
 322 19 322 19 342 19 c 0,3,4
 359 19 359 19 374 24 c 128,-1,5
 389 29 389 29 401 41 c 2,6,-1
 541 181 l 2,7,8
 543 183 543 183 548 190.5 c 128,-1,9
 553 198 553 198 555 202 c 0,10,11
 557 205 557 205 563 217.5 c 128,-1,12
 569 230 569 230 576 244 c 128,-1,13
 583 258 583 258 589 270.5 c 128,-1,14
 595 283 595 283 597 286 c 0,15,16
 611 310 611 310 625 332 c 128,-1,17
 639 354 639 354 650 376.5 c 128,-1,18
 661 399 661 399 668 423.5 c 128,-1,19
 675 448 675 448 675 478 c 0,20,21
 675 542 675 542 642 590 c 128,-1,22
 609 638 609 638 558 670 c 128,-1,23
 507 702 507 702 447 718 c 128,-1,24
 387 734 387 734 333 734 c 0,25,26
 327 734 327 734 317 734 c 0,27,28
 308 734 308 734 299 733.5 c 128,-1,29
 290 733 290 733 283 733 c 256,30,31
 276 733 276 733 276 733 c 2,32,33
 271 732 271 732 252.5 726 c 128,-1,34
 234 720 234 720 212.5 712.5 c 128,-1,35
 191 705 191 705 172.5 698.5 c 128,-1,36
 154 692 154 692 150 691 c 0,37,38
 135 686 135 686 111 685 c 128,-1,39
 87 684 87 684 64.5 679 c 128,-1,40
 42 674 42 674 25.5 662.5 c 128,-1,41
 9 651 9 651 9 627 c 0,42,43
 9 601 9 601 24 586 c 128,-1,44
 39 571 39 571 66 571 c 0,45,46
 68 571 68 571 73 571.5 c 128,-1,47
 78 572 78 572 80 572 c 0,48,49
 87 575 87 575 104 581 c 128,-1,50
 121 587 121 587 139.5 593.5 c 128,-1,51
 158 600 158 600 175 606 c 128,-1,52
 192 612 192 612 199 614 c 0,53,54
 201 615 201 615 206.5 616 c 128,-1,55
 212 617 212 617 217.5 618 c 128,-1,56
 223 619 223 619 227.5 620 c 128,-1,57
 232 621 232 621 234 621 c 2,58,-1
 450 621 l 2,59,60
 476 621 476 621 497 607.5 c 128,-1,61
 518 594 518 594 532.5 573.5 c 128,-1,62
 547 553 547 553 555 528.5 c 128,-1,63
 563 504 563 504 563 482 c 256,64,65
 563 460 563 460 560.5 438.5 c 128,-1,66
 558 417 558 417 548 397 c 0,67,68
 540 380 540 380 530 357 c 128,-1,69
 520 334 520 334 508 310 c 128,-1,70
 496 286 496 286 481.5 263 c 128,-1,71
 467 240 467 240 450 223 c 0,72,73
 446 219 446 219 435.5 209 c 128,-1,74
 425 199 425 199 412.5 187.5 c 128,-1,75
 400 176 400 176 389 166.5 c 128,-1,76
 378 157 378 157 373 153 c 0,77,78
 364 145 364 145 349.5 136 c 128,-1,79
 335 127 335 127 321.5 116.5 c 128,-1,80
 308 106 308 106 298.5 93.5 c 128,-1,81
 289 81 289 81 289 65 c 0,0,1
EndSplineSet
Validated: 9
EndChar

StartChar: eight
Encoding: 56 56 23
Width: 685
Flags: W
LayerCount: 2
Fore
SplineSet
9 232 m 0,0,1
 9 196 9 196 25 165.5 c 128,-1,2
 41 135 41 135 68 111 c 128,-1,3
 95 87 95 87 129.5 68 c 128,-1,4
 164 49 164 49 200.5 37 c 128,-1,5
 237 25 237 25 273 18.5 c 128,-1,6
 309 12 309 12 338 12 c 0,7,8
 400 12 400 12 446.5 22.5 c 128,-1,9
 493 33 493 33 530.5 56 c 128,-1,10
 568 79 568 79 600.5 115 c 128,-1,11
 633 151 633 151 667 202 c 0,12,13
 668 205 668 205 670.5 215.5 c 128,-1,14
 673 226 673 226 674 230 c 2,15,-1
 674 233 l 2,16,17
 674 252 674 252 667.5 269.5 c 128,-1,18
 661 287 661 287 652.5 304.5 c 128,-1,19
 644 322 644 322 637.5 339.5 c 128,-1,20
 631 357 631 357 631 377 c 0,21,22
 631 396 631 396 637.5 413 c 128,-1,23
 644 430 644 430 652.5 446.5 c 128,-1,24
 661 463 661 463 667.5 479.5 c 128,-1,25
 674 496 674 496 674 516 c 0,26,27
 674 551 674 551 657 581 c 128,-1,28
 640 611 640 611 612.5 635 c 128,-1,29
 585 659 585 659 550 677.5 c 128,-1,30
 515 696 515 696 478.5 708.5 c 128,-1,31
 442 721 442 721 407.5 727.5 c 128,-1,32
 373 734 373 734 346 734 c 0,33,34
 316 734 316 734 280 728 c 128,-1,35
 244 722 244 722 206.5 709.5 c 128,-1,36
 169 697 169 697 133.5 678.5 c 128,-1,37
 98 660 98 660 70.5 635.5 c 128,-1,38
 43 611 43 611 26.5 580 c 128,-1,39
 10 549 10 549 10 513 c 0,40,41
 10 493 10 493 18 476.5 c 128,-1,42
 26 460 26 460 35 444 c 128,-1,43
 44 428 44 428 52 411.5 c 128,-1,44
 60 395 60 395 60 376 c 0,45,46
 60 374 60 374 59.5 366 c 128,-1,47
 59 358 59 358 59 355 c 0,48,49
 52 342 52 342 43 327.5 c 128,-1,50
 34 313 34 313 26.5 297.5 c 128,-1,51
 19 282 19 282 14 265.5 c 128,-1,52
 9 249 9 249 9 232 c 0,0,1
121 263 m 0,53,54
 121 301 121 301 138 314.5 c 128,-1,55
 155 328 155 328 190 328 c 0,56,57
 208 328 208 328 225 324.5 c 128,-1,58
 242 321 242 321 258.5 317 c 128,-1,59
 275 313 275 313 292 309.5 c 128,-1,60
 309 306 309 306 326 306 c 0,61,62
 348 306 348 306 370.5 310.5 c 128,-1,63
 393 315 393 315 415 320.5 c 128,-1,64
 437 326 437 326 459 330.5 c 128,-1,65
 481 335 481 335 503 335 c 0,66,67
 538 335 538 335 550.5 312.5 c 128,-1,68
 563 290 563 290 563 261 c 0,69,70
 563 241 563 241 554 217 c 128,-1,71
 545 193 545 193 529.5 172.5 c 128,-1,72
 514 152 514 152 493.5 138.5 c 128,-1,73
 473 125 473 125 450 125 c 2,74,-1
 234 125 l 2,75,76
 210 125 210 125 189.5 139 c 128,-1,77
 169 153 169 153 154 173.5 c 128,-1,78
 139 194 139 194 130 218 c 128,-1,79
 121 242 121 242 121 263 c 0,53,54
149 516 m 0,80,81
 149 532 149 532 155 550.5 c 128,-1,82
 161 569 161 569 172.5 585 c 128,-1,83
 184 601 184 601 199.5 611 c 128,-1,84
 215 621 215 621 234 621 c 2,85,-1
 450 621 l 2,86,87
 468 621 468 621 483.5 611 c 128,-1,88
 499 601 499 601 510.5 586 c 128,-1,89
 522 571 522 571 528.5 553.5 c 128,-1,90
 535 536 535 536 535 520 c 0,91,92
 535 501 535 501 526 480.5 c 128,-1,93
 517 460 517 460 502.5 443 c 128,-1,94
 488 426 488 426 469 415 c 128,-1,95
 450 404 450 404 429 404 c 2,96,-1
 262 404 l 2,97,98
 240 404 240 404 219.5 414 c 128,-1,99
 199 424 199 424 183.5 440 c 128,-1,100
 168 456 168 456 158.5 476 c 128,-1,101
 149 496 149 496 149 516 c 0,80,81
EndSplineSet
Validated: 9
EndChar

StartChar: nine
Encoding: 57 57 24
Width: 685
Flags: W
LayerCount: 2
Fore
SplineSet
454 139 m 0,0,1
 474 139 474 139 485 130 c 128,-1,2
 496 121 496 121 501.5 108 c 128,-1,3
 507 95 507 95 510 79 c 128,-1,4
 513 63 513 63 518.5 50 c 128,-1,5
 524 37 524 37 535 28 c 128,-1,6
 546 19 546 19 567 19 c 0,7,8
 581 19 581 19 598.5 28.5 c 128,-1,9
 616 38 616 38 618 55 c 2,10,-1
 632 223 l 2,11,12
 633 238 633 238 640 252.5 c 128,-1,13
 647 267 647 267 654.5 281.5 c 128,-1,14
 662 296 662 296 668 311 c 128,-1,15
 674 326 674 326 674 342 c 2,16,-1
 674 523 l 2,17,18
 674 565 674 565 644.5 599.5 c 128,-1,19
 615 634 615 634 573 660.5 c 128,-1,20
 531 687 531 687 485.5 705.5 c 128,-1,21
 440 724 440 724 408 733 c 0,22,23
 404 733 404 733 394 733 c 0,24,25
 385 733 385 733 374.5 733.5 c 128,-1,26
 364 734 364 734 355 734 c 256,27,28
 346 734 346 734 342 734 c 0,29,30
 319 734 319 734 295 734.5 c 128,-1,31
 271 735 271 735 248 726 c 0,32,33
 212 712 212 712 170.5 683.5 c 128,-1,34
 129 655 129 655 93 618.5 c 128,-1,35
 57 582 57 582 33 540 c 128,-1,36
 9 498 9 498 9 456 c 0,37,38
 9 396 9 396 41.5 336.5 c 128,-1,39
 74 277 74 277 125 230 c 128,-1,40
 176 183 176 183 237.5 153.5 c 128,-1,41
 299 124 299 124 356 124 c 0,42,43
 382 124 382 124 405 131.5 c 128,-1,44
 428 139 428 139 454 139 c 0,0,1
121 439 m 0,45,46
 121 492 121 492 138.5 527 c 128,-1,47
 156 562 156 562 186.5 583 c 128,-1,48
 217 604 217 604 257 613 c 128,-1,49
 297 622 297 622 342 622 c 0,50,51
 366 622 366 622 402.5 617 c 128,-1,52
 439 612 439 612 472.5 598.5 c 128,-1,53
 506 585 506 585 530.5 561.5 c 128,-1,54
 555 538 555 538 555 502 c 2,55,-1
 555 362 l 2,56,57
 555 323 555 323 533.5 298.5 c 128,-1,58
 512 274 512 274 480.5 260 c 128,-1,59
 449 246 449 246 413 241 c 128,-1,60
 377 236 377 236 349 236 c 0,61,62
 346 236 346 236 337 236 c 0,63,64
 329 236 329 236 319 236 c 0,65,66
 310 236 310 236 301.5 236.5 c 128,-1,67
 293 237 293 237 290 237 c 0,68,69
 256 244 256 244 225.5 264 c 128,-1,70
 195 284 195 284 171.5 311 c 128,-1,71
 148 338 148 338 134.5 371 c 128,-1,72
 121 404 121 404 121 439 c 0,45,46
EndSplineSet
Validated: 41
EndChar

StartChar: colon
Encoding: 58 58 25
Width: 132
Flags: W
LayerCount: 2
Fore
SplineSet
13 5 m 0,0,1
 13 14 13 14 18 24 c 128,-1,2
 23 34 23 34 31 42.5 c 128,-1,3
 39 51 39 51 49 56 c 128,-1,4
 59 61 59 61 69 61 c 0,5,6
 77 61 77 61 86 56.5 c 128,-1,7
 95 52 95 52 102 45 c 128,-1,8
 109 38 109 38 113.5 29.5 c 128,-1,9
 118 21 118 21 118 12 c 0,10,11
 118 -8 118 -8 102.5 -25.5 c 128,-1,12
 87 -43 87 -43 65 -43 c 0,13,14
 47 -43 47 -43 30 -28.5 c 128,-1,15
 13 -14 13 -14 13 5 c 0,0,1
60 628 m 0,16,17
 72 628 72 628 82.5 621.5 c 128,-1,18
 93 615 93 615 101 605.5 c 128,-1,19
 109 596 109 596 113.5 584 c 128,-1,20
 118 572 118 572 118 561 c 0,21,22
 118 539 118 539 100.5 523.5 c 128,-1,23
 83 508 83 508 62 508 c 0,24,25
 35 508 35 508 24 526.5 c 128,-1,26
 13 545 13 545 13 569 c 0,27,28
 13 596 13 596 23 612 c 128,-1,29
 33 628 33 628 60 628 c 0,16,17
EndSplineSet
Validated: 1
EndChar

StartChar: semicolon
Encoding: 59 59 26
Width: 132
Flags: W
LayerCount: 2
Fore
SplineSet
74 518 m 0,0,1
 62 518 62 518 51.5 524 c 128,-1,2
 41 530 41 530 33 540 c 128,-1,3
 25 550 25 550 20.5 562 c 128,-1,4
 16 574 16 574 16 585 c 0,5,6
 16 607 16 607 33.5 622.5 c 128,-1,7
 51 638 51 638 72 638 c 0,8,9
 99 638 99 638 110 619.5 c 128,-1,10
 121 601 121 601 121 577 c 0,11,12
 121 550 121 550 111 534 c 128,-1,13
 101 518 101 518 74 518 c 0,0,1
51 -106 m 0,14,15
 33 -106 33 -106 28 -97 c 128,-1,16
 23 -88 23 -88 15 -70 c 1,17,-1
 15 -21 l 2,18,19
 15 -9 15 -9 15.5 7.5 c 128,-1,20
 16 24 16 24 20.5 39.5 c 128,-1,21
 25 55 25 55 35 65.5 c 128,-1,22
 45 76 45 76 64 76 c 0,23,24
 87 76 87 76 103.5 58 c 128,-1,25
 120 40 120 40 120 17 c 0,26,27
 120 4 120 4 115.5 -16.5 c 128,-1,28
 111 -37 111 -37 102 -57 c 128,-1,29
 93 -77 93 -77 80 -91.5 c 128,-1,30
 67 -106 67 -106 51 -106 c 0,14,15
EndSplineSet
Validated: 1
EndChar

StartChar: less
Encoding: 60 60 27
Width: 464
Flags: W
LayerCount: 2
Fore
SplineSet
54 447 m 0,0,1
 63 457 63 457 74 467.5 c 128,-1,2
 85 478 85 478 90 483 c 0,3,4
 91 485 91 485 106 493 c 128,-1,5
 121 501 121 501 144 521 c 2,6,-1
 337 687 l 2,7,8
 349 698 349 698 359.5 699.5 c 128,-1,9
 370 701 370 701 384 700 c 0,10,11
 404 698 404 698 420 685.5 c 128,-1,12
 436 673 436 673 435 650 c 0,13,14
 434 639 434 639 430.5 630 c 128,-1,15
 427 621 427 621 417 613 c 2,16,-1
 172 399 l 2,17,18
 163 391 163 391 163 379 c 0,19,20
 163 373 163 373 163 368 c 256,21,22
 163 363 163 363 162 358 c 0,23,24
 160 332 160 332 172.5 306.5 c 128,-1,25
 185 281 185 281 204 258 c 128,-1,26
 223 235 223 235 245 215 c 128,-1,27
 267 195 267 195 285 181 c 0,28,29
 298 171 298 171 326 156.5 c 128,-1,30
 354 142 354 142 382 125.5 c 128,-1,31
 410 109 410 109 430.5 92 c 128,-1,32
 451 75 451 75 449 60 c 0,33,34
 446 39 446 39 429 24.5 c 128,-1,35
 412 10 412 10 390 12 c 0,36,37
 360 14 360 14 322.5 32 c 128,-1,38
 285 50 285 50 247 76 c 128,-1,39
 209 102 209 102 172.5 132 c 128,-1,40
 136 162 136 162 108 187.5 c 128,-1,41
 80 213 80 213 63 230 c 128,-1,42
 46 247 46 247 46 247 c 1,43,-1
 28 291 l 1,44,-1
 15 361 l 1,45,46
 17 384 17 384 28.5 407 c 128,-1,47
 40 430 40 430 54 447 c 0,0,1
EndSplineSet
Validated: 33
EndChar

StartChar: equal
Encoding: 61 61 28
Width: 596
Flags: W
LayerCount: 2
Fore
SplineSet
14 426 m 0,0,1
 14 450 14 450 28 468.5 c 128,-1,2
 42 487 42 487 63 487 c 2,3,-1
 547 487 l 2,4,5
 565 487 565 487 574.5 469.5 c 128,-1,6
 584 452 584 452 584 434 c 0,7,8
 584 425 584 425 581 413 c 128,-1,9
 578 401 578 401 572.5 391 c 128,-1,10
 567 381 567 381 559 374 c 128,-1,11
 551 367 551 367 541 367 c 2,12,-1
 57 367 l 2,13,14
 47 367 47 367 39 372.5 c 128,-1,15
 31 378 31 378 25.5 387 c 128,-1,16
 20 396 20 396 17 406.5 c 128,-1,17
 14 417 14 417 14 426 c 0,0,1
585 269 m 0,18,19
 585 245 585 245 571 226.5 c 128,-1,20
 557 208 557 208 536 208 c 2,21,-1
 52 208 l 2,22,23
 34 208 34 208 24.5 225.5 c 128,-1,24
 15 243 15 243 15 261 c 0,25,26
 15 270 15 270 18 282 c 128,-1,27
 21 294 21 294 26.5 304 c 128,-1,28
 32 314 32 314 40 321 c 128,-1,29
 48 328 48 328 58 328 c 2,30,-1
 542 328 l 2,31,32
 562 328 562 328 573.5 308 c 128,-1,33
 585 288 585 288 585 269 c 0,18,19
EndSplineSet
Validated: 1
EndChar

StartChar: greater
Encoding: 62 62 29
Width: 458
Flags: W
LayerCount: 2
Fore
SplineSet
407 443 m 0,0,1
 398 453 398 453 387 463.5 c 128,-1,2
 376 474 376 474 371 479 c 0,3,4
 370 481 370 481 355 489 c 128,-1,5
 340 497 340 497 317 517 c 2,6,-1
 117 693 l 2,7,8
 105 704 105 704 94.5 705.5 c 128,-1,9
 84 707 84 707 71 706 c 0,10,11
 51 704 51 704 35 691.5 c 128,-1,12
 19 679 19 679 20 656 c 0,13,14
 21 645 21 645 24.5 636 c 128,-1,15
 28 627 28 627 38 619 c 2,16,-1
 289 395 l 2,17,18
 298 387 298 387 298 375 c 0,19,20
 298 370 298 370 298 365 c 256,21,22
 298 360 298 360 299 355 c 0,23,24
 300 329 300 329 288 303 c 128,-1,25
 276 277 276 277 257.5 253.5 c 128,-1,26
 239 230 239 230 217 210.5 c 128,-1,27
 195 191 195 191 176 178 c 0,28,29
 167 172 167 172 151.5 165 c 128,-1,30
 136 158 136 158 117.5 150 c 128,-1,31
 99 142 99 142 80 132.5 c 128,-1,32
 61 123 61 123 46 111.5 c 128,-1,33
 31 100 31 100 21.5 86.5 c 128,-1,34
 12 73 12 73 13 57 c 0,35,36
 15 36 15 36 32.5 21.5 c 128,-1,37
 50 7 50 7 72 9 c 0,38,39
 102 11 102 11 139 29 c 128,-1,40
 176 47 176 47 214 73 c 128,-1,41
 252 99 252 99 288.5 129 c 128,-1,42
 325 159 325 159 353 184.5 c 128,-1,43
 381 210 381 210 398 227 c 128,-1,44
 415 244 415 244 415 244 c 1,45,-1
 433 288 l 1,46,-1
 446 358 l 1,47,48
 444 381 444 381 432.5 403.5 c 128,-1,49
 421 426 421 426 407 443 c 0,0,1
EndSplineSet
Validated: 41
EndChar

StartChar: question
Encoding: 63 63 30
Width: 685
Flags: W
LayerCount: 2
Fore
SplineSet
290 8 m 0,0,1
 290 -12 290 -12 307 -26.5 c 128,-1,2
 324 -41 324 -41 342 -41 c 0,3,4
 364 -41 364 -41 379.5 -23.5 c 128,-1,5
 395 -6 395 -6 395 15 c 0,6,7
 395 24 395 24 390.5 32.5 c 128,-1,8
 386 41 386 41 379 48 c 128,-1,9
 372 55 372 55 363 59.5 c 128,-1,10
 354 64 354 64 346 64 c 0,11,12
 336 64 336 64 326 59 c 128,-1,13
 316 54 316 54 308 45.5 c 128,-1,14
 300 37 300 37 295 27 c 128,-1,15
 290 17 290 17 290 8 c 0,0,1
290 176 m 0,16,17
 294 158 294 158 308.5 145 c 128,-1,18
 323 132 323 132 342 132 c 0,19,20
 373 132 373 132 383.5 152.5 c 128,-1,21
 394 173 394 173 398 200.5 c 128,-1,22
 402 228 402 228 408 255 c 128,-1,23
 414 282 414 282 436 295 c 0,24,25
 440 297 440 297 454.5 304 c 128,-1,26
 469 311 469 311 485.5 319 c 128,-1,27
 502 327 502 327 516.5 334 c 128,-1,28
 531 341 531 341 534 343 c 0,29,30
 557 358 557 358 582 375 c 128,-1,31
 607 392 607 392 627.5 413 c 128,-1,32
 648 434 648 434 661.5 459.5 c 128,-1,33
 675 485 675 485 675 516 c 0,34,35
 675 555 675 555 655 586.5 c 128,-1,36
 635 618 635 618 604.5 642.5 c 128,-1,37
 574 667 574 667 538 684.5 c 128,-1,38
 502 702 502 702 471 714 c 0,39,40
 465 716 465 716 455 719.5 c 128,-1,41
 445 723 445 723 435 726.5 c 128,-1,42
 425 730 425 730 417 732.5 c 128,-1,43
 409 735 409 735 408 735 c 2,44,-1
 213 735 l 2,45,46
 204 735 204 735 193 730.5 c 128,-1,47
 182 726 182 726 171.5 719.5 c 128,-1,48
 161 713 161 713 151.5 706 c 128,-1,49
 142 699 142 699 136 693 c 128,-1,50
 130 687 130 687 115 672.5 c 128,-1,51
 100 658 100 658 83 641 c 128,-1,52
 66 624 66 624 51.5 609 c 128,-1,53
 37 594 37 594 31 588 c 0,54,55
 21 571 21 571 15 555.5 c 128,-1,56
 9 540 9 540 9 521 c 0,57,58
 9 469 9 469 59 469 c 0,59,60
 83 469 83 469 95.5 480 c 128,-1,61
 108 491 108 491 117 507 c 128,-1,62
 126 523 126 523 134.5 541.5 c 128,-1,63
 143 560 143 560 157 574 c 0,64,65
 175 592 175 592 197.5 602 c 128,-1,66
 220 612 220 612 244.5 617 c 128,-1,67
 269 622 269 622 294 623 c 128,-1,68
 319 624 319 624 342 624 c 0,69,70
 368 624 368 624 404.5 620 c 128,-1,71
 441 616 441 616 474.5 604 c 128,-1,72
 508 592 508 592 531.5 570 c 128,-1,73
 555 548 555 548 555 511 c 0,74,75
 555 477 555 477 535.5 457 c 128,-1,76
 516 437 516 437 486 422 c 128,-1,77
 456 407 456 407 422 393 c 128,-1,78
 388 379 388 379 358 357.5 c 128,-1,79
 328 336 328 336 308.5 302 c 128,-1,80
 289 268 289 268 289 214 c 0,81,82
 289 209 289 209 289 194 c 0,83,84
 289 180 289 180 290 176 c 0,16,17
EndSplineSet
Validated: 9
EndChar

StartChar: at
Encoding: 64 64 31
Width: 797
Flags: W
LayerCount: 2
Fore
SplineSet
9 421 m 0,0,1
 9 367 9 367 34 321.5 c 128,-1,2
 59 276 59 276 96 237 c 128,-1,3
 133 198 133 198 176 164 c 128,-1,4
 219 130 219 130 255 99 c 0,5,6
 259 96 259 96 274 81.5 c 128,-1,7
 289 67 289 67 307 50 c 128,-1,8
 325 33 325 33 340.5 18.5 c 128,-1,9
 356 4 356 4 360 1 c 0,10,11
 373 -10 373 -10 378 -12 c 128,-1,12
 383 -14 383 -14 398 -14 c 256,13,14
 413 -14 413 -14 418 -12 c 128,-1,15
 423 -10 423 -10 436 1 c 0,16,17
 440 4 440 4 454 17.5 c 128,-1,18
 468 31 468 31 484.5 46.5 c 128,-1,19
 501 62 501 62 515.5 75.5 c 128,-1,20
 530 89 530 89 534 92 c 0,21,22
 572 126 572 126 616.5 161.5 c 128,-1,23
 661 197 661 197 699 238 c 128,-1,24
 737 279 737 279 762 326.5 c 128,-1,25
 787 374 787 374 787 431 c 0,26,27
 787 465 787 465 771 507 c 128,-1,28
 755 549 755 549 728.5 585.5 c 128,-1,29
 702 622 702 622 667 647 c 128,-1,30
 632 672 632 672 594 672 c 0,31,32
 559 672 559 672 536.5 651 c 128,-1,33
 514 630 514 630 494.5 605.5 c 128,-1,34
 475 581 475 581 453 560 c 128,-1,35
 431 539 431 539 398 539 c 0,36,37
 376 539 376 539 359.5 548.5 c 128,-1,38
 343 558 343 558 328.5 572 c 128,-1,39
 314 586 314 586 301 602.5 c 128,-1,40
 288 619 288 619 273.5 633 c 128,-1,41
 259 647 259 647 241 656.5 c 128,-1,42
 223 666 223 666 200 666 c 0,43,44
 157 666 157 666 121.5 642 c 128,-1,45
 86 618 86 618 61 581 c 128,-1,46
 36 544 36 544 22.5 501 c 128,-1,47
 9 458 9 458 9 421 c 0,0,1
EndSplineSet
Validated: 9
EndChar

StartChar: A
Encoding: 65 65 32
Width: 685
Flags: W
LayerCount: 2
Fore
SplineSet
10 48 m 0,0,1
 15 33 15 33 29 23 c 128,-1,2
 43 13 43 13 59 13 c 0,3,4
 83 13 83 13 94.5 25.5 c 128,-1,5
 106 38 106 38 112 56.5 c 128,-1,6
 118 75 118 75 122 97 c 128,-1,7
 126 119 126 119 134.5 137.5 c 128,-1,8
 143 156 143 156 160 168.5 c 128,-1,9
 177 181 177 181 209 181 c 0,10,11
 230 181 230 181 248.5 173 c 128,-1,12
 267 165 267 165 284.5 156 c 128,-1,13
 302 147 302 147 319.5 139 c 128,-1,14
 337 131 337 131 355 131 c 0,15,16
 378 131 378 131 394 153 c 0,17,18
 395 156 395 156 395 167 c 256,19,20
 395 178 395 178 395 181 c 0,21,22
 395 215 395 215 382 232 c 128,-1,23
 369 249 369 249 349.5 257.5 c 128,-1,24
 330 266 330 266 307 270 c 128,-1,25
 284 274 284 274 264.5 280.5 c 128,-1,26
 245 287 245 287 232 300 c 128,-1,27
 219 313 219 313 219 341 c 0,28,29
 219 366 219 366 233.5 396.5 c 128,-1,30
 248 427 248 427 270 454 c 128,-1,31
 292 481 292 481 318 499 c 128,-1,32
 344 517 344 517 368 517 c 0,33,34
 396 517 396 517 416 500.5 c 128,-1,35
 436 484 436 484 450 460 c 128,-1,36
 464 436 464 436 473.5 409.5 c 128,-1,37
 483 383 483 383 492 362 c 0,38,39
 493 359 493 359 495.5 353 c 128,-1,40
 498 347 498 347 500.5 340 c 128,-1,41
 503 333 503 333 504.5 327.5 c 128,-1,42
 506 322 506 322 506 321 c 0,43,44
 507 317 507 317 508 302.5 c 128,-1,45
 509 288 509 288 509.5 271.5 c 128,-1,46
 510 255 510 255 511 240.5 c 128,-1,47
 512 226 512 226 513 223 c 0,48,49
 514 219 514 219 520 199.5 c 128,-1,50
 526 180 526 180 534 155.5 c 128,-1,51
 542 131 542 131 549.5 106.5 c 128,-1,52
 557 82 557 82 562 69 c 0,53,54
 570 46 570 46 584 32.5 c 128,-1,55
 598 19 598 19 623 19 c 0,56,57
 654 19 654 19 664.5 41 c 128,-1,58
 675 63 675 63 675 89 c 0,59,60
 675 119 675 119 669.5 147 c 128,-1,61
 664 175 664 175 656 203 c 128,-1,62
 648 231 648 231 639.5 258 c 128,-1,63
 631 285 631 285 625 314 c 0,64,65
 624 319 624 319 622.5 328 c 128,-1,66
 621 337 621 337 619.5 347.5 c 128,-1,67
 618 358 618 358 616 367.5 c 128,-1,68
 614 377 614 377 611 383 c 0,69,70
 596 422 596 422 575 472.5 c 128,-1,71
 554 523 554 523 525 569 c 128,-1,72
 496 615 496 615 457.5 646.5 c 128,-1,73
 419 678 419 678 367 678 c 0,74,75
 334 678 334 678 301 657 c 128,-1,76
 268 636 268 636 239 605.5 c 128,-1,77
 210 575 210 575 187 541 c 128,-1,78
 164 507 164 507 150 481 c 0,79,80
 144 469 144 469 128.5 439.5 c 128,-1,81
 113 410 113 410 96.5 376.5 c 128,-1,82
 80 343 80 343 65.5 313.5 c 128,-1,83
 51 284 51 284 45 272 c 0,84,85
 42 264 42 264 37 243 c 128,-1,86
 32 222 32 222 26.5 198.5 c 128,-1,87
 21 175 21 175 16 154 c 128,-1,88
 11 133 11 133 10 125 c 0,89,90
 10 123 10 123 9.5 108.5 c 128,-1,91
 9 94 9 94 9 86 c 0,92,93
 9 82 9 82 9.5 67.5 c 128,-1,94
 10 53 10 53 10 48 c 0,0,1
EndSplineSet
Validated: 9
EndChar

StartChar: B
Encoding: 66 66 33
Width: 685
Flags: W
LayerCount: 2
Fore
SplineSet
158 56 m 0,0,1
 180 56 180 56 202.5 50 c 128,-1,2
 225 44 225 44 247.5 36.5 c 128,-1,3
 270 29 270 29 293 22 c 128,-1,4
 316 15 316 15 339 13 c 0,5,6
 340 13 340 13 350 13 c 0,7,8
 361 13 361 13 375 12.5 c 128,-1,9
 389 12 389 12 403 12 c 256,10,11
 417 12 417 12 426 12 c 0,12,13
 431 12 431 12 443 12 c 0,14,15
 456 12 456 12 469.5 12.5 c 128,-1,16
 483 13 483 13 495 13 c 0,17,18
 508 13 508 13 513 13 c 0,19,20
 547 18 547 18 577 33 c 128,-1,21
 607 48 607 48 628.5 71.5 c 128,-1,22
 650 95 650 95 662.5 125.5 c 128,-1,23
 675 156 675 156 675 192 c 0,24,25
 675 214 675 214 667 232.5 c 128,-1,26
 659 251 659 251 649.5 268 c 128,-1,27
 640 285 640 285 632 302.5 c 128,-1,28
 624 320 624 320 624 342 c 256,29,30
 624 364 624 364 632 382 c 128,-1,31
 640 400 640 400 649.5 418 c 128,-1,32
 659 436 659 436 667 454.5 c 128,-1,33
 675 473 675 473 675 497 c 0,34,35
 675 524 675 524 664 555.5 c 128,-1,36
 653 587 653 587 633.5 614 c 128,-1,37
 614 641 614 641 586.5 659 c 128,-1,38
 559 677 559 677 527 677 c 2,39,-1
 332 677 l 2,40,41
 310 677 310 677 289.5 668 c 128,-1,42
 269 659 269 659 249 648.5 c 128,-1,43
 229 638 229 638 209 629.5 c 128,-1,44
 189 621 189 621 167 621 c 0,45,46
 150 621 150 621 137 629 c 128,-1,47
 124 637 124 637 112 646 c 128,-1,48
 100 655 100 655 87 663 c 128,-1,49
 74 671 74 671 57 671 c 0,50,51
 43 671 43 671 26.5 661.5 c 128,-1,52
 10 652 10 652 10 635 c 2,53,-1
 10 55 l 2,54,55
 10 43 10 43 14.5 35.5 c 128,-1,56
 19 28 19 28 26.5 24.5 c 128,-1,57
 34 21 34 21 43 20 c 128,-1,58
 52 19 52 19 61 19 c 0,59,60
 76 19 76 19 87 25 c 128,-1,61
 98 31 98 31 109 37.5 c 128,-1,62
 120 44 120 44 131.5 50 c 128,-1,63
 143 56 143 56 158 56 c 0,0,1
164 495 m 0,64,65
 171 499 171 499 188.5 508 c 128,-1,66
 206 517 206 517 226.5 527 c 128,-1,67
 247 537 247 537 265 546 c 128,-1,68
 283 555 283 555 290 558 c 0,69,70
 293 560 293 560 301 562.5 c 128,-1,71
 309 565 309 565 311 565 c 2,72,-1
 506 565 l 2,73,74
 524 565 524 565 536.5 555 c 128,-1,75
 549 545 549 545 556 530 c 128,-1,76
 563 515 563 515 566 498 c 128,-1,77
 569 481 569 481 569 467 c 0,78,79
 569 437 569 437 552.5 421 c 128,-1,80
 536 405 536 405 516.5 392.5 c 128,-1,81
 497 380 497 380 480.5 365 c 128,-1,82
 464 350 464 350 464 323 c 0,83,84
 464 299 464 299 477.5 284 c 128,-1,85
 491 269 491 269 506.5 256.5 c 128,-1,86
 522 244 522 244 535.5 230 c 128,-1,87
 549 216 549 216 549 194 c 0,88,89
 549 169 549 169 535.5 147 c 128,-1,90
 522 125 522 125 492 125 c 2,91,-1
 311 125 l 2,92,93
 300 125 300 125 282.5 132 c 128,-1,94
 265 139 265 139 245.5 148 c 128,-1,95
 226 157 226 157 206.5 166.5 c 128,-1,96
 187 176 187 176 171 181 c 0,97,98
 154 186 154 186 138 197.5 c 128,-1,99
 122 209 122 209 122 230 c 2,100,-1
 122 439 l 2,101,102
 122 448 122 448 126.5 456.5 c 128,-1,103
 131 465 131 465 138 472.5 c 128,-1,104
 145 480 145 480 152 486 c 128,-1,105
 159 492 159 492 164 495 c 0,64,65
EndSplineSet
Validated: 9
EndChar

StartChar: C
Encoding: 67 67 34
Width: 685
Flags: W
LayerCount: 2
Fore
SplineSet
9 341 m 0,0,1
 9 313 9 313 10 284.5 c 128,-1,2
 11 256 11 256 24 230 c 0,3,4
 39 200 39 200 66 162 c 128,-1,5
 93 124 93 124 127 91 c 128,-1,6
 161 58 161 58 199.5 35.5 c 128,-1,7
 238 13 238 13 276 13 c 2,8,-1
 506 13 l 2,9,10
 525 13 525 13 554 20 c 128,-1,11
 583 27 583 27 609.5 40.5 c 128,-1,12
 636 54 636 54 655 73.5 c 128,-1,13
 674 93 674 93 674 117 c 0,14,15
 674 144 674 144 655 159 c 128,-1,16
 636 174 636 174 611 174 c 0,17,18
 594 174 594 174 579.5 166.5 c 128,-1,19
 565 159 565 159 551 149.5 c 128,-1,20
 537 140 537 140 522.5 132.5 c 128,-1,21
 508 125 508 125 492 125 c 2,22,-1
 255 125 l 2,23,24
 235 125 235 125 213.5 142 c 128,-1,25
 192 159 192 159 173.5 182 c 128,-1,26
 155 205 155 205 140.5 230 c 128,-1,27
 126 255 126 255 122 272 c 0,28,29
 122 275 122 275 122 282 c 256,30,31
 122 289 122 289 121.5 297.5 c 128,-1,32
 121 306 121 306 121 313 c 0,33,34
 121 321 121 321 121 324 c 0,35,36
 121 345 121 345 121 364 c 0,37,38
 121 384 121 384 129 404 c 0,39,40
 137 423 137 423 151 450.5 c 128,-1,41
 165 478 165 478 184.5 503.5 c 128,-1,42
 204 529 204 529 227 547 c 128,-1,43
 250 565 250 565 276 565 c 2,44,-1
 485 565 l 2,45,46
 503 565 503 565 519 557.5 c 128,-1,47
 535 550 535 550 551 540.5 c 128,-1,48
 567 531 567 531 583.5 523.5 c 128,-1,49
 600 516 600 516 618 516 c 0,50,51
 639 516 639 516 656.5 526 c 128,-1,52
 674 536 674 536 674 562 c 0,53,54
 674 583 674 583 656 604 c 128,-1,55
 638 625 638 625 613 641 c 128,-1,56
 588 657 588 657 562 667 c 128,-1,57
 536 677 536 677 520 677 c 2,58,-1
 276 677 l 2,59,60
 262 677 262 677 245 671.5 c 128,-1,61
 228 666 228 666 212 657.5 c 128,-1,62
 196 649 196 649 181.5 639.5 c 128,-1,63
 167 630 167 630 157 621 c 0,64,65
 151 616 151 616 138 603.5 c 128,-1,66
 125 591 125 591 110.5 576.5 c 128,-1,67
 96 562 96 562 83.5 549 c 128,-1,68
 71 536 71 536 66 530 c 0,69,70
 47 509 47 509 36 487 c 128,-1,71
 25 465 25 465 19 441.5 c 128,-1,72
 13 418 13 418 11 393 c 128,-1,73
 9 368 9 368 9 341 c 0,0,1
EndSplineSet
Validated: 9
EndChar

StartChar: D
Encoding: 68 68 35
Width: 685
Flags: W
LayerCount: 2
Fore
SplineSet
147 27 m 2,0,-1
 157 27 l 2,1,2
 161 26 161 26 172 24.5 c 128,-1,3
 183 23 183 23 195 20.5 c 128,-1,4
 207 18 207 18 218 16 c 128,-1,5
 229 14 229 14 234 13 c 2,6,-1
 464 13 l 2,7,8
 497 13 497 13 533.5 34 c 128,-1,9
 570 55 570 55 601.5 86.5 c 128,-1,10
 633 118 633 118 653.5 155 c 128,-1,11
 674 192 674 192 674 223 c 2,12,-1
 674 481 l 2,13,14
 674 510 674 510 651.5 544.5 c 128,-1,15
 629 579 629 579 596 608.5 c 128,-1,16
 563 638 563 638 525 657.5 c 128,-1,17
 487 677 487 677 457 677 c 2,18,-1
 248 677 l 1,19,20
 219 664 219 664 196.5 656 c 128,-1,21
 174 648 174 648 146 648 c 0,22,23
 134 648 134 648 123.5 651.5 c 128,-1,24
 113 655 113 655 102.5 659.5 c 128,-1,25
 92 664 92 664 81 667.5 c 128,-1,26
 70 671 70 671 58 671 c 0,27,28
 44 671 44 671 27 662 c 128,-1,29
 10 653 10 653 10 635 c 2,30,-1
 10 55 l 2,31,32
 10 51 10 51 14 45 c 128,-1,33
 18 39 18 39 23 34 c 128,-1,34
 28 29 28 29 32.5 25 c 128,-1,35
 37 21 37 21 38 20 c 2,36,-1
 66 20 l 2,37,38
 86 20 86 20 106 23.5 c 128,-1,39
 126 27 126 27 147 27 c 2,0,-1
227 132 m 0,40,41
 225 133 225 133 217.5 136.5 c 128,-1,42
 210 140 210 140 201 144.5 c 128,-1,43
 192 149 192 149 183.5 153.5 c 128,-1,44
 175 158 175 158 171 160 c 0,45,46
 165 163 165 163 157 168 c 128,-1,47
 149 173 149 173 141 180 c 128,-1,48
 133 187 133 187 127.5 194 c 128,-1,49
 122 201 122 201 122 209 c 2,50,-1
 122 481 l 2,51,52
 122 493 122 493 139.5 508 c 128,-1,53
 157 523 157 523 180 535.5 c 128,-1,54
 203 548 203 548 224.5 556.5 c 128,-1,55
 246 565 246 565 255 565 c 2,56,-1
 436 565 l 2,57,58
 454 565 454 565 476 552 c 128,-1,59
 498 539 498 539 517 520 c 128,-1,60
 536 501 536 501 549 479 c 128,-1,61
 562 457 562 457 562 439 c 2,62,-1
 562 251 l 2,63,64
 562 233 562 233 549 211 c 128,-1,65
 536 189 536 189 517 170 c 128,-1,66
 498 151 498 151 476 138 c 128,-1,67
 454 125 454 125 436 125 c 2,68,-1
 255 125 l 2,69,70
 252 125 252 125 241.5 127.5 c 128,-1,71
 231 130 231 130 227 132 c 0,40,41
EndSplineSet
Validated: 9
EndChar

StartChar: E
Encoding: 69 69 36
Width: 685
Flags: W
LayerCount: 2
Fore
SplineSet
619 625 m 256,0,1
 619 635 619 635 614 644 c 128,-1,2
 609 653 609 653 600.5 660.5 c 128,-1,3
 592 668 592 668 582 672.5 c 128,-1,4
 572 677 572 677 562 677 c 2,5,-1
 59 677 l 2,6,7
 52 677 52 677 43.5 673 c 128,-1,8
 35 669 35 669 27.5 663 c 128,-1,9
 20 657 20 657 15 649.5 c 128,-1,10
 10 642 10 642 10 635 c 2,11,-1
 10 174 l 2,12,13
 10 145 10 145 24.5 116 c 128,-1,14
 39 87 39 87 62 64 c 128,-1,15
 85 41 85 41 113.5 27 c 128,-1,16
 142 13 142 13 171 13 c 2,17,-1
 408 13 l 2,18,19
 420 13 420 13 444 21 c 128,-1,20
 468 29 468 29 497.5 42.5 c 128,-1,21
 527 56 527 56 558.5 73 c 128,-1,22
 590 90 590 90 615.5 109 c 128,-1,23
 641 128 641 128 657.5 146.5 c 128,-1,24
 674 165 674 165 674 181 c 0,25,26
 674 203 674 203 654.5 216.5 c 128,-1,27
 635 230 635 230 615 230 c 0,28,29
 585 230 585 230 562.5 213.5 c 128,-1,30
 540 197 540 197 519.5 177.5 c 128,-1,31
 499 158 499 158 477.5 141.5 c 128,-1,32
 456 125 456 125 429 125 c 2,33,-1
 192 125 l 2,34,35
 174 125 174 125 159.5 135.5 c 128,-1,36
 145 146 145 146 135 161 c 128,-1,37
 125 176 125 176 119.5 193.5 c 128,-1,38
 114 211 114 211 114 226 c 0,39,40
 114 238 114 238 118 249.5 c 128,-1,41
 122 261 122 261 129.5 271 c 128,-1,42
 137 281 137 281 147.5 287 c 128,-1,43
 158 293 158 293 171 293 c 2,44,-1
 401 293 l 2,45,46
 421 293 421 293 436.5 309 c 128,-1,47
 452 325 452 325 452 345 c 256,48,49
 452 365 452 365 436.5 381 c 128,-1,50
 421 397 421 397 401 397 c 2,51,-1
 171 397 l 2,52,53
 154 397 154 397 143 405 c 128,-1,54
 132 413 132 413 125.5 425.5 c 128,-1,55
 119 438 119 438 116.5 453 c 128,-1,56
 114 468 114 468 114 481 c 0,57,58
 114 496 114 496 116.5 512.5 c 128,-1,59
 119 529 119 529 126 542 c 128,-1,60
 133 555 133 555 145.5 563.5 c 128,-1,61
 158 572 158 572 178 572 c 2,62,-1
 562 572 l 2,63,64
 572 572 572 572 582 576.5 c 128,-1,65
 592 581 592 581 600.5 588.5 c 128,-1,66
 609 596 609 596 614 605.5 c 128,-1,67
 619 615 619 615 619 625 c 256,0,1
EndSplineSet
Validated: 9
EndChar

StartChar: F
Encoding: 70 70 37
Width: 685
Flags: W
LayerCount: 2
Fore
SplineSet
9 630 m 0,0,1
 9 603 9 603 26.5 590.5 c 128,-1,2
 44 578 44 578 65.5 568 c 128,-1,3
 87 558 87 558 104.5 544.5 c 128,-1,4
 122 531 122 531 122 502 c 2,5,-1
 122 62 l 2,6,7
 122 42 122 42 139.5 30.5 c 128,-1,8
 157 19 157 19 174 19 c 256,9,10
 191 19 191 19 206.5 32 c 128,-1,11
 222 45 222 45 227 62 c 1,12,13
 227 88 227 88 226 118 c 128,-1,14
 225 148 225 148 231 174 c 128,-1,15
 237 200 237 200 253 218 c 128,-1,16
 269 236 269 236 304 237 c 0,17,18
 313 237 313 237 337 237.5 c 128,-1,19
 361 238 361 238 387 238 c 0,20,21
 414 238 414 238 438 237.5 c 128,-1,22
 462 237 462 237 471 237 c 0,23,24
 488 242 488 242 497.5 255.5 c 128,-1,25
 507 269 507 269 507 286 c 0,26,27
 507 301 507 301 500 312.5 c 128,-1,28
 493 324 493 324 482 332 c 128,-1,29
 471 340 471 340 457 344 c 128,-1,30
 443 348 443 348 429 349 c 2,31,-1
 269 349 l 2,32,33
 259 351 259 351 246.5 361.5 c 128,-1,34
 234 372 234 372 234 383 c 2,35,-1
 234 530 l 2,36,37
 234 534 234 534 238 540.5 c 128,-1,38
 242 547 242 547 247.5 553.5 c 128,-1,39
 253 560 253 560 259 564.5 c 128,-1,40
 265 569 265 569 269 569 c 2,41,-1
 632 569 l 2,42,43
 639 569 639 569 646.5 575 c 128,-1,44
 654 581 654 581 660 590 c 128,-1,45
 666 599 666 599 670 608.5 c 128,-1,46
 674 618 674 618 674 625 c 0,47,48
 674 643 674 643 659.5 660 c 128,-1,49
 645 677 645 677 625 677 c 2,50,-1
 59 677 l 2,51,52
 41 677 41 677 25 662 c 128,-1,53
 9 647 9 647 9 630 c 0,0,1
EndSplineSet
Validated: 41
EndChar

StartChar: G
Encoding: 71 71 38
Width: 685
Flags: W
LayerCount: 2
Fore
SplineSet
667 502 m 0,0,1
 667 530 667 530 644.5 561 c 128,-1,2
 622 592 622 592 589 618 c 128,-1,3
 556 644 556 644 520 660.5 c 128,-1,4
 484 677 484 677 457 677 c 2,5,-1
 269 677 l 2,6,7
 247 677 247 677 219 664 c 128,-1,8
 191 651 191 651 162.5 629.5 c 128,-1,9
 134 608 134 608 106.5 580.5 c 128,-1,10
 79 553 79 553 57.5 524 c 128,-1,11
 36 495 36 495 23 467.5 c 128,-1,12
 10 440 10 440 10 418 c 2,13,-1
 10 223 l 2,14,15
 10 189 10 189 32 152 c 128,-1,16
 54 115 54 115 86.5 84 c 128,-1,17
 119 53 119 53 157 33 c 128,-1,18
 195 13 195 13 227 13 c 2,19,-1
 443 13 l 2,20,21
 455 13 455 13 466.5 17.5 c 128,-1,22
 478 22 478 22 489 27.5 c 128,-1,23
 500 33 500 33 512 37.5 c 128,-1,24
 524 42 524 42 537 42 c 0,25,26
 549 42 549 42 560 38.5 c 128,-1,27
 571 35 571 35 581.5 31 c 128,-1,28
 592 27 592 27 602.5 23.5 c 128,-1,29
 613 20 613 20 625 20 c 0,30,31
 632 20 632 20 640.5 24 c 128,-1,32
 649 28 649 28 656.5 34 c 128,-1,33
 664 40 664 40 669 47.5 c 128,-1,34
 674 55 674 55 674 62 c 2,35,-1
 674 286 l 2,36,37
 674 307 674 307 661.5 323.5 c 128,-1,38
 649 340 649 340 629 352.5 c 128,-1,39
 609 365 609 365 584.5 373.5 c 128,-1,40
 560 382 560 382 535 387.5 c 128,-1,41
 510 393 510 393 487.5 395.5 c 128,-1,42
 465 398 465 398 450 398 c 0,43,44
 427 398 427 398 391 394 c 128,-1,45
 355 390 355 390 321.5 378.5 c 128,-1,46
 288 367 288 367 264 346.5 c 128,-1,47
 240 326 240 326 240 293 c 0,48,49
 240 270 240 270 256.5 253 c 128,-1,50
 273 236 273 236 296 236 c 0,51,52
 311 236 311 236 323 240.5 c 128,-1,53
 335 245 335 245 346.5 252 c 128,-1,54
 358 259 358 259 369.5 266.5 c 128,-1,55
 381 274 381 274 394 279 c 0,56,57
 419 289 419 289 441 291 c 128,-1,58
 463 293 463 293 492 293 c 0,59,60
 523 293 523 293 546 278.5 c 128,-1,61
 569 264 569 264 569 230 c 0,62,63
 569 210 569 210 560 193 c 128,-1,64
 551 176 551 176 537 162.5 c 128,-1,65
 523 149 523 149 505.5 139 c 128,-1,66
 488 129 488 129 471 125 c 0,67,68
 462 125 462 125 439 124 c 128,-1,69
 416 123 416 123 390.5 121.5 c 128,-1,70
 365 120 365 120 342.5 119 c 128,-1,71
 320 118 320 118 311 118 c 2,72,-1
 284 118 l 2,73,74
 252 118 252 118 221.5 132 c 128,-1,75
 191 146 191 146 167.5 169 c 128,-1,76
 144 192 144 192 129.5 222 c 128,-1,77
 115 252 115 252 115 284 c 2,78,-1
 115 307 l 2,79,80
 115 314 115 314 116 331.5 c 128,-1,81
 117 349 117 349 118.5 369.5 c 128,-1,82
 120 390 120 390 121 407.5 c 128,-1,83
 122 425 122 425 122 432 c 0,84,85
 126 451 126 451 140 474.5 c 128,-1,86
 154 498 154 498 173.5 518 c 128,-1,87
 193 538 193 538 216 551.5 c 128,-1,88
 239 565 239 565 262 565 c 2,89,-1
 485 565 l 2,90,91
 509 565 509 565 524.5 549.5 c 128,-1,92
 540 534 540 534 553.5 516 c 128,-1,93
 567 498 567 498 582.5 482.5 c 128,-1,94
 598 467 598 467 622 467 c 0,95,96
 639 467 639 467 653 474.5 c 128,-1,97
 667 482 667 482 667 502 c 0,0,1
EndSplineSet
Validated: 9
EndChar

StartChar: H
Encoding: 72 72 39
Width: 685
Flags: W
LayerCount: 2
Fore
SplineSet
118 671 m 0,0,1
 97 671 97 671 77.5 654.5 c 128,-1,2
 58 638 58 638 43 614.5 c 128,-1,3
 28 591 28 591 19 566 c 128,-1,4
 10 541 10 541 10 523 c 2,5,-1
 10 174 l 2,6,7
 10 154 10 154 18.5 127.5 c 128,-1,8
 27 101 27 101 42 77 c 128,-1,9
 57 53 57 53 76.5 36 c 128,-1,10
 96 19 96 19 118 19 c 0,11,12
 141 19 141 19 156.5 31 c 128,-1,13
 172 43 172 43 172 67 c 0,14,15
 172 89 172 89 163 108.5 c 128,-1,16
 154 128 154 128 143 146.5 c 128,-1,17
 132 165 132 165 123 184 c 128,-1,18
 114 203 114 203 114 226 c 0,19,20
 114 238 114 238 118 249.5 c 128,-1,21
 122 261 122 261 129 271 c 128,-1,22
 136 281 136 281 146.5 287 c 128,-1,23
 157 293 157 293 171 293 c 2,24,-1
 513 293 l 2,25,26
 523 293 523 293 533.5 288 c 128,-1,27
 544 283 544 283 551.5 275 c 128,-1,28
 559 267 559 267 564 257 c 128,-1,29
 569 247 569 247 569 237 c 2,30,-1
 569 62 l 2,31,32
 569 42 569 42 586.5 30.5 c 128,-1,33
 604 19 604 19 621 19 c 0,34,35
 628 19 628 19 637.5 22.5 c 128,-1,36
 647 26 647 26 655 32 c 128,-1,37
 663 38 663 38 668.5 46 c 128,-1,38
 674 54 674 54 674 62 c 2,39,-1
 674 523 l 2,40,41
 674 542 674 542 664.5 567.5 c 128,-1,42
 655 593 655 593 639.5 616 c 128,-1,43
 624 639 624 639 603 655 c 128,-1,44
 582 671 582 671 560 671 c 256,45,46
 538 671 538 671 525.5 656.5 c 128,-1,47
 513 642 513 642 513 621 c 256,48,49
 513 600 513 600 522 581 c 128,-1,50
 531 562 531 562 541.5 543 c 128,-1,51
 552 524 552 524 561 505 c 128,-1,52
 570 486 570 486 570 464 c 0,53,54
 570 452 570 452 566 440.5 c 128,-1,55
 562 429 562 429 555 419 c 128,-1,56
 548 409 548 409 537 403 c 128,-1,57
 526 397 526 397 513 397 c 2,58,-1
 171 397 l 2,59,60
 146 397 146 397 130.5 417 c 128,-1,61
 115 437 115 437 115 460 c 0,62,63
 115 482 115 482 123.5 501.5 c 128,-1,64
 132 521 132 521 142.5 539.5 c 128,-1,65
 153 558 153 558 162 577.5 c 128,-1,66
 171 597 171 597 171 618 c 0,67,68
 171 644 171 644 156 657.5 c 128,-1,69
 141 671 141 671 118 671 c 0,0,1
EndSplineSet
Validated: 9
EndChar

StartChar: I
Encoding: 73 73 40
Width: 685
Flags: W
LayerCount: 2
Fore
SplineSet
9 62 m 0,0,1
 9 45 9 45 20.5 29 c 128,-1,2
 32 13 32 13 52 13 c 2,3,-1
 618 13 l 2,4,5
 641 13 641 13 658 30.5 c 128,-1,6
 675 48 675 48 675 69 c 0,7,8
 675 76 675 76 672 85.5 c 128,-1,9
 669 95 669 95 663 102.5 c 128,-1,10
 657 110 657 110 649 115.5 c 128,-1,11
 641 121 641 121 632 121 c 2,12,-1
 429 121 l 2,13,14
 421 121 421 121 414.5 128.5 c 128,-1,15
 408 136 408 136 403.5 146.5 c 128,-1,16
 399 157 399 157 396.5 166.5 c 128,-1,17
 394 176 394 176 394 181 c 2,18,-1
 394 509 l 2,19,20
 394 541 394 541 413.5 555 c 128,-1,21
 433 569 433 569 460 573.5 c 128,-1,22
 487 578 487 578 515.5 575.5 c 128,-1,23
 544 573 544 573 562 572 c 1,24,25
 582 577 582 577 600.5 589 c 128,-1,26
 619 601 619 601 619 625 c 0,27,28
 619 635 619 635 614 644 c 128,-1,29
 609 653 609 653 600.5 660.5 c 128,-1,30
 592 668 592 668 582 672.5 c 128,-1,31
 572 677 572 677 562 677 c 2,32,-1
 108 677 l 2,33,34
 100 677 100 677 92.5 672 c 128,-1,35
 85 667 85 667 79 659.5 c 128,-1,36
 73 652 73 652 69.5 643.5 c 128,-1,37
 66 635 66 635 66 628 c 0,38,39
 66 622 66 622 67 617.5 c 128,-1,40
 68 613 68 613 73 607 c 0,41,42
 88 589 88 589 109.5 582.5 c 128,-1,43
 131 576 131 576 155.5 573.5 c 128,-1,44
 180 571 180 571 204 569.5 c 128,-1,45
 228 568 228 568 247 561.5 c 128,-1,46
 266 555 266 555 278 540 c 128,-1,47
 290 525 290 525 290 495 c 2,48,-1
 290 174 l 2,49,50
 290 149 290 149 270 133.5 c 128,-1,51
 250 118 250 118 227 118 c 2,52,-1
 66 118 l 2,53,54
 43 118 43 118 26 100.5 c 128,-1,55
 9 83 9 83 9 62 c 0,0,1
EndSplineSet
Validated: 41
EndChar

StartChar: J
Encoding: 74 74 41
Width: 685
Flags: W
LayerCount: 2
Fore
SplineSet
10 184 m 0,0,1
 10 151 10 151 39 120 c 128,-1,2
 68 89 68 89 108.5 65 c 128,-1,3
 149 41 149 41 192.5 26.5 c 128,-1,4
 236 12 236 12 265 12 c 0,5,6
 319 12 319 12 372 40 c 128,-1,7
 425 68 425 68 467.5 112.5 c 128,-1,8
 510 157 510 157 536.5 211 c 128,-1,9
 563 265 563 265 563 317 c 0,10,11
 563 345 563 345 554 368.5 c 128,-1,12
 545 392 545 392 534.5 414 c 128,-1,13
 524 436 524 436 515 458 c 128,-1,14
 506 480 506 480 506 505 c 0,15,16
 506 535 506 535 518.5 548.5 c 128,-1,17
 531 562 531 562 549.5 566.5 c 128,-1,18
 568 571 568 571 590 571.5 c 128,-1,19
 612 572 612 572 630.5 575.5 c 128,-1,20
 649 579 649 579 661.5 589.5 c 128,-1,21
 674 600 674 600 674 625 c 0,22,23
 674 643 674 643 659.5 660 c 128,-1,24
 645 677 645 677 625 677 c 2,25,-1
 59 677 l 2,26,27
 39 677 39 677 24 661.5 c 128,-1,28
 9 646 9 646 9 627 c 0,29,30
 9 619 9 619 11.5 609 c 128,-1,31
 14 599 14 599 19 590 c 128,-1,32
 24 581 24 581 32.5 575 c 128,-1,33
 41 569 41 569 52 569 c 2,34,-1
 325 569 l 2,35,36
 350 569 350 569 365 554 c 128,-1,37
 380 539 380 539 388 517 c 128,-1,38
 396 495 396 495 400 471.5 c 128,-1,39
 404 448 404 448 408 432 c 128,-1,40
 412 416 412 416 418 402.5 c 128,-1,41
 424 389 424 389 430 375.5 c 128,-1,42
 436 362 436 362 440.5 347.5 c 128,-1,43
 445 333 445 333 445 316 c 0,44,45
 445 284 445 284 427.5 249 c 128,-1,46
 410 214 410 214 382 185 c 128,-1,47
 354 156 354 156 319.5 137 c 128,-1,48
 285 118 285 118 251 118 c 0,49,50
 221 118 221 118 198.5 135.5 c 128,-1,51
 176 153 176 153 155.5 174 c 128,-1,52
 135 195 135 195 113 212.5 c 128,-1,53
 91 230 91 230 62 230 c 0,54,55
 43 230 43 230 26.5 217 c 128,-1,56
 10 204 10 204 10 184 c 0,0,1
EndSplineSet
Validated: 9
EndChar

StartChar: K
Encoding: 75 75 42
Width: 629
Flags: W
LayerCount: 2
Fore
SplineSet
443 27 m 1,0,1
 465 19 465 19 484.5 15.5 c 128,-1,2
 504 12 504 12 527 12 c 0,3,4
 542 12 542 12 558 14 c 128,-1,5
 574 16 574 16 587.5 22 c 128,-1,6
 601 28 601 28 610 39.5 c 128,-1,7
 619 51 619 51 619 70 c 0,8,9
 619 95 619 95 601 105.5 c 128,-1,10
 583 116 583 116 559 120 c 128,-1,11
 535 124 535 124 510 125 c 128,-1,12
 485 126 485 126 471 132 c 0,13,14
 462 136 462 136 440.5 145.5 c 128,-1,15
 419 155 419 155 394.5 166.5 c 128,-1,16
 370 178 370 178 348 188 c 128,-1,17
 326 198 326 198 318 202 c 0,18,19
 303 211 303 211 287 223 c 128,-1,20
 271 235 271 235 257.5 250 c 128,-1,21
 244 265 244 265 235 282 c 128,-1,22
 226 299 226 299 226 317 c 0,23,24
 226 337 226 337 235.5 349.5 c 128,-1,25
 245 362 245 362 258.5 370.5 c 128,-1,26
 272 379 272 379 288 386 c 128,-1,27
 304 393 304 393 318 404 c 0,28,29
 322 407 322 407 336 420.5 c 128,-1,30
 350 434 350 434 366.5 449.5 c 128,-1,31
 383 465 383 465 397 478.5 c 128,-1,32
 411 492 411 492 415 495 c 0,33,34
 418 498 418 498 426 504 c 128,-1,35
 434 510 434 510 443 516.5 c 128,-1,36
 452 523 452 523 460 529 c 128,-1,37
 468 535 468 535 471 537 c 0,38,39
 486 547 486 547 511 553 c 128,-1,40
 536 559 536 559 559.5 567.5 c 128,-1,41
 583 576 583 576 600.5 589 c 128,-1,42
 618 602 618 602 618 625 c 0,43,44
 618 646 618 646 600.5 661.5 c 128,-1,45
 583 677 583 677 562 677 c 0,46,47
 526 677 526 677 490.5 662 c 128,-1,48
 455 647 455 647 422 625 c 128,-1,49
 389 603 389 603 359 577.5 c 128,-1,50
 329 552 329 552 304 530 c 1,51,-1
 283 516 l 2,52,53
 277 513 277 513 263.5 506 c 128,-1,54
 250 499 250 499 234 491.5 c 128,-1,55
 218 484 218 484 204.5 477 c 128,-1,56
 191 470 191 470 185 467 c 2,57,-1
 171 467 l 2,58,59
 151 467 151 467 143 476 c 128,-1,60
 135 485 135 485 135 505 c 0,61,62
 135 521 135 521 140.5 536 c 128,-1,63
 146 551 146 551 153 565 c 128,-1,64
 160 579 160 579 165.5 593.5 c 128,-1,65
 171 608 171 608 171 624 c 0,66,67
 171 645 171 645 157 658 c 128,-1,68
 143 671 143 671 123 671 c 0,69,70
 91 671 91 671 75 650 c 128,-1,71
 59 629 59 629 52 600 c 0,72,73
 47 579 47 579 40 546 c 128,-1,74
 33 513 33 513 26 482 c 128,-1,75
 19 451 19 451 14.5 428 c 128,-1,76
 10 405 10 405 10 404 c 2,77,-1
 10 55 l 2,78,79
 10 38 10 38 26.5 28.5 c 128,-1,80
 43 19 43 19 57 19 c 0,81,82
 63 19 63 19 73.5 21 c 128,-1,83
 84 23 84 23 93.5 27 c 128,-1,84
 103 31 103 31 110.5 38 c 128,-1,85
 118 45 118 45 118 55 c 2,86,-1
 118 167 l 2,87,88
 118 175 118 175 123.5 179.5 c 128,-1,89
 129 184 129 184 136.5 186 c 128,-1,90
 144 188 144 188 151.5 188.5 c 128,-1,91
 159 189 159 189 164 189 c 0,92,93
 166 189 166 189 174.5 188.5 c 128,-1,94
 183 188 183 188 185 188 c 0,95,96
 212 162 212 162 244 141.5 c 128,-1,97
 276 121 276 121 310 102 c 128,-1,98
 344 83 344 83 378.5 65 c 128,-1,99
 413 47 413 47 443 27 c 1,0,1
EndSplineSet
Validated: 9
EndChar

StartChar: L
Encoding: 76 76 43
Width: 685
Flags: W
LayerCount: 2
Fore
SplineSet
119 671 m 0,0,1
 100 671 100 671 80.5 660.5 c 128,-1,2
 61 650 61 650 45.5 633.5 c 128,-1,3
 30 617 30 617 20 597 c 128,-1,4
 10 577 10 577 10 558 c 2,5,-1
 10 279 l 2,6,7
 10 278 10 278 12.5 267 c 128,-1,8
 15 256 15 256 17 251 c 0,9,10
 18 246 18 246 20.5 238.5 c 128,-1,11
 23 231 23 231 24 230 c 0,12,13
 48 189 48 189 72 154.5 c 128,-1,14
 96 120 96 120 125 92 c 128,-1,15
 154 64 154 64 191 44 c 128,-1,16
 228 24 228 24 276 13 c 0,17,18
 280 13 280 13 289 13 c 256,19,20
 298 13 298 13 308.5 12.5 c 128,-1,21
 319 12 319 12 328 12 c 0,22,23
 338 12 338 12 342 12 c 0,24,25
 349 12 349 12 361 11.5 c 128,-1,26
 373 11 373 11 386.5 11.5 c 128,-1,27
 400 12 400 12 413.5 13.5 c 128,-1,28
 427 15 427 15 436 20 c 2,29,-1
 632 118 l 2,30,31
 646 125 646 125 660 144.5 c 128,-1,32
 674 164 674 164 674 181 c 0,33,34
 674 185 674 185 671.5 192.5 c 128,-1,35
 669 200 669 200 665 206.5 c 128,-1,36
 661 213 661 213 656 218 c 128,-1,37
 651 223 651 223 646 223 c 2,38,-1
 583 223 l 1,39,-1
 380 125 l 2,40,41
 378 124 378 124 365 121.5 c 128,-1,42
 352 119 352 119 346 118 c 2,43,-1
 335 118 l 2,44,45
 308 118 308 118 271.5 137 c 128,-1,46
 235 156 235 156 201.5 185 c 128,-1,47
 168 214 168 214 145 248.5 c 128,-1,48
 122 283 122 283 122 314 c 2,49,-1
 122 481 l 2,50,51
 122 500 122 500 129.5 516.5 c 128,-1,52
 137 533 137 533 146.5 549 c 128,-1,53
 156 565 156 565 163.5 582 c 128,-1,54
 171 599 171 599 171 618 c 0,55,56
 171 641 171 641 156.5 656 c 128,-1,57
 142 671 142 671 119 671 c 0,0,1
EndSplineSet
Validated: 9
EndChar

StartChar: M
Encoding: 77 77 44
Width: 685
Flags: W
LayerCount: 2
Fore
SplineSet
10 223 m 1,0,1
 17 205 17 205 24 170.5 c 128,-1,2
 31 136 31 136 42.5 102.5 c 128,-1,3
 54 69 54 69 71.5 44 c 128,-1,4
 89 19 89 19 118 19 c 0,5,6
 143 19 143 19 157.5 32.5 c 128,-1,7
 172 46 172 46 172 72 c 0,8,9
 172 93 172 93 164 112.5 c 128,-1,10
 156 132 156 132 147 151 c 128,-1,11
 138 170 138 170 130 189.5 c 128,-1,12
 122 209 122 209 122 230 c 2,13,-1
 122 509 l 2,14,15
 122 522 122 522 133 526.5 c 128,-1,16
 144 531 144 531 153 531 c 0,17,18
 177 531 177 531 196 511 c 128,-1,19
 215 491 215 491 234 467.5 c 128,-1,20
 253 444 253 444 276 424 c 128,-1,21
 299 404 299 404 332 404 c 0,22,23
 354 404 354 404 370 415 c 128,-1,24
 386 426 386 426 398.5 442.5 c 128,-1,25
 411 459 411 459 422.5 478 c 128,-1,26
 434 497 434 497 447 513.5 c 128,-1,27
 460 530 460 530 477 541 c 128,-1,28
 494 552 494 552 517 552 c 0,29,30
 544 552 544 552 556.5 534 c 128,-1,31
 569 516 569 516 569 489 c 2,32,-1
 569 481 l 2,33,34
 569 467 569 467 568 430 c 128,-1,35
 567 393 567 393 565.5 352 c 128,-1,36
 564 311 564 311 563 274 c 128,-1,37
 562 237 562 237 562 223 c 0,38,39
 558 203 558 203 549.5 184.5 c 128,-1,40
 541 166 541 166 533 147.5 c 128,-1,41
 525 129 525 129 518.5 110.5 c 128,-1,42
 512 92 512 92 512 72 c 0,43,44
 512 18 512 18 566 18 c 0,45,46
 611 18 611 18 625 62 c 0,47,48
 627 68 627 68 632.5 86 c 128,-1,49
 638 104 638 104 645 125.5 c 128,-1,50
 652 147 652 147 658 166.5 c 128,-1,51
 664 186 664 186 667 195 c 0,52,53
 669 200 669 200 671.5 210.5 c 128,-1,54
 674 221 674 221 674 223 c 2,55,-1
 674 530 l 2,56,57
 674 558 674 558 658 584.5 c 128,-1,58
 642 611 642 611 618 631.5 c 128,-1,59
 594 652 594 652 565 664.5 c 128,-1,60
 536 677 536 677 510 677 c 0,61,62
 503 677 503 677 492.5 676 c 128,-1,63
 482 675 482 675 471.5 672.5 c 128,-1,64
 461 670 461 670 451.5 666 c 128,-1,65
 442 662 442 662 436 656 c 2,66,-1
 352 572 l 2,67,68
 345 565 345 565 335 565 c 0,69,70
 326 565 326 565 318 565 c 0,71,72
 289 565 289 565 269 581.5 c 128,-1,73
 249 598 249 598 230 618 c 128,-1,74
 211 638 211 638 190 654.5 c 128,-1,75
 169 671 169 671 138 671 c 0,76,77
 116 671 116 671 93.5 662.5 c 128,-1,78
 71 654 71 654 52.5 639 c 128,-1,79
 34 624 34 624 22 603 c 128,-1,80
 10 582 10 582 10 558 c 2,81,-1
 10 223 l 1,0,1
EndSplineSet
Validated: 9
EndChar

StartChar: N
Encoding: 78 78 45
Width: 685
Flags: W
LayerCount: 2
Fore
SplineSet
164 671 m 0,0,1
 138 671 138 671 111 658.5 c 128,-1,2
 84 646 84 646 61.5 625 c 128,-1,3
 39 604 39 604 24.5 577.5 c 128,-1,4
 10 551 10 551 10 523 c 2,5,-1
 10 167 l 2,6,7
 10 150 10 150 19 124.5 c 128,-1,8
 28 99 28 99 43 75.5 c 128,-1,9
 58 52 58 52 77.5 35.5 c 128,-1,10
 97 19 97 19 118 19 c 256,11,12
 139 19 139 19 155.5 30 c 128,-1,13
 172 41 172 41 172 64 c 0,14,15
 172 80 172 80 165.5 94.5 c 128,-1,16
 159 109 159 109 150.5 123 c 128,-1,17
 142 137 142 137 134 151 c 128,-1,18
 126 165 126 165 122 181 c 0,19,20
 122 193 122 193 121 225 c 128,-1,21
 120 257 120 257 118.5 292.5 c 128,-1,22
 117 328 117 328 116 360 c 128,-1,23
 115 392 115 392 115 404 c 2,24,-1
 115 428 l 2,25,26
 115 440 115 440 117.5 452.5 c 128,-1,27
 120 465 120 465 125.5 474.5 c 128,-1,28
 131 484 131 484 140.5 490 c 128,-1,29
 150 496 150 496 164 496 c 0,30,31
 176 496 176 496 188 491 c 128,-1,32
 200 486 200 486 206 474 c 2,33,-1
 373 139 l 2,34,35
 383 119 383 119 401 97.5 c 128,-1,36
 419 76 419 76 441.5 58.5 c 128,-1,37
 464 41 464 41 489 30 c 128,-1,38
 514 19 514 19 539 19 c 0,39,40
 561 19 561 19 585 32.5 c 128,-1,41
 609 46 609 46 628.5 67 c 128,-1,42
 648 88 648 88 661 112.5 c 128,-1,43
 674 137 674 137 674 160 c 2,44,-1
 674 530 l 2,45,46
 674 532 674 532 671.5 540 c 128,-1,47
 669 548 669 548 667 551 c 0,48,49
 659 569 659 569 650 590 c 128,-1,50
 641 611 641 611 628.5 629 c 128,-1,51
 616 647 616 647 599.5 659 c 128,-1,52
 583 671 583 671 560 671 c 0,53,54
 540 671 540 671 526.5 658 c 128,-1,55
 513 645 513 645 513 625 c 0,56,57
 513 603 513 603 519.5 582.5 c 128,-1,58
 526 562 526 562 534 542 c 128,-1,59
 542 522 542 522 550.5 501.5 c 128,-1,60
 559 481 559 481 562 460 c 0,61,62
 562 446 562 446 563 410.5 c 128,-1,63
 564 375 564 375 565.5 334.5 c 128,-1,64
 567 294 567 294 568 258.5 c 128,-1,65
 569 223 569 223 569 209 c 2,66,-1
 569 193 l 2,67,68
 569 170 569 170 559.5 151 c 128,-1,69
 550 132 550 132 524 132 c 0,70,71
 507 132 507 132 494 143 c 128,-1,72
 481 154 481 154 471 167 c 0,73,74
 413 286 413 286 352.5 401 c 128,-1,75
 292 516 292 516 234 635 c 1,76,77
 224 646 224 646 217 653 c 128,-1,78
 210 660 210 660 203 664 c 128,-1,79
 196 668 196 668 187 669.5 c 128,-1,80
 178 671 178 671 164 671 c 0,0,1
EndSplineSet
Validated: 9
EndChar

StartChar: O
Encoding: 79 79 46
Width: 685
Flags: W
LayerCount: 2
Fore
SplineSet
9 331 m 0,0,1
 9 304 9 304 14.5 281.5 c 128,-1,2
 20 259 20 259 30 239 c 128,-1,3
 40 219 40 219 52.5 198 c 128,-1,4
 65 177 65 177 80 153 c 0,5,6
 125 77 125 77 192.5 44.5 c 128,-1,7
 260 12 260 12 342 12 c 0,8,9
 396 12 396 12 440.5 22 c 128,-1,10
 485 32 485 32 527 69 c 0,11,12
 533 75 533 75 544.5 85 c 128,-1,13
 556 95 556 95 569 107.5 c 128,-1,14
 582 120 582 120 593.5 134 c 128,-1,15
 605 148 605 148 611 160 c 0,16,17
 624 184 624 184 635.5 204 c 128,-1,18
 647 224 647 224 656 243 c 128,-1,19
 665 262 665 262 670 282.5 c 128,-1,20
 675 303 675 303 675 328 c 0,21,22
 675 359 675 359 666 384.5 c 128,-1,23
 657 410 657 410 646 439 c 0,24,25
 625 498 625 498 597.5 543 c 128,-1,26
 570 588 570 588 532.5 618 c 128,-1,27
 495 648 495 648 446.5 663 c 128,-1,28
 398 678 398 678 335 678 c 0,29,30
 309 678 309 678 288.5 676 c 128,-1,31
 268 674 268 674 249.5 669 c 128,-1,32
 231 664 231 664 212 655.5 c 128,-1,33
 193 647 193 647 171 635 c 0,34,35
 166 630 166 630 153 617 c 128,-1,36
 140 604 140 604 125.5 589.5 c 128,-1,37
 111 575 111 575 98 562 c 128,-1,38
 85 549 85 549 80 544 c 0,39,40
 76 540 76 540 68.5 528 c 128,-1,41
 61 516 61 516 59 509 c 0,42,43
 56 501 56 501 49 480 c 128,-1,44
 42 459 42 459 34 436 c 128,-1,45
 26 413 26 413 19.5 392 c 128,-1,46
 13 371 13 371 10 362 c 0,47,48
 10 359 10 359 9.5 347 c 128,-1,49
 9 335 9 335 9 331 c 0,0,1
121 350 m 0,50,51
 121 396 121 396 139 436 c 128,-1,52
 157 476 157 476 187.5 504.5 c 128,-1,53
 218 533 218 533 258 549.5 c 128,-1,54
 298 566 298 566 342 566 c 0,55,56
 388 566 388 566 428.5 549 c 128,-1,57
 469 532 469 532 499 502 c 128,-1,58
 529 472 529 472 546 431.5 c 128,-1,59
 563 391 563 391 563 343 c 0,60,61
 563 296 563 296 545.5 256 c 128,-1,62
 528 216 528 216 497.5 186.5 c 128,-1,63
 467 157 467 157 427 140.5 c 128,-1,64
 387 124 387 124 342 124 c 256,65,66
 297 124 297 124 265 135.5 c 128,-1,67
 233 147 233 147 208.5 168.5 c 128,-1,68
 184 190 184 190 165 221.5 c 128,-1,69
 146 253 146 253 129 293 c 0,70,71
 122 307 122 307 121.5 320.5 c 128,-1,72
 121 334 121 334 121 350 c 0,50,51
EndSplineSet
Validated: 9
EndChar

StartChar: P
Encoding: 80 80 47
Width: 685
Flags: W
LayerCount: 2
Fore
SplineSet
57 671 m 0,0,1
 43 671 43 671 26.5 661.5 c 128,-1,2
 10 652 10 652 10 635 c 2,3,-1
 10 55 l 2,4,5
 10 48 10 48 15 40.5 c 128,-1,6
 20 33 20 33 27.5 27 c 128,-1,7
 35 21 35 21 43.5 17 c 128,-1,8
 52 13 52 13 59 13 c 0,9,10
 80 13 80 13 91 22.5 c 128,-1,11
 102 32 102 32 108 46 c 128,-1,12
 114 60 114 60 117 76 c 128,-1,13
 120 92 120 92 125.5 106 c 128,-1,14
 131 120 131 120 141.5 129.5 c 128,-1,15
 152 139 152 139 171 139 c 2,16,-1
 178 139 l 2,17,18
 181 138 181 138 189 136 c 128,-1,19
 197 134 197 134 206 132 c 128,-1,20
 215 130 215 130 223 128 c 128,-1,21
 231 126 231 126 234 125 c 2,22,-1
 394 125 l 2,23,24
 397 125 397 125 408 127.5 c 128,-1,25
 419 130 419 130 422 132 c 0,26,27
 451 145 451 145 486.5 161.5 c 128,-1,28
 522 178 522 178 555.5 199.5 c 128,-1,29
 589 221 589 221 617 247.5 c 128,-1,30
 645 274 645 274 660 307 c 0,31,32
 667 322 667 322 670 332 c 128,-1,33
 673 342 673 342 674 351.5 c 128,-1,34
 675 361 675 361 675 372 c 256,35,36
 675 383 675 383 675 401 c 0,37,38
 675 455 675 455 654.5 495 c 128,-1,39
 634 535 634 535 600 565.5 c 128,-1,40
 566 596 566 596 523.5 619.5 c 128,-1,41
 481 643 481 643 436 663 c 0,42,43
 433 664 433 664 426.5 666.5 c 128,-1,44
 420 669 420 669 413 671.5 c 128,-1,45
 406 674 406 674 400.5 675.5 c 128,-1,46
 395 677 395 677 394 677 c 2,47,-1
 248 677 l 2,48,49
 235 677 235 677 223 672.5 c 128,-1,50
 211 668 211 668 199 663 c 128,-1,51
 187 658 187 658 174.5 653.5 c 128,-1,52
 162 649 162 649 150 649 c 256,53,54
 138 649 138 649 126.5 652.5 c 128,-1,55
 115 656 115 656 104 660 c 128,-1,56
 93 664 93 664 81 667.5 c 128,-1,57
 69 671 69 671 57 671 c 0,0,1
563 401 m 0,58,59
 563 376 563 376 552 347 c 128,-1,60
 541 318 541 318 522.5 293.5 c 128,-1,61
 504 269 504 269 479.5 253 c 128,-1,62
 455 237 455 237 429 237 c 2,63,-1
 220 237 l 2,64,65
 207 237 207 237 190 242 c 128,-1,66
 173 247 173 247 158 256 c 128,-1,67
 143 265 143 265 132.5 278 c 128,-1,68
 122 291 122 291 122 307 c 2,69,-1
 122 495 l 2,70,71
 122 512 122 512 133.5 525 c 128,-1,72
 145 538 145 538 161 547 c 128,-1,73
 177 556 177 556 195 560.5 c 128,-1,74
 213 565 213 565 227 565 c 2,75,-1
 429 565 l 2,76,77
 455 565 455 565 479 548.5 c 128,-1,78
 503 532 503 532 522 507 c 128,-1,79
 541 482 541 482 552 453.5 c 128,-1,80
 563 425 563 425 563 401 c 0,58,59
EndSplineSet
Validated: 9
EndChar

StartChar: Q
Encoding: 81 81 48
Width: 685
Flags: W
LayerCount: 2
Fore
SplineSet
9 328 m 0,0,1
 9 310 9 310 9 298 c 0,2,3
 9 287 9 287 17 272 c 0,4,5
 40 226 40 226 67 180 c 128,-1,6
 94 134 94 134 129.5 96.5 c 128,-1,7
 165 59 165 59 209.5 35.5 c 128,-1,8
 254 12 254 12 311 12 c 0,9,10
 338 12 338 12 363 20 c 128,-1,11
 388 28 388 28 412.5 37 c 128,-1,12
 437 46 437 46 461.5 54 c 128,-1,13
 486 62 486 62 513 62 c 0,14,15
 529 62 529 62 542.5 55.5 c 128,-1,16
 556 49 556 49 569 40.5 c 128,-1,17
 582 32 582 32 595.5 25.5 c 128,-1,18
 609 19 609 19 624 19 c 0,19,20
 647 19 647 19 661 34 c 128,-1,21
 675 49 675 49 675 72 c 0,22,23
 675 88 675 88 670.5 103 c 128,-1,24
 666 118 666 118 660 132 c 128,-1,25
 654 146 654 146 649.5 161 c 128,-1,26
 645 176 645 176 645 193 c 0,27,28
 645 211 645 211 649.5 227.5 c 128,-1,29
 654 244 654 244 660 259.5 c 128,-1,30
 666 275 666 275 670.5 291.5 c 128,-1,31
 675 308 675 308 675 326 c 0,32,33
 675 358 675 358 666 384 c 128,-1,34
 657 410 657 410 646 439 c 0,35,36
 625 499 625 499 597 543.5 c 128,-1,37
 569 588 569 588 531.5 618 c 128,-1,38
 494 648 494 648 446 663 c 128,-1,39
 398 678 398 678 335 678 c 0,40,41
 309 678 309 678 288.5 676 c 128,-1,42
 268 674 268 674 249.5 669 c 128,-1,43
 231 664 231 664 212 655.5 c 128,-1,44
 193 647 193 647 171 635 c 0,45,46
 166 630 166 630 153 617 c 128,-1,47
 140 604 140 604 125.5 589.5 c 128,-1,48
 111 575 111 575 98 562 c 128,-1,49
 85 549 85 549 80 544 c 0,50,51
 76 540 76 540 68.5 528 c 128,-1,52
 61 516 61 516 59 509 c 0,53,54
 56 501 56 501 49 480 c 128,-1,55
 42 459 42 459 34 436 c 128,-1,56
 26 413 26 413 19.5 392 c 128,-1,57
 13 371 13 371 10 362 c 0,58,59
 10 358 10 358 9.5 345 c 128,-1,60
 9 332 9 332 9 328 c 0,0,1
121 350 m 0,61,62
 121 396 121 396 139 436 c 128,-1,63
 157 476 157 476 187.5 504.5 c 128,-1,64
 218 533 218 533 258 549.5 c 128,-1,65
 298 566 298 566 342 566 c 0,66,67
 388 566 388 566 420 555 c 128,-1,68
 452 544 452 544 475.5 522.5 c 128,-1,69
 499 501 499 501 517.5 469.5 c 128,-1,70
 536 438 536 438 555 397 c 0,71,72
 562 381 562 381 562.5 372.5 c 128,-1,73
 563 364 563 364 563 345 c 0,74,75
 563 314 563 314 556 295.5 c 128,-1,76
 549 277 549 277 535.5 264.5 c 128,-1,77
 522 252 522 252 502 241.5 c 128,-1,78
 482 231 482 231 457 216 c 0,79,80
 442 207 442 207 437.5 195 c 128,-1,81
 433 183 433 183 429 170 c 128,-1,82
 425 157 425 157 417 145.5 c 128,-1,83
 409 134 409 134 387 125 c 0,84,85
 384 125 384 125 377 125 c 0,86,87
 371 125 371 125 363 124.5 c 128,-1,88
 355 124 355 124 348 124 c 0,89,90
 342 124 342 124 339 124 c 0,91,92
 295 124 295 124 263 136 c 128,-1,93
 231 148 231 148 207 169.5 c 128,-1,94
 183 191 183 191 164.5 222.5 c 128,-1,95
 146 254 146 254 129 293 c 0,96,97
 122 307 122 307 121.5 320.5 c 128,-1,98
 121 334 121 334 121 350 c 0,61,62
EndSplineSet
Validated: 9
EndChar

StartChar: R
Encoding: 82 82 49
Width: 685
Flags: W
LayerCount: 2
Fore
SplineSet
55 671 m 256,0,1
 41 671 41 671 25.5 661 c 128,-1,2
 10 651 10 651 10 635 c 2,3,-1
 10 55 l 2,4,5
 10 48 10 48 15 40.5 c 128,-1,6
 20 33 20 33 27.5 27 c 128,-1,7
 35 21 35 21 43.5 17 c 128,-1,8
 52 13 52 13 59 13 c 0,9,10
 82 13 82 13 93 23.5 c 128,-1,11
 104 34 104 34 109.5 49.5 c 128,-1,12
 115 65 115 65 117.5 83.5 c 128,-1,13
 120 102 120 102 126 117.5 c 128,-1,14
 132 133 132 133 143.5 143.5 c 128,-1,15
 155 154 155 154 179 154 c 0,16,17
 184 154 184 154 191 153.5 c 128,-1,18
 198 153 198 153 199 153 c 0,19,20
 203 152 203 152 214.5 148 c 128,-1,21
 226 144 226 144 238 138.5 c 128,-1,22
 250 133 250 133 261 128.5 c 128,-1,23
 272 124 272 124 276 121 c 2,24,-1
 492 121 l 2,25,26
 512 121 512 121 525.5 105 c 128,-1,27
 539 89 539 89 552.5 70 c 128,-1,28
 566 51 566 51 581 35 c 128,-1,29
 596 19 596 19 619 19 c 0,30,31
 645 19 645 19 660 33.5 c 128,-1,32
 675 48 675 48 675 72 c 0,33,34
 675 95 675 95 665 112.5 c 128,-1,35
 655 130 655 130 643 146.5 c 128,-1,36
 631 163 631 163 621 180 c 128,-1,37
 611 197 611 197 611 219 c 0,38,39
 611 244 611 244 621 262 c 128,-1,40
 631 280 631 280 642.5 294 c 128,-1,41
 654 308 654 308 664 319 c 128,-1,42
 674 330 674 330 674 342 c 2,43,-1
 674 481 l 2,44,45
 674 510 674 510 651.5 544 c 128,-1,46
 629 578 629 578 596 607.5 c 128,-1,47
 563 637 563 637 525 657 c 128,-1,48
 487 677 487 677 457 677 c 2,49,-1
 276 677 l 2,50,51
 260 677 260 677 245.5 670.5 c 128,-1,52
 231 664 231 664 216.5 656 c 128,-1,53
 202 648 202 648 187.5 641.5 c 128,-1,54
 173 635 173 635 157 635 c 0,55,56
 143 635 143 635 130.5 640.5 c 128,-1,57
 118 646 118 646 106 653 c 128,-1,58
 94 660 94 660 81.5 665.5 c 128,-1,59
 69 671 69 671 55 671 c 256,0,1
121 419 m 0,60,61
 121 448 121 448 129 469.5 c 128,-1,62
 137 491 137 491 151.5 507 c 128,-1,63
 166 523 166 523 187 535 c 128,-1,64
 208 547 208 547 234 558 c 0,65,66
 238 560 238 560 248.5 562.5 c 128,-1,67
 259 565 259 565 262 565 c 2,68,-1
 436 565 l 2,69,70
 462 565 462 565 485 548.5 c 128,-1,71
 508 532 508 532 525.5 507.5 c 128,-1,72
 543 483 543 483 553 455 c 128,-1,73
 563 427 563 427 563 404 c 0,74,75
 563 377 563 377 556.5 356.5 c 128,-1,76
 550 336 550 336 538 319 c 128,-1,77
 526 302 526 302 509 285.5 c 128,-1,78
 492 269 492 269 471 251 c 0,79,80
 470 250 470 250 465 247.5 c 128,-1,81
 460 245 460 245 457 244 c 0,82,83
 453 242 453 242 445 239.5 c 128,-1,84
 437 237 437 237 436 237 c 2,85,-1
 255 237 l 2,86,87
 241 237 241 237 225.5 244.5 c 128,-1,88
 210 252 210 252 199 258 c 0,89,90
 173 272 173 272 158 288.5 c 128,-1,91
 143 305 143 305 134.5 324.5 c 128,-1,92
 126 344 126 344 123.5 367.5 c 128,-1,93
 121 391 121 391 121 419 c 0,60,61
EndSplineSet
Validated: 9
EndChar

StartChar: S
Encoding: 83 83 50
Width: 685
Flags: W
LayerCount: 2
Fore
SplineSet
10 230 m 0,0,1
 10 216 10 216 17.5 200.5 c 128,-1,2
 25 185 25 185 35 171 c 128,-1,3
 45 157 45 157 55.5 145 c 128,-1,4
 66 133 66 133 73 125 c 0,5,6
 127 63 127 63 195.5 37.5 c 128,-1,7
 264 12 264 12 342 12 c 0,8,9
 372 12 372 12 408.5 18 c 128,-1,10
 445 24 445 24 482 36.5 c 128,-1,11
 519 49 519 49 553.5 67.5 c 128,-1,12
 588 86 588 86 615 110.5 c 128,-1,13
 642 135 642 135 658 165.5 c 128,-1,14
 674 196 674 196 674 233 c 0,15,16
 674 273 674 273 655.5 300.5 c 128,-1,17
 637 328 637 328 607 346.5 c 128,-1,18
 577 365 577 365 539.5 377 c 128,-1,19
 502 389 502 389 463 397 c 128,-1,20
 424 405 424 405 388 411 c 128,-1,21
 352 417 352 417 325 425 c 0,22,23
 317 428 317 428 300.5 433 c 128,-1,24
 284 438 284 438 266 443.5 c 128,-1,25
 248 449 248 449 232.5 453.5 c 128,-1,26
 217 458 217 458 213 460 c 0,27,28
 198 465 198 465 191 473.5 c 128,-1,29
 184 482 184 482 184 497 c 0,30,31
 184 525 184 525 205 545 c 128,-1,32
 226 565 226 565 255 565 c 2,33,-1
 429 565 l 2,34,35
 447 565 447 565 464 557 c 128,-1,36
 481 549 481 549 497.5 540 c 128,-1,37
 514 531 514 531 531 523 c 128,-1,38
 548 515 548 515 568 515 c 0,39,40
 586 515 586 515 599 522.5 c 128,-1,41
 612 530 612 530 612 550 c 0,42,43
 612 586 612 586 580 610.5 c 128,-1,44
 548 635 548 635 504 650 c 128,-1,45
 460 665 460 665 414.5 671.5 c 128,-1,46
 369 678 369 678 342 678 c 0,47,48
 319 678 319 678 285.5 674 c 128,-1,49
 252 670 252 670 215.5 661.5 c 128,-1,50
 179 653 179 653 142 639 c 128,-1,51
 105 625 105 625 76 605.5 c 128,-1,52
 47 586 47 586 28.5 560 c 128,-1,53
 10 534 10 534 10 502 c 0,54,55
 10 471 10 471 27 448.5 c 128,-1,56
 44 426 44 426 69.5 409.5 c 128,-1,57
 95 393 95 393 124.5 382 c 128,-1,58
 154 371 154 371 178 362 c 0,59,60
 188 359 188 359 208 352.5 c 128,-1,61
 228 346 228 346 248 339 c 128,-1,62
 268 332 268 332 284 327 c 128,-1,63
 300 322 300 322 304 321 c 0,64,65
 333 312 333 312 366.5 311.5 c 128,-1,66
 400 311 400 311 433 308 c 128,-1,67
 466 305 466 305 496 295 c 128,-1,68
 526 285 526 285 548 258 c 0,69,70
 549 254 549 254 550 243.5 c 128,-1,71
 551 233 551 233 551 230 c 0,72,73
 551 207 551 207 536.5 188 c 128,-1,74
 522 169 522 169 500 155 c 128,-1,75
 478 141 478 141 453.5 133 c 128,-1,76
 429 125 429 125 408 125 c 2,77,-1
 255 125 l 2,78,79
 223 125 223 125 199 149 c 128,-1,80
 175 173 175 173 153 202 c 128,-1,81
 131 231 131 231 108.5 255 c 128,-1,82
 86 279 86 279 59 279 c 0,83,84
 39 279 39 279 24.5 265.5 c 128,-1,85
 10 252 10 252 10 230 c 0,0,1
EndSplineSet
Validated: 9
EndChar

StartChar: T
Encoding: 84 84 51
Width: 685
Flags: W
LayerCount: 2
Fore
SplineSet
9 627 m 0,0,1
 9 619 9 619 11.5 609 c 128,-1,2
 14 599 14 599 19 590 c 128,-1,3
 24 581 24 581 32.5 575 c 128,-1,4
 41 569 41 569 52 569 c 2,5,-1
 234 569 l 2,6,7
 235 569 235 569 248.5 562 c 128,-1,8
 262 555 262 555 269 551 c 2,9,-1
 276 544 l 2,10,11
 278 541 278 541 282 536 c 128,-1,12
 286 531 286 531 286 530 c 2,13,-1
 286 62 l 2,14,15
 286 55 286 55 292 47.5 c 128,-1,16
 298 40 298 40 307 34 c 128,-1,17
 316 28 316 28 325.5 24 c 128,-1,18
 335 20 335 20 342 20 c 256,19,20
 349 20 349 20 358.5 23.5 c 128,-1,21
 368 27 368 27 375.5 33 c 128,-1,22
 383 39 383 39 388.5 46.5 c 128,-1,23
 394 54 394 54 394 62 c 2,24,-1
 394 516 l 2,25,26
 394 526 394 526 399 536.5 c 128,-1,27
 404 547 404 547 412 554.5 c 128,-1,28
 420 562 420 562 430 567 c 128,-1,29
 440 572 440 572 450 572 c 2,30,-1
 632 572 l 2,31,32
 640 572 640 572 647.5 577.5 c 128,-1,33
 655 583 655 583 661 591 c 128,-1,34
 667 599 667 599 670.5 608 c 128,-1,35
 674 617 674 617 674 625 c 0,36,37
 674 643 674 643 659.5 660 c 128,-1,38
 645 677 645 677 625 677 c 2,39,-1
 59 677 l 2,40,41
 39 677 39 677 24 661.5 c 128,-1,42
 9 646 9 646 9 627 c 0,0,1
EndSplineSet
Validated: 9
EndChar

StartChar: U
Encoding: 85 85 52
Width: 685
Flags: W
LayerCount: 2
Fore
SplineSet
182 671 m 0,0,1
 145 671 145 671 118 644 c 128,-1,2
 91 617 91 617 71.5 580 c 128,-1,3
 52 543 52 543 39 503.5 c 128,-1,4
 26 464 26 464 17 439 c 0,5,6
 15 434 15 434 12.5 423.5 c 128,-1,7
 10 413 10 413 10 411 c 2,8,-1
 10 223 l 2,9,10
 10 188 10 188 31.5 151 c 128,-1,11
 53 114 53 114 85.5 83.5 c 128,-1,12
 118 53 118 53 156 33 c 128,-1,13
 194 13 194 13 227 13 c 2,14,-1
 464 13 l 2,15,16
 496 13 496 13 533 34 c 128,-1,17
 570 55 570 55 601.5 86.5 c 128,-1,18
 633 118 633 118 653.5 155 c 128,-1,19
 674 192 674 192 674 223 c 2,20,-1
 674 411 l 2,21,22
 674 413 674 413 671.5 423.5 c 128,-1,23
 669 434 669 434 667 439 c 0,24,25
 664 448 664 448 658 466 c 128,-1,26
 652 484 652 484 645 503 c 128,-1,27
 638 522 638 522 632.5 537.5 c 128,-1,28
 627 553 627 553 625 558 c 0,29,30
 618 576 618 576 606.5 597 c 128,-1,31
 595 618 595 618 579 636 c 128,-1,32
 563 654 563 654 544 665.5 c 128,-1,33
 525 677 525 677 503 677 c 0,34,35
 485 677 485 677 471 663 c 128,-1,36
 457 649 457 649 457 632 c 0,37,38
 457 604 457 604 473.5 580 c 128,-1,39
 490 556 490 556 509.5 532.5 c 128,-1,40
 529 509 529 509 545.5 485 c 128,-1,41
 562 461 562 461 562 432 c 2,42,-1
 562 230 l 2,43,44
 562 212 562 212 551 193.5 c 128,-1,45
 540 175 540 175 523 160 c 128,-1,46
 506 145 506 145 486.5 135 c 128,-1,47
 467 125 467 125 450 125 c 2,48,-1
 234 125 l 2,49,50
 217 125 217 125 197.5 136 c 128,-1,51
 178 147 178 147 161 164 c 128,-1,52
 144 181 144 181 133 200.5 c 128,-1,53
 122 220 122 220 122 237 c 2,54,-1
 122 432 l 2,55,56
 122 460 122 460 138.5 484 c 128,-1,57
 155 508 155 508 174.5 531 c 128,-1,58
 194 554 194 554 210.5 577.5 c 128,-1,59
 227 601 227 601 227 628 c 0,60,61
 227 647 227 647 213 659 c 128,-1,62
 199 671 199 671 182 671 c 0,0,1
EndSplineSet
Validated: 9
EndChar

StartChar: V
Encoding: 86 86 53
Width: 685
Flags: W
LayerCount: 2
Fore
SplineSet
290 34 m 0,0,1
 303 22 303 22 314.5 20.5 c 128,-1,2
 326 19 326 19 342 19 c 0,3,4
 360 19 360 19 390.5 37 c 128,-1,5
 421 55 421 55 452.5 80 c 128,-1,6
 484 105 484 105 510.5 131.5 c 128,-1,7
 537 158 537 158 548 174 c 0,8,9
 557 187 557 187 568 207 c 128,-1,10
 579 227 579 227 589 249 c 128,-1,11
 599 271 599 271 607 293.5 c 128,-1,12
 615 316 615 316 618 335 c 0,13,14
 620 350 620 350 621 362 c 128,-1,15
 622 374 622 374 623.5 385 c 128,-1,16
 625 396 625 396 626.5 407 c 128,-1,17
 628 418 628 418 632 432 c 0,18,19
 638 454 638 454 645.5 474 c 128,-1,20
 653 494 653 494 659.5 513.5 c 128,-1,21
 666 533 666 533 670.5 553.5 c 128,-1,22
 675 574 675 574 675 597 c 0,23,24
 675 601 675 601 674.5 615.5 c 128,-1,25
 674 630 674 630 674 635 c 0,26,27
 669 652 669 652 653.5 664.5 c 128,-1,28
 638 677 638 677 621 677 c 0,29,30
 596 677 596 677 584 659 c 128,-1,31
 572 641 572 641 567 617 c 128,-1,32
 562 593 562 593 560.5 568 c 128,-1,33
 559 543 559 543 555 530 c 128,-1,34
 551 517 551 517 540 484.5 c 128,-1,35
 529 452 529 452 517 415.5 c 128,-1,36
 505 379 505 379 493.5 346 c 128,-1,37
 482 313 482 313 478 300 c 0,38,39
 470 277 470 277 458.5 251 c 128,-1,40
 447 225 447 225 430.5 203 c 128,-1,41
 414 181 414 181 392 166.5 c 128,-1,42
 370 152 370 152 342 152 c 0,43,44
 319 152 319 152 300 162.5 c 128,-1,45
 281 173 281 173 266 189.5 c 128,-1,46
 251 206 251 206 239.5 226 c 128,-1,47
 228 246 228 246 220 265 c 0,48,49
 216 275 216 275 209 296 c 128,-1,50
 202 317 202 317 193 344 c 128,-1,51
 184 371 184 371 174 400.5 c 128,-1,52
 164 430 164 430 155 457 c 128,-1,53
 146 484 146 484 139 505.5 c 128,-1,54
 132 527 132 527 129 537 c 0,55,56
 124 552 124 552 122.5 576 c 128,-1,57
 121 600 121 600 116.5 622.5 c 128,-1,58
 112 645 112 645 100.5 661 c 128,-1,59
 89 677 89 677 62 677 c 0,60,61
 45 677 45 677 30 664.5 c 128,-1,62
 15 652 15 652 10 635 c 0,63,64
 10 630 10 630 9.5 615.5 c 128,-1,65
 9 601 9 601 9 597 c 0,66,67
 9 573 9 573 12.5 553.5 c 128,-1,68
 16 534 16 534 22 515.5 c 128,-1,69
 28 497 28 497 36 477 c 128,-1,70
 44 457 44 457 52 432 c 0,71,72
 56 419 56 419 58 408 c 128,-1,73
 60 397 60 397 61 386.5 c 128,-1,74
 62 376 62 376 63 363.5 c 128,-1,75
 64 351 64 351 66 335 c 0,76,77
 67 330 67 330 69.5 319.5 c 128,-1,78
 72 309 72 309 73 307 c 0,79,80
 82 286 82 286 92 263.5 c 128,-1,81
 102 241 102 241 113.5 218.5 c 128,-1,82
 125 196 125 196 139 175.5 c 128,-1,83
 153 155 153 155 171 139 c 0,84,85
 177 133 177 133 194 118 c 128,-1,86
 211 103 211 103 230 86.5 c 128,-1,87
 249 70 249 70 266 55 c 128,-1,88
 283 40 283 40 290 34 c 0,0,1
EndSplineSet
Validated: 9
EndChar

StartChar: W
Encoding: 87 87 54
Width: 685
Flags: W
LayerCount: 2
Fore
SplineSet
178 677 m 0,0,1
 167 677 167 677 156 671.5 c 128,-1,2
 145 666 145 666 136 657.5 c 128,-1,3
 127 649 127 649 119.5 639.5 c 128,-1,4
 112 630 112 630 108 621 c 0,5,6
 102 609 102 609 91.5 589 c 128,-1,7
 81 569 81 569 71 548.5 c 128,-1,8
 61 528 61 528 53.5 512.5 c 128,-1,9
 46 497 46 497 45 495 c 0,10,11
 41 485 41 485 35 464.5 c 128,-1,12
 29 444 29 444 23.5 423 c 128,-1,13
 18 402 18 402 14 384.5 c 128,-1,14
 10 367 10 367 10 362 c 2,15,-1
 10 160 l 2,16,17
 10 126 10 126 28 98.5 c 128,-1,18
 46 71 46 71 73.5 52 c 128,-1,19
 101 33 101 33 134 22.5 c 128,-1,20
 167 12 167 12 196 12 c 0,21,22
 218 12 218 12 236.5 20 c 128,-1,23
 255 28 255 28 272 37.5 c 128,-1,24
 289 47 289 47 306.5 55 c 128,-1,25
 324 63 324 63 346 63 c 256,26,27
 368 63 368 63 385.5 55 c 128,-1,28
 403 47 403 47 420.5 37.5 c 128,-1,29
 438 28 438 28 456 20 c 128,-1,30
 474 12 474 12 497 12 c 0,31,32
 532 12 532 12 561.5 24 c 128,-1,33
 591 36 591 36 613.5 57 c 128,-1,34
 636 78 636 78 651.5 106 c 128,-1,35
 667 134 667 134 674 167 c 0,36,37
 674 172 674 172 674.5 185.5 c 128,-1,38
 675 199 675 199 675 214 c 256,39,40
 675 229 675 229 675.5 242.5 c 128,-1,41
 676 256 676 256 676 261 c 0,42,43
 676 270 676 270 675.5 285.5 c 128,-1,44
 675 301 675 301 675 316 c 256,45,46
 675 331 675 331 674.5 342.5 c 128,-1,47
 674 354 674 354 674 355 c 0,48,49
 674 357 674 357 671.5 369.5 c 128,-1,50
 669 382 669 382 665.5 397.5 c 128,-1,51
 662 413 662 413 658.5 428.5 c 128,-1,52
 655 444 655 444 653 453 c 0,53,54
 647 477 647 477 634.5 515.5 c 128,-1,55
 622 554 622 554 603 590 c 128,-1,56
 584 626 584 626 560 652 c 128,-1,57
 536 678 536 678 506 678 c 0,58,59
 489 678 489 678 476.5 668.5 c 128,-1,60
 464 659 464 659 464 639 c 0,61,62
 464 607 464 607 479.5 578.5 c 128,-1,63
 495 550 495 550 513 522.5 c 128,-1,64
 531 495 531 495 546.5 466 c 128,-1,65
 562 437 562 437 562 404 c 2,66,-1
 562 174 l 2,67,68
 562 162 562 162 555 151.5 c 128,-1,69
 548 141 548 141 537.5 133.5 c 128,-1,70
 527 126 527 126 514.5 122 c 128,-1,71
 502 118 502 118 492 118 c 0,72,73
 467 118 467 118 449.5 132 c 128,-1,74
 432 146 432 146 416 163.5 c 128,-1,75
 400 181 400 181 383 195 c 128,-1,76
 366 209 366 209 342 209 c 256,77,78
 318 209 318 209 300.5 195.5 c 128,-1,79
 283 182 283 182 266.5 166.5 c 128,-1,80
 250 151 250 151 231 137.5 c 128,-1,81
 212 124 212 124 187 124 c 0,82,83
 178 124 178 124 166.5 127.5 c 128,-1,84
 155 131 155 131 145 137 c 128,-1,85
 135 143 135 143 128.5 152.5 c 128,-1,86
 122 162 122 162 122 174 c 2,87,-1
 122 397 l 2,88,89
 122 431 122 431 137.5 461 c 128,-1,90
 153 491 153 491 171 519.5 c 128,-1,91
 189 548 189 548 204.5 577.5 c 128,-1,92
 220 607 220 607 220 640 c 0,93,94
 220 654 220 654 206 665.5 c 128,-1,95
 192 677 192 677 178 677 c 0,0,1
EndSplineSet
Validated: 9
EndChar

StartChar: X
Encoding: 88 88 55
Width: 678
Flags: W
LayerCount: 2
Fore
SplineSet
311 251 m 0,0,1
 328 251 328 251 348 243.5 c 128,-1,2
 368 236 368 236 380 223 c 2,3,-1
 569 34 l 2,4,5
 580 23 580 23 590.5 21 c 128,-1,6
 601 19 601 19 614 19 c 0,7,8
 634 19 634 19 651 31 c 128,-1,9
 668 43 668 43 668 66 c 0,10,11
 668 77 668 77 665 86 c 128,-1,12
 662 95 662 95 653 104 c 2,13,-1
 415 342 l 2,14,15
 407 350 407 350 407.5 362 c 128,-1,16
 408 374 408 374 408 383 c 0,17,18
 408 409 408 409 421.5 433 c 128,-1,19
 435 457 435 457 455 477.5 c 128,-1,20
 475 498 475 498 498 515 c 128,-1,21
 521 532 521 532 541 544 c 0,22,23
 554 552 554 552 575.5 557 c 128,-1,24
 597 562 597 562 617.5 569 c 128,-1,25
 638 576 638 576 652.5 588.5 c 128,-1,26
 667 601 667 601 667 625 c 0,27,28
 667 646 667 646 650 661.5 c 128,-1,29
 633 677 633 677 611 677 c 0,30,31
 581 677 581 677 552.5 664 c 128,-1,32
 524 651 524 651 497 631.5 c 128,-1,33
 470 612 470 612 444 589.5 c 128,-1,34
 418 567 418 567 393 547.5 c 128,-1,35
 368 528 368 528 343.5 515 c 128,-1,36
 319 502 319 502 295 502 c 0,37,38
 269 502 269 502 247.5 515 c 128,-1,39
 226 528 226 528 207 547.5 c 128,-1,40
 188 567 188 567 170.5 590 c 128,-1,41
 153 613 153 613 135 632.5 c 128,-1,42
 117 652 117 652 97 665 c 128,-1,43
 77 678 77 678 53 678 c 0,44,45
 34 678 34 678 21.5 668 c 128,-1,46
 9 658 9 658 9 638 c 0,47,48
 9 627 9 627 12 618 c 128,-1,49
 15 609 15 609 24 600 c 2,50,-1
 185 446 l 2,51,52
 204 428 204 428 208.5 413 c 128,-1,53
 213 398 213 398 213 373 c 0,54,55
 213 363 213 363 213.5 349.5 c 128,-1,56
 214 336 214 336 206 328 c 2,57,-1
 24 139 l 2,58,59
 15 129 15 129 12 113.5 c 128,-1,60
 9 98 9 98 9 86 c 0,61,62
 9 59 9 59 27 42.5 c 128,-1,63
 45 26 45 26 72 26 c 0,64,65
 89 26 89 26 104 42.5 c 128,-1,66
 119 59 119 59 134 84 c 128,-1,67
 149 109 149 109 165.5 138.5 c 128,-1,68
 182 168 182 168 202.5 193 c 128,-1,69
 223 218 223 218 249.5 234.5 c 128,-1,70
 276 251 276 251 311 251 c 0,0,1
EndSplineSet
Validated: 9
EndChar

StartChar: Y
Encoding: 89 89 56
Width: 685
Flags: W
LayerCount: 2
Fore
SplineSet
62 677 m 0,0,1
 55 677 55 677 46 673.5 c 128,-1,2
 37 670 37 670 29 664 c 128,-1,3
 21 658 21 658 15.5 650.5 c 128,-1,4
 10 643 10 643 10 635 c 2,5,-1
 10 502 l 2,6,7
 10 500 10 500 17 477 c 128,-1,8
 24 454 24 454 34 423 c 128,-1,9
 44 392 44 392 55 359.5 c 128,-1,10
 66 327 66 327 73 307 c 0,11,12
 83 276 83 276 105.5 255.5 c 128,-1,13
 128 235 128 235 155 219.5 c 128,-1,14
 182 204 182 204 210.5 190.5 c 128,-1,15
 239 177 239 177 262 160 c 1,16,-1
 269 153 l 2,17,18
 279 138 279 138 281.5 115.5 c 128,-1,19
 284 93 284 93 289 72 c 128,-1,20
 294 51 294 51 305 35.5 c 128,-1,21
 316 20 316 20 342 20 c 0,22,23
 366 20 366 20 377 33 c 128,-1,24
 388 46 388 46 393 65 c 128,-1,25
 398 84 398 84 400 104.5 c 128,-1,26
 402 125 402 125 408 139 c 0,27,28
 417 161 417 161 441 175 c 128,-1,29
 465 189 465 189 493 201 c 128,-1,30
 521 213 521 213 548 227 c 128,-1,31
 575 241 575 241 590 265 c 0,32,33
 603 285 603 285 614.5 312.5 c 128,-1,34
 626 340 626 340 635.5 369 c 128,-1,35
 645 398 645 398 652.5 426 c 128,-1,36
 660 454 660 454 667 474 c 0,37,38
 671 487 671 487 673 497.5 c 128,-1,39
 675 508 675 508 675.5 518 c 128,-1,40
 676 528 676 528 675.5 540 c 128,-1,41
 675 552 675 552 675 569 c 0,42,43
 675 573 675 573 675 582 c 256,44,45
 675 591 675 591 674.5 601.5 c 128,-1,46
 674 612 674 612 674 621 c 0,47,48
 674 631 674 631 674 635 c 0,49,50
 670 650 670 650 655.5 663.5 c 128,-1,51
 641 677 641 677 625 677 c 0,52,53
 602 677 602 677 589.5 661.5 c 128,-1,54
 577 646 577 646 569 628 c 0,55,56
 569 621 569 621 568 604 c 128,-1,57
 567 587 567 587 566 568.5 c 128,-1,58
 565 550 565 550 564 533 c 128,-1,59
 563 516 563 516 562 509 c 0,60,61
 560 489 560 489 547.5 448.5 c 128,-1,62
 535 408 535 408 514.5 367 c 128,-1,63
 494 326 494 326 468.5 295.5 c 128,-1,64
 443 265 443 265 415 265 c 2,65,-1
 269 265 l 2,66,67
 251 265 251 265 233.5 279 c 128,-1,68
 216 293 216 293 200 314.5 c 128,-1,69
 184 336 184 336 170.5 363 c 128,-1,70
 157 390 157 390 146.5 416.5 c 128,-1,71
 136 443 136 443 129.5 465.5 c 128,-1,72
 123 488 123 488 122 502 c 0,73,74
 121 509 121 509 120 528 c 128,-1,75
 119 547 119 547 118 568.5 c 128,-1,76
 117 590 117 590 116 608.5 c 128,-1,77
 115 627 115 627 115 635 c 0,78,79
 110 652 110 652 94.5 664.5 c 128,-1,80
 79 677 79 677 62 677 c 0,0,1
EndSplineSet
Validated: 9
EndChar

StartChar: Z
Encoding: 90 90 57
Width: 685
Flags: W
LayerCount: 2
Fore
SplineSet
10 181 m 0,0,1
 10 153 10 153 22.5 123.5 c 128,-1,2
 35 94 35 94 56.5 69.5 c 128,-1,3
 78 45 78 45 106 29 c 128,-1,4
 134 13 134 13 164 13 c 2,5,-1
 520 13 l 2,6,7
 536 13 536 13 562.5 22.5 c 128,-1,8
 589 32 589 32 613.5 47 c 128,-1,9
 638 62 638 62 656 80.5 c 128,-1,10
 674 99 674 99 674 118 c 0,11,12
 674 141 674 141 657 157.5 c 128,-1,13
 640 174 640 174 617 174 c 0,14,15
 602 174 602 174 588.5 166.5 c 128,-1,16
 575 159 575 159 562 149.5 c 128,-1,17
 549 140 549 140 535.5 132.5 c 128,-1,18
 522 125 522 125 506 125 c 2,19,-1
 192 125 l 2,20,21
 167 125 167 125 154.5 144 c 128,-1,22
 142 163 142 163 142 184 c 0,23,24
 142 218 142 218 158 240.5 c 128,-1,25
 174 263 174 263 206 279 c 0,26,27
 212 282 212 282 236.5 293.5 c 128,-1,28
 261 305 261 305 289.5 317.5 c 128,-1,29
 318 330 318 330 342.5 341 c 128,-1,30
 367 352 367 352 373 355 c 0,31,32
 438 387 438 387 503.5 417 c 128,-1,33
 569 447 569 447 632 481 c 1,34,35
 650 497 650 497 659 508 c 128,-1,36
 668 519 668 519 668 542 c 0,37,38
 668 564 668 564 654.5 587.5 c 128,-1,39
 641 611 641 611 620 631 c 128,-1,40
 599 651 599 651 574 664 c 128,-1,41
 549 677 549 677 527 677 c 2,42,-1
 220 677 l 2,43,44
 218 677 218 677 207.5 674.5 c 128,-1,45
 197 672 197 672 192 670 c 0,46,47
 183 667 183 667 163.5 661 c 128,-1,48
 144 655 144 655 124 648 c 128,-1,49
 104 641 104 641 87 635.5 c 128,-1,50
 70 630 70 630 66 628 c 0,51,52
 45 620 45 620 27.5 605 c 128,-1,53
 10 590 10 590 10 565 c 0,54,55
 10 539 10 539 26.5 527.5 c 128,-1,56
 43 516 43 516 66 516 c 0,57,58
 87 516 87 516 107 523.5 c 128,-1,59
 127 531 127 531 146.5 540 c 128,-1,60
 166 549 166 549 185.5 556.5 c 128,-1,61
 205 564 205 564 227 565 c 2,62,-1
 408 572 l 2,63,64
 431 573 431 573 448 565 c 128,-1,65
 465 557 465 557 465 534 c 256,66,67
 465 511 465 511 445.5 493 c 128,-1,68
 426 475 426 475 395.5 461 c 128,-1,69
 365 447 365 447 327.5 435.5 c 128,-1,70
 290 424 290 424 254 412.5 c 128,-1,71
 218 401 218 401 188 389 c 128,-1,72
 158 377 158 377 143 362 c 0,73,74
 137 356 137 356 122 341.5 c 128,-1,75
 107 327 107 327 90 310.5 c 128,-1,76
 73 294 73 294 58.5 279 c 128,-1,77
 44 264 44 264 38 258 c 0,78,79
 24 242 24 242 17 221.5 c 128,-1,80
 10 201 10 201 10 181 c 0,0,1
EndSplineSet
Validated: 41
EndChar

StartChar: bracketleft
Encoding: 91 91 58
Width: 358
Flags: W
LayerCount: 2
Fore
SplineSet
32 55 m 0,0,1
 27 61 27 61 24 77.5 c 128,-1,2
 21 94 21 94 19 113 c 128,-1,3
 17 132 17 132 16 149 c 128,-1,4
 15 166 15 166 15 172 c 2,5,-1
 15 493 l 2,6,7
 15 542 15 542 14.5 576.5 c 128,-1,8
 14 611 14 611 24.5 633 c 128,-1,9
 35 655 35 655 63.5 665 c 128,-1,10
 92 675 92 675 150 675 c 2,11,-1
 287 675 l 2,12,13
 297 675 297 675 307 670.5 c 128,-1,14
 317 666 317 666 325.5 658.5 c 128,-1,15
 334 651 334 651 339 642 c 128,-1,16
 344 633 344 633 344 623 c 0,17,18
 344 599 344 599 325.5 587 c 128,-1,19
 307 575 307 575 287 570 c 1,20,21
 269 571 269 571 240.5 573.5 c 128,-1,22
 212 576 212 576 185 571.5 c 128,-1,23
 158 567 158 567 138.5 553 c 128,-1,24
 119 539 119 539 119 507 c 2,25,-1
 119 179 l 2,26,27
 119 174 119 174 121.5 164.5 c 128,-1,28
 124 155 124 155 128.5 144.5 c 128,-1,29
 133 134 133 134 139.5 126.5 c 128,-1,30
 146 119 146 119 154 119 c 2,31,-1
 303 119 l 2,32,33
 312 119 312 119 320 113.5 c 128,-1,34
 328 108 328 108 334 100.5 c 128,-1,35
 340 93 340 93 343 83.5 c 128,-1,36
 346 74 346 74 346 67 c 0,37,38
 346 46 346 46 329 28.5 c 128,-1,39
 312 11 312 11 289 11 c 2,40,-1
 81 10 l 2,41,42
 69 10 69 10 57.5 23 c 128,-1,43
 46 36 46 36 32 55 c 0,0,1
EndSplineSet
Validated: 33
EndChar

StartChar: backslash
Encoding: 92 92 59
Width: 467
Flags: W
LayerCount: 2
Fore
SplineSet
425 12 m 0,0,1
 417 7 417 7 406 5 c 128,-1,2
 395 3 395 3 383.5 5.5 c 128,-1,3
 372 8 372 8 361 14.5 c 128,-1,4
 350 21 350 21 343 33 c 2,5,-1
 19 602 l 2,6,7
 12 614 12 614 13 626.5 c 128,-1,8
 14 639 14 639 19.5 650.5 c 128,-1,9
 25 662 25 662 33 671.5 c 128,-1,10
 41 681 41 681 49 686 c 0,11,12
 65 694 65 694 86.5 691.5 c 128,-1,13
 108 689 108 689 120 668 c 2,14,-1
 445 100 l 2,15,16
 459 75 459 75 452.5 50 c 128,-1,17
 446 25 446 25 425 12 c 0,0,1
EndSplineSet
Validated: 33
EndChar

StartChar: bracketright
Encoding: 93 93 60
Width: 358
Flags: W
LayerCount: 2
Fore
SplineSet
327 631 m 0,0,1
 331 625 331 625 334.5 608.5 c 128,-1,2
 338 592 338 592 340 573 c 128,-1,3
 342 554 342 554 343 537 c 128,-1,4
 344 520 344 520 344 514 c 2,5,-1
 344 193 l 2,6,7
 344 144 344 144 344.5 109.5 c 128,-1,8
 345 75 345 75 334.5 53 c 128,-1,9
 324 31 324 31 295.5 21 c 128,-1,10
 267 11 267 11 209 11 c 2,11,-1
 72 11 l 2,12,13
 62 11 62 11 52 15.5 c 128,-1,14
 42 20 42 20 33.5 27.5 c 128,-1,15
 25 35 25 35 20 44 c 128,-1,16
 15 53 15 53 15 63 c 0,17,18
 15 87 15 87 33.5 99 c 128,-1,19
 52 111 52 111 72 116 c 1,20,21
 90 115 90 115 118.5 112.5 c 128,-1,22
 147 110 147 110 174 114.5 c 128,-1,23
 201 119 201 119 220.5 133 c 128,-1,24
 240 147 240 147 240 179 c 2,25,-1
 240 507 l 2,26,27
 240 511 240 511 237.5 521 c 128,-1,28
 235 531 235 531 230.5 541.5 c 128,-1,29
 226 552 226 552 219.5 559.5 c 128,-1,30
 213 567 213 567 205 567 c 2,31,-1
 56 567 l 2,32,33
 47 567 47 567 39 572.5 c 128,-1,34
 31 578 31 578 25 585.5 c 128,-1,35
 19 593 19 593 16 602 c 128,-1,36
 13 611 13 611 13 619 c 0,37,38
 13 640 13 640 30 657.5 c 128,-1,39
 47 675 47 675 70 675 c 2,40,-1
 278 676 l 2,41,42
 290 676 290 676 301.5 663 c 128,-1,43
 313 650 313 650 327 631 c 0,0,1
EndSplineSet
Validated: 33
EndChar

StartChar: asciicircum
Encoding: 94 94 61
Width: 547
Flags: W
LayerCount: 2
Fore
SplineSet
14 419 m 0,0,1
 14 430 14 430 17 438.5 c 128,-1,2
 20 447 20 447 28 458 c 0,3,4
 33 464 33 464 47 480 c 128,-1,5
 61 496 61 496 76.5 514 c 128,-1,6
 92 532 92 532 106 548.5 c 128,-1,7
 120 565 120 565 125 572 c 0,8,9
 136 585 136 585 147.5 600.5 c 128,-1,10
 159 616 159 616 169 629 c 0,11,12
 174 637 174 637 185.5 648 c 128,-1,13
 197 659 197 659 206 665.5 c 128,-1,14
 215 672 215 672 216 673 c 0,15,16
 241 683 241 683 263 682 c 128,-1,17
 285 681 285 681 300.5 675.5 c 128,-1,18
 316 670 316 670 325 663.5 c 128,-1,19
 334 657 334 657 334 657 c 2,20,21
 335 656 335 656 342 652.5 c 128,-1,22
 349 649 349 649 359.5 642 c 128,-1,23
 370 635 370 635 376 628 c 2,24,-1
 517 472 l 2,25,26
 537 453 537 453 537 422 c 0,27,28
 537 402 537 402 524 390.5 c 128,-1,29
 511 379 511 379 496 379 c 0,30,31
 479 379 479 379 458.5 389.5 c 128,-1,32
 438 400 438 400 426 414 c 2,33,-1
 321 537 l 2,34,35
 308 551 308 551 296 554.5 c 128,-1,36
 284 558 284 558 268 558 c 0,37,38
 245 558 245 558 228 546 c 128,-1,39
 211 534 211 534 193 514 c 0,40,41
 187 507 187 507 171.5 490 c 128,-1,42
 156 473 156 473 139.5 453.5 c 128,-1,43
 123 434 123 434 108.5 417 c 128,-1,44
 94 400 94 400 88 393 c 0,45,46
 80 387 80 387 71 383 c 128,-1,47
 62 379 62 379 52 379 c 0,48,49
 39 379 39 379 26.5 390.5 c 128,-1,50
 14 402 14 402 14 419 c 0,0,1
EndSplineSet
Validated: 33
EndChar

StartChar: underscore
Encoding: 95 95 62
Width: 685
Flags: W
LayerCount: 2
Fore
SplineSet
9 59 m 0,0,1
 9 50 9 50 12.5 39.5 c 128,-1,2
 16 29 16 29 22.5 20 c 128,-1,3
 29 11 29 11 38 5.5 c 128,-1,4
 47 0 47 0 59 0 c 2,5,-1
 625 0 l 2,6,7
 636 0 636 0 645.5 7 c 128,-1,8
 655 14 655 14 661.5 24 c 128,-1,9
 668 34 668 34 671.5 46 c 128,-1,10
 675 58 675 58 675 67 c 0,11,12
 675 84 675 84 664 101.5 c 128,-1,13
 653 119 653 119 632 119 c 2,14,-1
 66 119 l 2,15,16
 41 119 41 119 25 100.5 c 128,-1,17
 9 82 9 82 9 59 c 0,0,1
EndSplineSet
Validated: 9
EndChar

StartChar: grave
Encoding: 96 96 63
Width: 140
Flags: W
LayerCount: 2
Fore
SplineSet
97 508 m 0,0,1
 89 505 89 505 83 505 c 256,2,3
 77 505 77 505 72 507.5 c 128,-1,4
 67 510 67 510 62 515 c 128,-1,5
 57 520 57 520 50 527 c 2,6,-1
 31 573 l 2,7,8
 26 584 26 584 20 599.5 c 128,-1,9
 14 615 14 615 11.5 630.5 c 128,-1,10
 9 646 9 646 14 659.5 c 128,-1,11
 19 673 19 673 37 680 c 0,12,13
 58 690 58 690 80.5 680 c 128,-1,14
 103 670 103 670 112 649 c 0,15,16
 117 637 117 637 121 616 c 128,-1,17
 125 595 125 595 124.5 573.5 c 128,-1,18
 124 552 124 552 118 533.5 c 128,-1,19
 112 515 112 515 97 508 c 0,0,1
EndSplineSet
Validated: 33
EndChar

StartChar: a
Encoding: 97 97 64
Width: 685
Flags: W
LayerCount: 2
Fore
SplineSet
31 160 m 0,0,1
 36 154 36 154 50 139 c 128,-1,2
 64 124 64 124 79.5 107 c 128,-1,3
 95 90 95 90 109 75.5 c 128,-1,4
 123 61 123 61 129 55 c 0,5,6
 136 48 136 48 146 40.5 c 128,-1,7
 156 33 156 33 167 27 c 128,-1,8
 178 21 178 21 190 17 c 128,-1,9
 202 13 202 13 213 13 c 2,10,-1
 359 13 l 2,11,12
 384 13 384 13 402.5 26 c 128,-1,13
 421 39 421 39 438 55 c 128,-1,14
 455 71 455 71 472.5 84 c 128,-1,15
 490 97 490 97 514 97 c 0,16,17
 535 97 535 97 546 85 c 128,-1,18
 557 73 557 73 567 58 c 128,-1,19
 577 43 577 43 589 31 c 128,-1,20
 601 19 601 19 622 19 c 0,21,22
 649 19 649 19 662 35.5 c 128,-1,23
 675 52 675 52 675 78 c 0,24,25
 675 94 675 94 669.5 108.5 c 128,-1,26
 664 123 664 123 657 137 c 128,-1,27
 650 151 650 151 643 165.5 c 128,-1,28
 636 180 636 180 632 195 c 0,29,30
 627 276 627 276 617 344 c 128,-1,31
 607 412 607 412 578 461.5 c 128,-1,32
 549 511 549 511 493.5 538.5 c 128,-1,33
 438 566 438 566 342 566 c 0,34,35
 277 566 277 566 217 544 c 128,-1,36
 157 522 157 522 111 481.5 c 128,-1,37
 65 441 65 441 37 385 c 128,-1,38
 9 329 9 329 9 261 c 0,39,40
 9 232 9 232 12 208.5 c 128,-1,41
 15 185 15 185 31 160 c 0,0,1
121 275 m 0,42,43
 121 301 121 301 131 332 c 128,-1,44
 141 363 141 363 159 390 c 128,-1,45
 177 417 177 417 201.5 435 c 128,-1,46
 226 453 226 453 255 453 c 2,47,-1
 429 453 l 2,48,49
 459 453 459 453 476.5 435 c 128,-1,50
 494 417 494 417 502 391 c 128,-1,51
 510 365 510 365 512 336.5 c 128,-1,52
 514 308 514 308 514 288 c 0,53,54
 514 266 514 266 500.5 237.5 c 128,-1,55
 487 209 487 209 466.5 184 c 128,-1,56
 446 159 446 159 421 142 c 128,-1,57
 396 125 396 125 373 125 c 2,58,-1
 234 125 l 2,59,60
 207 125 207 125 186 140.5 c 128,-1,61
 165 156 165 156 150.5 178.5 c 128,-1,62
 136 201 136 201 128.5 227 c 128,-1,63
 121 253 121 253 121 275 c 0,42,43
EndSplineSet
Validated: 9
EndChar

StartChar: b
Encoding: 98 98 65
Width: 629
Flags: W
LayerCount: 2
Fore
SplineSet
164 42 m 0,0,1
 187 42 187 42 208.5 37.5 c 128,-1,2
 230 33 230 33 251 27 c 128,-1,3
 272 21 272 21 293.5 16.5 c 128,-1,4
 315 12 315 12 338 12 c 0,5,6
 384 12 384 12 420.5 25 c 128,-1,7
 457 38 457 38 487.5 60.5 c 128,-1,8
 518 83 518 83 544.5 114 c 128,-1,9
 571 145 571 145 597 181 c 0,10,11
 602 188 602 188 610 200 c 128,-1,12
 618 212 618 212 618 223 c 2,13,-1
 618 348 l 2,14,15
 618 375 618 375 597.5 406 c 128,-1,16
 577 437 577 437 548 465.5 c 128,-1,17
 519 494 519 494 488 517 c 128,-1,18
 457 540 457 540 436 551 c 0,19,20
 423 558 423 558 413 561 c 128,-1,21
 403 564 403 564 392.5 565 c 128,-1,22
 382 566 382 566 371 566 c 256,23,24
 360 566 360 566 346 566 c 0,25,26
 328 566 328 566 317 566 c 256,27,28
 306 566 306 566 297.5 565.5 c 128,-1,29
 289 565 289 565 279.5 563.5 c 128,-1,30
 270 562 270 562 255 558 c 0,31,32
 231 552 231 552 210.5 540.5 c 128,-1,33
 190 529 190 529 165 529 c 0,34,35
 144 529 144 529 134.5 539.5 c 128,-1,36
 125 550 125 550 121 566 c 128,-1,37
 117 582 117 582 115.5 600 c 128,-1,38
 114 618 114 618 109 634 c 128,-1,39
 104 650 104 650 92.5 660.5 c 128,-1,40
 81 671 81 671 57 671 c 0,41,42
 43 671 43 671 26.5 661.5 c 128,-1,43
 10 652 10 652 10 635 c 2,44,-1
 10 55 l 2,45,46
 10 46 10 46 16 39 c 128,-1,47
 22 32 22 32 30.5 27.5 c 128,-1,48
 39 23 39 23 48.5 21 c 128,-1,49
 58 19 58 19 65 19 c 0,50,51
 78 19 78 19 90 22.5 c 128,-1,52
 102 26 102 26 114 30.5 c 128,-1,53
 126 35 126 35 138 38.5 c 128,-1,54
 150 42 150 42 164 42 c 0,0,1
114 246 m 0,55,56
 114 292 114 292 118.5 317 c 128,-1,57
 123 342 123 342 136 358 c 128,-1,58
 149 374 149 374 172.5 386 c 128,-1,59
 196 398 196 398 234 418 c 0,60,61
 260 432 260 432 283.5 446.5 c 128,-1,62
 307 461 307 461 338 461 c 0,63,64
 361 461 361 461 390 453 c 128,-1,65
 419 445 419 445 445 430 c 128,-1,66
 471 415 471 415 488.5 392.5 c 128,-1,67
 506 370 506 370 506 341 c 2,68,-1
 506 237 l 2,69,70
 506 217 506 217 495 199 c 128,-1,71
 484 181 484 181 467 166 c 128,-1,72
 450 151 450 151 430.5 140 c 128,-1,73
 411 129 411 129 394 125 c 0,74,75
 391 125 391 125 383 125 c 256,76,77
 375 125 375 125 366 124.5 c 128,-1,78
 357 124 357 124 349 124 c 256,79,80
 341 124 341 124 338 124 c 0,81,82
 308 124 308 124 269 128.5 c 128,-1,83
 230 133 230 133 195.5 146 c 128,-1,84
 161 159 161 159 137.5 183 c 128,-1,85
 114 207 114 207 114 246 c 0,55,56
EndSplineSet
Validated: 9
EndChar

StartChar: c
Encoding: 99 99 66
Width: 678
Flags: W
LayerCount: 2
Fore
SplineSet
345 566 m 0,0,1
 320 566 320 566 285 560 c 128,-1,2
 250 554 250 554 213 542.5 c 128,-1,3
 176 531 176 531 139.5 513.5 c 128,-1,4
 103 496 103 496 74.5 473.5 c 128,-1,5
 46 451 46 451 28 423 c 128,-1,6
 10 395 10 395 10 362 c 2,7,-1
 10 223 l 2,8,9
 10 199 10 199 23.5 174.5 c 128,-1,10
 37 150 37 150 59.5 126.5 c 128,-1,11
 82 103 82 103 110.5 82.5 c 128,-1,12
 139 62 139 62 168.5 46.5 c 128,-1,13
 198 31 198 31 226.5 22 c 128,-1,14
 255 13 255 13 276 13 c 2,15,-1
 457 13 l 2,16,17
 490 13 490 13 527 27.5 c 128,-1,18
 564 42 564 42 595.5 66.5 c 128,-1,19
 627 91 627 91 647.5 123.5 c 128,-1,20
 668 156 668 156 668 192 c 0,21,22
 668 209 668 209 656 216.5 c 128,-1,23
 644 224 644 224 630 224 c 0,24,25
 602 224 602 224 578 208.5 c 128,-1,26
 554 193 554 193 530.5 174.5 c 128,-1,27
 507 156 507 156 482.5 140.5 c 128,-1,28
 458 125 458 125 429 125 c 2,29,-1
 248 125 l 2,30,31
 221 125 221 125 198 141.5 c 128,-1,32
 175 158 175 158 157.5 182.5 c 128,-1,33
 140 207 140 207 130.5 235.5 c 128,-1,34
 121 264 121 264 121 287 c 0,35,36
 121 311 121 311 132 340 c 128,-1,37
 143 369 143 369 161.5 394 c 128,-1,38
 180 419 180 419 204 436 c 128,-1,39
 228 453 228 453 255 453 c 2,40,-1
 450 453 l 2,41,42
 477 453 477 453 497 436.5 c 128,-1,43
 517 420 517 420 535.5 400 c 128,-1,44
 554 380 554 380 574.5 363.5 c 128,-1,45
 595 347 595 347 623 347 c 0,46,47
 638 347 638 347 652.5 358.5 c 128,-1,48
 667 370 667 370 667 387 c 0,49,50
 667 416 667 416 640 443.5 c 128,-1,51
 613 471 613 471 576.5 494.5 c 128,-1,52
 540 518 540 518 502.5 534.5 c 128,-1,53
 465 551 465 551 443 558 c 0,54,55
 417 566 417 566 395 566 c 0,56,57
 374 566 374 566 345 566 c 0,0,1
EndSplineSet
Validated: 9
EndChar

StartChar: d
Encoding: 100 100 67
Width: 629
Flags: W
LayerCount: 2
Fore
SplineSet
17 202 m 0,0,1
 43 163 43 163 70.5 128.5 c 128,-1,2
 98 94 98 94 131 68 c 128,-1,3
 164 42 164 42 203.5 27 c 128,-1,4
 243 12 243 12 293 12 c 0,5,6
 316 12 316 12 337 16.5 c 128,-1,7
 358 21 358 21 379 27 c 128,-1,8
 400 33 400 33 421 37.5 c 128,-1,9
 442 42 442 42 464 42 c 0,10,11
 478 42 478 42 491 38.5 c 128,-1,12
 504 35 504 35 517 30.5 c 128,-1,13
 530 26 530 26 542.5 22.5 c 128,-1,14
 555 19 555 19 569 19 c 0,15,16
 575 19 575 19 583.5 21.5 c 128,-1,17
 592 24 592 24 599.5 28.5 c 128,-1,18
 607 33 607 33 612.5 39.5 c 128,-1,19
 618 46 618 46 618 55 c 2,20,-1
 618 628 l 2,21,22
 618 640 618 640 612.5 648.5 c 128,-1,23
 607 657 607 657 598 662 c 128,-1,24
 589 667 589 667 579 669 c 128,-1,25
 569 671 569 671 560 671 c 0,26,27
 537 671 537 671 527.5 660.5 c 128,-1,28
 518 650 518 650 514.5 634.5 c 128,-1,29
 511 619 511 619 510.5 600.5 c 128,-1,30
 510 582 510 582 506 566.5 c 128,-1,31
 502 551 502 551 491 540.5 c 128,-1,32
 480 530 480 530 456 530 c 2,33,-1
 443 530 l 2,34,35
 441 531 441 531 434 534 c 128,-1,36
 427 537 427 537 418.5 540.5 c 128,-1,37
 410 544 410 544 403 547 c 128,-1,38
 396 550 396 550 394 551 c 0,39,40
 367 562 367 562 343 564 c 128,-1,41
 319 566 319 566 290 566 c 0,42,43
 244 566 244 566 199 549.5 c 128,-1,44
 154 533 154 533 115.5 503.5 c 128,-1,45
 77 474 77 474 49 434 c 128,-1,46
 21 394 21 394 10 348 c 0,47,48
 10 345 10 345 10 336 c 0,49,50
 10 328 10 328 9.5 318.5 c 128,-1,51
 9 309 9 309 9 300 c 0,52,53
 9 292 9 292 9 289 c 0,54,55
 9 273 9 273 9 246 c 0,56,57
 9 220 9 220 17 202 c 0,0,1
234 453 m 0,58,59
 237 453 237 453 245 453 c 0,60,61
 254 453 254 453 263.5 453.5 c 128,-1,62
 273 454 273 454 281 454 c 0,63,64
 290 454 290 454 293 454 c 0,65,66
 351 454 351 454 399 439.5 c 128,-1,67
 447 425 447 425 485 376 c 0,68,69
 486 375 486 375 489.5 368.5 c 128,-1,70
 493 362 493 362 496.5 354 c 128,-1,71
 500 346 500 346 503 338 c 128,-1,72
 506 330 506 330 506 327 c 2,73,-1
 506 209 l 2,74,75
 506 194 506 194 492 182 c 128,-1,76
 478 170 478 170 456.5 160 c 128,-1,77
 435 150 435 150 409 142 c 128,-1,78
 383 134 383 134 358 128.5 c 128,-1,79
 333 123 333 123 312.5 120.5 c 128,-1,80
 292 118 292 118 282 118 c 0,81,82
 261 118 261 118 233.5 128 c 128,-1,83
 206 138 206 138 181.5 155 c 128,-1,84
 157 172 157 172 139.5 193 c 128,-1,85
 122 214 122 214 122 237 c 2,86,-1
 122 341 l 2,87,88
 122 361 122 361 133 379 c 128,-1,89
 144 397 144 397 161 412 c 128,-1,90
 178 427 178 427 197.5 437.5 c 128,-1,91
 217 448 217 448 234 453 c 0,58,59
EndSplineSet
Validated: 9
EndChar

StartChar: e
Encoding: 101 101 68
Width: 685
Flags: W
LayerCount: 2
Fore
SplineSet
10 216 m 0,0,1
 20 172 20 172 53 135 c 128,-1,2
 86 98 86 98 130.5 70.5 c 128,-1,3
 175 43 175 43 224 27.5 c 128,-1,4
 273 12 273 12 314 12 c 0,5,6
 326 12 326 12 340.5 13.5 c 128,-1,7
 355 15 355 15 367 20 c 128,-1,8
 379 25 379 25 387.5 34.5 c 128,-1,9
 396 44 396 44 396 61 c 0,10,11
 396 87 396 87 380.5 98.5 c 128,-1,12
 365 110 365 110 344 115.5 c 128,-1,13
 323 121 323 121 300 123 c 128,-1,14
 277 125 277 125 262 132 c 0,15,16
 256 135 256 135 240 143 c 128,-1,17
 224 151 224 151 206 160 c 128,-1,18
 188 169 188 169 172 177 c 128,-1,19
 156 185 156 185 150 188 c 0,20,21
 135 199 135 199 131.5 210.5 c 128,-1,22
 128 222 128 222 128 240 c 0,23,24
 128 243 128 243 128.5 252.5 c 128,-1,25
 129 262 129 262 129 265 c 0,26,27
 140 280 140 280 152.5 283 c 128,-1,28
 165 286 165 286 183 286 c 0,29,30
 215 286 215 286 258 269.5 c 128,-1,31
 301 253 301 253 346 233.5 c 128,-1,32
 391 214 391 214 435 197.5 c 128,-1,33
 479 181 479 181 513 181 c 0,34,35
 544 181 544 181 573 196 c 128,-1,36
 602 211 602 211 624.5 235 c 128,-1,37
 647 259 647 259 660.5 289 c 128,-1,38
 674 319 674 319 674 349 c 0,39,40
 674 402 674 402 646.5 451 c 128,-1,41
 619 500 619 500 576 538 c 128,-1,42
 533 576 533 576 480 599 c 128,-1,43
 427 622 427 622 377 622 c 0,44,45
 360 622 360 622 337 622 c 256,46,47
 314 622 314 622 297 614 c 0,48,49
 288 609 288 609 265 597.5 c 128,-1,50
 242 586 242 586 216.5 572.5 c 128,-1,51
 191 559 191 559 168 547 c 128,-1,52
 145 535 145 535 136 530 c 0,53,54
 100 510 100 510 76 483.5 c 128,-1,55
 52 457 52 457 37 424.5 c 128,-1,56
 22 392 22 392 15.5 356 c 128,-1,57
 9 320 9 320 9 282 c 0,58,59
 9 278 9 278 9 268 c 0,60,61
 9 259 9 259 9.5 248.5 c 128,-1,62
 10 238 10 238 10 229 c 256,63,64
 10 220 10 220 10 216 c 0,0,1
212 422 m 0,65,66
 212 450 212 450 229 467.5 c 128,-1,67
 246 485 246 485 270 494.5 c 128,-1,68
 294 504 294 504 321.5 507 c 128,-1,69
 349 510 349 510 370 510 c 0,70,71
 398 510 398 510 432 502 c 128,-1,72
 466 494 466 494 494.5 477.5 c 128,-1,73
 523 461 523 461 542.5 435 c 128,-1,74
 562 409 562 409 562 373 c 0,75,76
 562 341 562 341 539.5 320 c 128,-1,77
 517 299 517 299 485 299 c 0,78,79
 459 299 459 299 431.5 312.5 c 128,-1,80
 404 326 404 326 380 335 c 0,81,82
 361 342 361 342 332.5 344.5 c 128,-1,83
 304 347 304 347 277 353.5 c 128,-1,84
 250 360 250 360 231 375 c 128,-1,85
 212 390 212 390 212 422 c 0,65,66
EndSplineSet
Validated: 9
EndChar

StartChar: f
Encoding: 102 102 69
Width: 671
Flags: W
LayerCount: 2
Fore
SplineSet
220 376 m 0,0,1
 220 367 220 367 221 345.5 c 128,-1,2
 222 324 222 324 223 299.5 c 128,-1,3
 224 275 224 275 225 253.5 c 128,-1,4
 226 232 226 232 227 223 c 0,5,6
 228 209 228 209 236 174.5 c 128,-1,7
 244 140 244 140 258 104 c 128,-1,8
 272 68 272 68 292.5 40.5 c 128,-1,9
 313 13 313 13 339 13 c 0,10,11
 354 13 354 13 367.5 26.5 c 128,-1,12
 381 40 381 40 381 55 c 0,13,14
 381 71 381 71 374.5 86.5 c 128,-1,15
 368 102 368 102 360 117.5 c 128,-1,16
 352 133 352 133 345.5 148.5 c 128,-1,17
 339 164 339 164 339 181 c 2,18,-1
 339 369 l 2,19,20
 339 390 339 390 356.5 407.5 c 128,-1,21
 374 425 374 425 394 425 c 2,22,-1
 625 425 l 2,23,24
 634 425 634 425 640.5 430.5 c 128,-1,25
 647 436 647 436 651.5 444 c 128,-1,26
 656 452 656 452 658.5 460.5 c 128,-1,27
 661 469 661 469 661 476 c 0,28,29
 661 492 661 492 648 504 c 128,-1,30
 635 516 635 516 618 516 c 2,31,-1
 506 516 l 2,32,33
 489 516 489 516 479.5 527 c 128,-1,34
 470 538 470 538 470 554 c 0,35,36
 470 571 470 571 479.5 578.5 c 128,-1,37
 489 586 489 586 503 589 c 128,-1,38
 517 592 517 592 533 592 c 0,39,40
 550 592 550 592 564 595 c 128,-1,41
 578 598 578 598 587.5 607 c 128,-1,42
 597 616 597 616 597 635 c 0,43,44
 597 649 597 649 586.5 661 c 128,-1,45
 576 673 576 673 562 677 c 0,46,47
 559 677 559 677 550 677 c 256,48,49
 541 677 541 677 531 677.5 c 128,-1,50
 521 678 521 678 512 678 c 256,51,52
 503 678 503 678 499 678 c 0,53,54
 467 678 467 678 434.5 675.5 c 128,-1,55
 402 673 402 673 373 656 c 0,56,57
 351 643 351 643 334.5 619.5 c 128,-1,58
 318 596 318 596 303 573 c 128,-1,59
 288 550 288 550 272 533 c 128,-1,60
 256 516 256 516 234 516 c 2,61,-1
 45 516 l 2,62,63
 28 516 28 516 18.5 500.5 c 128,-1,64
 9 485 9 485 9 471 c 256,65,66
 9 457 9 457 18.5 441 c 128,-1,67
 28 425 28 425 45 425 c 2,68,-1
 178 425 l 2,69,70
 185 425 185 425 192.5 420 c 128,-1,71
 200 415 200 415 206 407.5 c 128,-1,72
 212 400 212 400 216 391.5 c 128,-1,73
 220 383 220 383 220 376 c 0,0,1
EndSplineSet
Validated: 9
EndChar

StartChar: g
Encoding: 103 103 70
Width: 629
Flags: W
LayerCount: 2
Fore
SplineSet
407 65 m 0,0,1
 407 49 407 49 412 38.5 c 128,-1,2
 417 28 417 28 436 20 c 0,3,4
 440 20 440 20 452 19.5 c 128,-1,5
 464 19 464 19 468 19 c 0,6,7
 493 19 493 19 519.5 31 c 128,-1,8
 546 43 546 43 568 63 c 128,-1,9
 590 83 590 83 604 108 c 128,-1,10
 618 133 618 133 618 160 c 2,11,-1
 618 572 l 2,12,13
 618 585 618 585 609 596.5 c 128,-1,14
 600 608 600 608 590 614 c 1,15,16
 515 611 515 611 446.5 616.5 c 128,-1,17
 378 622 378 622 304 622 c 0,18,19
 298 622 298 622 284 622 c 256,20,21
 270 622 270 622 254.5 621.5 c 128,-1,22
 239 621 239 621 225 621 c 256,23,24
 211 621 211 621 206 621 c 0,25,26
 201 620 201 620 194 617.5 c 128,-1,27
 187 615 187 615 179.5 612 c 128,-1,28
 172 609 172 609 166 606 c 128,-1,29
 160 603 160 603 157 600 c 2,30,-1
 45 495 l 2,31,32
 33 484 33 484 26 468.5 c 128,-1,33
 19 453 19 453 15 436 c 128,-1,34
 11 419 11 419 10 401.5 c 128,-1,35
 9 384 9 384 9 369 c 0,36,37
 9 318 9 318 25.5 284 c 128,-1,38
 42 250 42 250 80 216 c 0,39,40
 102 195 102 195 120 178 c 128,-1,41
 138 161 138 161 157 149 c 128,-1,42
 176 137 176 137 198.5 130.5 c 128,-1,43
 221 124 221 124 251 124 c 256,44,45
 281 124 281 124 306.5 132.5 c 128,-1,46
 332 141 332 141 356 152.5 c 128,-1,47
 380 164 380 164 404.5 176 c 128,-1,48
 429 188 429 188 457 195 c 1,49,-1
 461 195 l 2,50,51
 482 195 482 195 487.5 186 c 128,-1,52
 493 177 493 177 493 160 c 0,53,54
 493 139 493 139 479.5 130 c 128,-1,55
 466 121 466 121 450 114.5 c 128,-1,56
 434 108 434 108 420.5 98 c 128,-1,57
 407 88 407 88 407 65 c 0,0,1
121 369 m 0,58,59
 121 391 121 391 128.5 415.5 c 128,-1,60
 136 440 136 440 150.5 461 c 128,-1,61
 165 482 165 482 186 495.5 c 128,-1,62
 207 509 207 509 234 509 c 2,63,-1
 429 509 l 2,64,65
 452 509 452 509 467 498.5 c 128,-1,66
 482 488 482 488 491 472 c 128,-1,67
 500 456 500 456 503.5 437 c 128,-1,68
 507 418 507 418 507 401 c 0,69,70
 507 376 507 376 504.5 358 c 128,-1,71
 502 340 502 340 485 321 c 0,72,73
 476 315 476 315 460.5 304.5 c 128,-1,74
 445 294 445 294 428 282.5 c 128,-1,75
 411 271 411 271 392.5 260.5 c 128,-1,76
 374 250 374 250 359 244 c 0,77,78
 356 242 356 242 348 239.5 c 128,-1,79
 340 237 340 237 338 237 c 2,80,-1
 234 237 l 2,81,82
 210 237 210 237 189 249.5 c 128,-1,83
 168 262 168 262 153 281.5 c 128,-1,84
 138 301 138 301 129.5 324.5 c 128,-1,85
 121 348 121 348 121 369 c 0,58,59
EndSplineSet
Validated: 41
EndChar

StartChar: h
Encoding: 104 104 71
Width: 685
Flags: W
LayerCount: 2
Fore
SplineSet
62 677 m 0,0,1
 55 677 55 677 46 673.5 c 128,-1,2
 37 670 37 670 29 664 c 128,-1,3
 21 658 21 658 15.5 650.5 c 128,-1,4
 10 643 10 643 10 635 c 2,5,-1
 10 48 l 2,6,7
 10 40 10 40 15.5 34 c 128,-1,8
 21 28 21 28 29 23 c 128,-1,9
 37 18 37 18 45 15.5 c 128,-1,10
 53 13 53 13 59 13 c 0,11,12
 66 13 66 13 76 16.5 c 128,-1,13
 86 20 86 20 95.5 26 c 128,-1,14
 105 32 105 32 111.5 39.5 c 128,-1,15
 118 47 118 47 118 55 c 2,16,-1
 118 321 l 2,17,18
 118 337 118 337 133 360 c 128,-1,19
 148 383 148 383 169.5 403.5 c 128,-1,20
 191 424 191 424 214.5 438.5 c 128,-1,21
 238 453 238 453 255 453 c 2,22,-1
 429 453 l 2,23,24
 464 453 464 453 489.5 432.5 c 128,-1,25
 515 412 515 412 531.5 382 c 128,-1,26
 548 352 548 352 555.5 318.5 c 128,-1,27
 563 285 563 285 563 258 c 0,28,29
 563 222 563 222 555 197.5 c 128,-1,30
 547 173 547 173 537.5 153 c 128,-1,31
 528 133 528 133 520 113 c 128,-1,32
 512 93 512 93 512 67 c 0,33,34
 512 43 512 43 527.5 31 c 128,-1,35
 543 19 543 19 566 19 c 0,36,37
 587 19 587 19 606.5 35 c 128,-1,38
 626 51 626 51 641 73.5 c 128,-1,39
 656 96 656 96 665 121.5 c 128,-1,40
 674 147 674 147 674 167 c 2,41,-1
 674 307 l 2,42,43
 674 336 674 336 653.5 380 c 128,-1,44
 633 424 633 424 601.5 465 c 128,-1,45
 570 506 570 506 533 535.5 c 128,-1,46
 496 565 496 565 464 565 c 2,47,-1
 276 565 l 1,48,49
 259 558 259 558 246.5 552.5 c 128,-1,50
 234 547 234 547 223 543.5 c 128,-1,51
 212 540 212 540 200.5 538.5 c 128,-1,52
 189 537 189 537 175 537 c 0,53,54
 152 537 152 537 141.5 547.5 c 128,-1,55
 131 558 131 558 126 573.5 c 128,-1,56
 121 589 121 589 118.5 607 c 128,-1,57
 116 625 116 625 111 640.5 c 128,-1,58
 106 656 106 656 95 666.5 c 128,-1,59
 84 677 84 677 62 677 c 0,0,1
EndSplineSet
Validated: 9
EndChar

StartChar: i
Encoding: 105 105 72
Width: 202
Flags: W
LayerCount: 2
Fore
SplineSet
87 55 m 0,0,1
 92 35 92 35 106 26.5 c 128,-1,2
 120 18 120 18 139 18 c 0,3,4
 144 18 144 18 153 18.5 c 128,-1,5
 162 19 162 19 163 20 c 0,6,7
 166 21 166 21 171 25 c 128,-1,8
 176 29 176 29 180.5 33.5 c 128,-1,9
 185 38 185 38 188 42 c 128,-1,10
 191 46 191 46 191 48 c 2,11,-1
 191 243 l 2,12,13
 189 248 189 248 184 262 c 128,-1,14
 179 276 179 276 173.5 291.5 c 128,-1,15
 168 307 168 307 163 320.5 c 128,-1,16
 158 334 158 334 156 340 c 0,17,18
 150 358 150 358 150 385 c 0,19,20
 150 413 150 413 146 438.5 c 128,-1,21
 142 464 142 464 129.5 482.5 c 128,-1,22
 117 501 117 501 86 501 c 0,23,24
 60 501 60 501 48 483 c 128,-1,25
 36 465 36 465 31 445 c 0,26,27
 31 442 31 442 31 434 c 0,28,29
 31 427 31 427 30.5 418.5 c 128,-1,30
 30 410 30 410 30 403 c 256,31,32
 30 396 30 396 30 393 c 0,33,34
 30 369 30 369 34 348 c 128,-1,35
 38 327 38 327 43.5 306.5 c 128,-1,36
 49 286 49 286 55 265.5 c 128,-1,37
 61 245 61 245 66 222 c 0,38,39
 70 203 70 203 73 180.5 c 128,-1,40
 76 158 76 158 78.5 135 c 128,-1,41
 81 112 81 112 83 91 c 128,-1,42
 85 70 85 70 87 55 c 0,0,1
9 639 m 0,43,44
 9 623 9 623 23.5 610 c 128,-1,45
 38 597 38 597 58 588 c 128,-1,46
 78 579 78 579 98.5 574.5 c 128,-1,47
 119 570 119 570 132 570 c 0,48,49
 155 570 155 570 173 586.5 c 128,-1,50
 191 603 191 603 191 626 c 0,51,52
 191 645 191 645 180.5 655 c 128,-1,53
 170 665 170 665 154.5 669.5 c 128,-1,54
 139 674 139 674 122.5 674.5 c 128,-1,55
 106 675 106 675 94 675 c 2,56,-1
 45 675 l 1,57,58
 27 667 27 667 18 662 c 128,-1,59
 9 657 9 657 9 639 c 0,43,44
EndSplineSet
Validated: 9
EndChar

StartChar: j
Encoding: 106 106 73
Width: 517
Flags: W
LayerCount: 2
Fore
SplineSet
10 120 m 0,0,1
 10 110 10 110 15.5 99.5 c 128,-1,2
 21 89 21 89 28.5 79.5 c 128,-1,3
 36 70 36 70 44.5 62 c 128,-1,4
 53 54 53 54 59 50 c 0,5,6
 69 42 69 42 87 29.5 c 128,-1,7
 105 17 105 17 123 4.5 c 128,-1,8
 141 -8 141 -8 155 -17 c 128,-1,9
 169 -26 169 -26 171 -27 c 2,10,-1
 213 -41 l 1,11,-1
 359 -41 l 2,12,13
 379 -41 379 -41 404.5 -26.5 c 128,-1,14
 430 -12 430 -12 452.5 9.5 c 128,-1,15
 475 31 475 31 490.5 55.5 c 128,-1,16
 506 80 506 80 506 99 c 2,17,-1
 506 301 l 2,18,19
 506 321 506 321 495 344 c 128,-1,20
 484 367 484 367 478 385 c 0,21,22
 472 404 472 404 465.5 426.5 c 128,-1,23
 459 449 459 449 449 467.5 c 128,-1,24
 439 486 439 486 422.5 498.5 c 128,-1,25
 406 511 406 511 380 511 c 0,26,27
 357 511 357 511 337 499 c 128,-1,28
 317 487 317 487 317 461 c 0,29,30
 317 442 317 442 325.5 427 c 128,-1,31
 334 412 334 412 345.5 397.5 c 128,-1,32
 357 383 357 383 369 368.5 c 128,-1,33
 381 354 381 354 387 336 c 0,34,35
 391 324 391 324 393 308 c 128,-1,36
 395 292 395 292 395.5 276.5 c 128,-1,37
 396 261 396 261 395.5 246 c 128,-1,38
 395 231 395 231 395 221 c 0,39,40
 395 216 395 216 395 205 c 256,41,42
 395 194 395 194 394.5 181 c 128,-1,43
 394 168 394 168 394 156 c 0,44,45
 394 145 394 145 394 141 c 0,46,47
 388 118 388 118 376.5 104 c 128,-1,48
 365 90 365 90 349 82.5 c 128,-1,49
 333 75 333 75 313 72.5 c 128,-1,50
 293 70 293 70 271 70 c 0,51,52
 222 70 222 70 193 86.5 c 128,-1,53
 164 103 164 103 143.5 123 c 128,-1,54
 123 143 123 143 105.5 159.5 c 128,-1,55
 88 176 88 176 63 176 c 0,56,57
 43 176 43 176 26.5 158 c 128,-1,58
 10 140 10 140 10 120 c 0,0,1
261 640 m 0,59,60
 261 627 261 627 279 615 c 128,-1,61
 297 603 297 603 320 593.5 c 128,-1,62
 343 584 343 584 363.5 578.5 c 128,-1,63
 384 573 384 573 390 573 c 0,64,65
 413 573 413 573 429 589.5 c 128,-1,66
 445 606 445 606 445 629 c 256,67,68
 445 652 445 652 434 661.5 c 128,-1,69
 423 671 423 671 401 679 c 1,70,-1
 352 679 l 2,71,72
 343 679 343 679 327 679 c 0,73,74
 312 679 312 679 297.5 676 c 128,-1,75
 283 673 283 673 272 664.5 c 128,-1,76
 261 656 261 656 261 640 c 0,59,60
EndSplineSet
Validated: 9
EndChar

StartChar: k
Encoding: 107 107 74
Width: 629
Flags: W
LayerCount: 2
Fore
SplineSet
170 125 m 0,0,1
 186 125 186 125 205.5 118.5 c 128,-1,2
 225 112 225 112 243 104 c 128,-1,3
 261 96 261 96 277 88 c 128,-1,4
 293 80 293 80 304 76 c 0,5,6
 330 66 330 66 358 55 c 128,-1,7
 386 44 386 44 415.5 34.5 c 128,-1,8
 445 25 445 25 475 18.5 c 128,-1,9
 505 12 505 12 535 12 c 0,10,11
 549 12 549 12 564 14.5 c 128,-1,12
 579 17 579 17 591 23.5 c 128,-1,13
 603 30 603 30 611 41 c 128,-1,14
 619 52 619 52 619 69 c 0,15,16
 619 95 619 95 600 106.5 c 128,-1,17
 581 118 581 118 555 123 c 128,-1,18
 529 128 529 128 501.5 130 c 128,-1,19
 474 132 474 132 457 139 c 0,20,21
 454 140 454 140 444 144 c 128,-1,22
 434 148 434 148 422 152.5 c 128,-1,23
 410 157 410 157 400 161.5 c 128,-1,24
 390 166 390 166 387 167 c 0,25,26
 371 173 371 173 341.5 178.5 c 128,-1,27
 312 184 312 184 283.5 194 c 128,-1,28
 255 204 255 204 233.5 219.5 c 128,-1,29
 212 235 212 235 212 261 c 0,30,31
 212 277 212 277 228 296.5 c 128,-1,32
 244 316 244 316 265.5 334.5 c 128,-1,33
 287 353 287 353 309.5 368 c 128,-1,34
 332 383 332 383 345 390 c 0,35,36
 350 393 350 393 365 400.5 c 128,-1,37
 380 408 380 408 398 417 c 128,-1,38
 416 426 416 426 432.5 434 c 128,-1,39
 449 442 449 442 457 446 c 0,40,41
 460 448 460 448 468 450.5 c 128,-1,42
 476 453 476 453 478 453 c 0,43,44
 493 455 493 455 517 455.5 c 128,-1,45
 541 456 541 456 563.5 461 c 128,-1,46
 586 466 586 466 602.5 478 c 128,-1,47
 619 490 619 490 619 516 c 0,48,49
 619 532 619 532 612 542 c 128,-1,50
 605 552 605 552 593.5 557.5 c 128,-1,51
 582 563 582 563 568 564.5 c 128,-1,52
 554 566 554 566 541 566 c 0,53,54
 515 566 515 566 494 563 c 128,-1,55
 473 560 473 560 450 551 c 0,56,57
 438 545 438 545 407 529.5 c 128,-1,58
 376 514 376 514 341.5 496 c 128,-1,59
 307 478 307 478 276.5 462 c 128,-1,60
 246 446 246 446 234 439 c 0,61,62
 220 431 220 431 211.5 425 c 128,-1,63
 203 419 203 419 195 414 c 128,-1,64
 187 409 187 409 178 406.5 c 128,-1,65
 169 404 169 404 155 404 c 0,66,67
 132 404 132 404 123 417.5 c 128,-1,68
 114 431 114 431 114 453 c 0,69,70
 114 476 114 476 123 496 c 128,-1,71
 132 516 132 516 142.5 535.5 c 128,-1,72
 153 555 153 555 162 575 c 128,-1,73
 171 595 171 595 171 618 c 0,74,75
 171 643 171 643 156.5 657 c 128,-1,76
 142 671 142 671 117 671 c 0,77,78
 99 671 99 671 87 662 c 128,-1,79
 75 653 75 653 67 639.5 c 128,-1,80
 59 626 59 626 54 610 c 128,-1,81
 49 594 49 594 45 579 c 0,82,83
 43 573 43 573 38 558 c 128,-1,84
 33 543 33 543 27.5 526.5 c 128,-1,85
 22 510 22 510 17 495 c 128,-1,86
 12 480 12 480 10 474 c 2,87,-1
 10 55 l 2,88,89
 10 37 10 37 27 28 c 128,-1,90
 44 19 44 19 58 19 c 0,91,92
 86 19 86 19 97 35.5 c 128,-1,93
 108 52 108 52 115.5 72 c 128,-1,94
 123 92 123 92 133.5 108.5 c 128,-1,95
 144 125 144 125 170 125 c 0,0,1
EndSplineSet
Validated: 9
EndChar

StartChar: l
Encoding: 108 108 75
Width: 181
Flags: W
LayerCount: 2
Fore
SplineSet
66 62 m 0,0,1
 71 42 71 42 87.5 30.5 c 128,-1,2
 104 19 104 19 123 19 c 0,3,4
 130 19 130 19 138.5 23 c 128,-1,5
 147 27 147 27 154 33 c 128,-1,6
 161 39 161 39 165.5 46.5 c 128,-1,7
 170 54 170 54 170 62 c 2,8,-1
 170 298 l 1,9,10
 161 327 161 327 154 360.5 c 128,-1,11
 147 394 147 394 141 428.5 c 128,-1,12
 135 463 135 463 130 495.5 c 128,-1,13
 125 528 125 528 121 556 c 0,14,15
 119 567 119 567 118.5 587 c 128,-1,16
 118 607 118 607 113.5 626.5 c 128,-1,17
 109 646 109 646 98.5 660 c 128,-1,18
 88 674 88 674 66 674 c 0,19,20
 46 674 46 674 34.5 665.5 c 128,-1,21
 23 657 23 657 17.5 644 c 128,-1,22
 12 631 12 631 10.5 615.5 c 128,-1,23
 9 600 9 600 9 585 c 0,24,25
 9 549 9 549 15.5 513 c 128,-1,26
 22 477 22 477 31 441 c 128,-1,27
 40 405 40 405 48 369 c 128,-1,28
 56 333 56 333 59 298 c 0,29,30
 60 285 60 285 61.5 251.5 c 128,-1,31
 63 218 63 218 64 180 c 128,-1,32
 65 142 65 142 65.5 108.5 c 128,-1,33
 66 75 66 75 66 62 c 0,0,1
EndSplineSet
Validated: 9
EndChar

StartChar: m
Encoding: 109 109 76
Width: 685
Flags: W
LayerCount: 2
Fore
SplineSet
66 565 m 0,0,1
 58 565 58 565 48.5 560.5 c 128,-1,2
 39 556 39 556 30.5 549 c 128,-1,3
 22 542 22 542 16 533 c 128,-1,4
 10 524 10 524 10 516 c 2,5,-1
 10 279 l 2,6,7
 10 278 10 278 16.5 257.5 c 128,-1,8
 23 237 23 237 32 209.5 c 128,-1,9
 41 182 41 182 50.5 152.5 c 128,-1,10
 60 123 60 123 66 104 c 0,11,12
 71 88 71 88 88 75 c 128,-1,13
 105 62 105 62 122 62 c 0,14,15
 145 62 145 62 158 82 c 128,-1,16
 171 102 171 102 171 122 c 0,17,18
 171 151 171 151 159 177.5 c 128,-1,19
 147 204 147 204 136 230 c 0,20,21
 125 258 125 258 123 282.5 c 128,-1,22
 121 307 121 307 121 338 c 0,23,24
 121 341 121 341 121 349 c 0,25,26
 121 358 121 358 121.5 368 c 128,-1,27
 122 378 122 378 122 386 c 0,28,29
 122 395 122 395 122 398 c 0,30,31
 131 431 131 431 154.5 446 c 128,-1,32
 178 461 178 461 213 461 c 0,33,34
 232 461 232 461 248 453 c 128,-1,35
 264 445 264 445 278.5 436 c 128,-1,36
 293 427 293 427 308.5 419 c 128,-1,37
 324 411 324 411 342 411 c 256,38,39
 360 411 360 411 373.5 419 c 128,-1,40
 387 427 387 427 400 436 c 128,-1,41
 413 445 413 445 427.5 453 c 128,-1,42
 442 461 442 461 461 461 c 0,43,44
 501 461 501 461 526.5 448.5 c 128,-1,45
 552 436 552 436 562 398 c 0,46,47
 562 395 562 395 562 386 c 0,48,49
 562 378 562 378 562.5 368 c 128,-1,50
 563 358 563 358 563 349 c 0,51,52
 563 341 563 341 563 338 c 0,53,54
 563 302 563 302 555 273.5 c 128,-1,55
 547 245 547 245 538 219.5 c 128,-1,56
 529 194 529 194 521 169.5 c 128,-1,57
 513 145 513 145 513 117 c 0,58,59
 513 96 513 96 525.5 82 c 128,-1,60
 538 68 538 68 560 68 c 0,61,62
 584 68 584 68 595 76 c 128,-1,63
 606 84 606 84 618 104 c 0,64,65
 621 112 621 112 628 133 c 128,-1,66
 635 154 635 154 643 177.5 c 128,-1,67
 651 201 651 201 657.5 222 c 128,-1,68
 664 243 664 243 667 251 c 0,69,70
 669 256 669 256 671.5 266.5 c 128,-1,71
 674 277 674 277 674 279 c 2,72,-1
 674 418 l 2,73,74
 674 454 674 454 655 482 c 128,-1,75
 636 510 636 510 607 528.5 c 128,-1,76
 578 547 578 547 544 556.5 c 128,-1,77
 510 566 510 566 480 566 c 0,78,79
 462 566 462 566 445 562.5 c 128,-1,80
 428 559 428 559 411 555 c 128,-1,81
 394 551 394 551 377 547.5 c 128,-1,82
 360 544 360 544 342 544 c 0,83,84
 317 544 317 544 293 547.5 c 128,-1,85
 269 551 269 551 245 555.5 c 128,-1,86
 221 560 221 560 196 563.5 c 128,-1,87
 171 567 171 567 146 567 c 0,88,89
 141 567 141 567 130 567 c 256,90,91
 119 567 119 567 106 566.5 c 128,-1,92
 93 566 93 566 81.5 565.5 c 128,-1,93
 70 565 70 565 66 565 c 0,0,1
EndSplineSet
Validated: 9
EndChar

StartChar: n
Encoding: 110 110 77
Width: 685
Flags: W
LayerCount: 2
Fore
SplineSet
59 559 m 0,0,1
 52 559 52 559 43.5 555 c 128,-1,2
 35 551 35 551 27.5 545 c 128,-1,3
 20 539 20 539 15 531 c 128,-1,4
 10 523 10 523 10 516 c 2,5,-1
 10 279 l 2,6,7
 10 278 10 278 16.5 257.5 c 128,-1,8
 23 237 23 237 32 209.5 c 128,-1,9
 41 182 41 182 50.5 152.5 c 128,-1,10
 60 123 60 123 66 104 c 0,11,12
 71 89 71 89 86.5 75.5 c 128,-1,13
 102 62 102 62 118 62 c 0,14,15
 144 62 144 62 157.5 81 c 128,-1,16
 171 100 171 100 171 122 c 0,17,18
 171 145 171 145 164.5 167 c 128,-1,19
 158 189 158 189 149.5 210.5 c 128,-1,20
 141 232 141 232 134.5 254 c 128,-1,21
 128 276 128 276 128 300 c 0,22,23
 128 323 128 323 139 350 c 128,-1,24
 150 377 150 377 168.5 400 c 128,-1,25
 187 423 187 423 211 438 c 128,-1,26
 235 453 235 453 262 453 c 2,27,-1
 485 453 l 2,28,29
 499 453 499 453 512.5 446 c 128,-1,30
 526 439 526 439 537 428.5 c 128,-1,31
 548 418 548 418 555 404 c 128,-1,32
 562 390 562 390 562 377 c 2,33,-1
 562 237 l 2,34,35
 562 220 562 220 554.5 205 c 128,-1,36
 547 190 547 190 537.5 175 c 128,-1,37
 528 160 528 160 520.5 144.5 c 128,-1,38
 513 129 513 129 513 111 c 0,39,40
 513 94 513 94 529 78 c 128,-1,41
 545 62 545 62 562 62 c 0,42,43
 585 62 585 62 601.5 80.5 c 128,-1,44
 618 99 618 99 625 118 c 0,45,46
 628 127 628 127 635 148.5 c 128,-1,47
 642 170 642 170 650 194.5 c 128,-1,48
 658 219 658 219 664.5 241 c 128,-1,49
 671 263 671 263 674 272 c 0,50,51
 674 275 674 275 674 281 c 256,52,53
 674 287 674 287 674.5 294.5 c 128,-1,54
 675 302 675 302 675 308 c 256,55,56
 675 314 675 314 675 317 c 0,57,58
 675 396 675 396 634.5 450.5 c 128,-1,59
 594 505 594 505 527 544 c 0,60,61
 517 550 517 550 500.5 557.5 c 128,-1,62
 484 565 484 565 471 565 c 2,63,-1
 332 565 l 2,64,65
 309 565 309 565 288 556 c 128,-1,66
 267 547 267 547 246.5 536.5 c 128,-1,67
 226 526 226 526 205.5 517.5 c 128,-1,68
 185 509 185 509 163 509 c 0,69,70
 147 509 147 509 134.5 517 c 128,-1,71
 122 525 122 525 110 534 c 128,-1,72
 98 543 98 543 86 551 c 128,-1,73
 74 559 74 559 59 559 c 0,0,1
EndSplineSet
Validated: 9
EndChar

StartChar: o
Encoding: 111 111 78
Width: 685
Flags: W
LayerCount: 2
Fore
SplineSet
9 345 m 0,0,1
 9 304 9 304 18.5 264 c 128,-1,2
 28 224 28 224 47.5 189 c 128,-1,3
 67 154 67 154 98 126.5 c 128,-1,4
 129 99 129 99 171 83 c 0,5,6
 175 81 175 81 182 79 c 128,-1,7
 189 77 189 77 195.5 74.5 c 128,-1,8
 202 72 202 72 207 70.5 c 128,-1,9
 212 69 212 69 213 69 c 2,10,-1
 478 69 l 2,11,12
 502 69 502 69 535.5 90.5 c 128,-1,13
 569 112 569 112 600 143.5 c 128,-1,14
 631 175 631 175 652.5 210 c 128,-1,15
 674 245 674 245 674 272 c 2,16,-1
 674 411 l 2,17,18
 674 441 674 441 653.5 477.5 c 128,-1,19
 633 514 633 514 602.5 546 c 128,-1,20
 572 578 572 578 536.5 599.5 c 128,-1,21
 501 621 501 621 471 621 c 2,22,-1
 213 621 l 2,23,24
 211 621 211 621 205.5 619.5 c 128,-1,25
 200 618 200 618 193 615.5 c 128,-1,26
 186 613 186 613 180 610.5 c 128,-1,27
 174 608 174 608 171 607 c 0,28,29
 85 562 85 562 47 500.5 c 128,-1,30
 9 439 9 439 9 345 c 0,0,1
121 345 m 256,31,32
 121 369 121 369 126.5 398 c 128,-1,33
 132 427 132 427 145 451.5 c 128,-1,34
 158 476 158 476 179.5 492.5 c 128,-1,35
 201 509 201 509 234 509 c 2,36,-1
 450 509 l 2,37,38
 453 509 453 509 461 506 c 128,-1,39
 469 503 469 503 477 499.5 c 128,-1,40
 485 496 485 496 491.5 492.5 c 128,-1,41
 498 489 498 489 499 488 c 0,42,43
 521 470 521 470 534 455.5 c 128,-1,44
 547 441 547 441 553.5 425.5 c 128,-1,45
 560 410 560 410 561.5 391 c 128,-1,46
 563 372 563 372 563 345 c 0,47,48
 563 321 563 321 557.5 292 c 128,-1,49
 552 263 552 263 539 238.5 c 128,-1,50
 526 214 526 214 504.5 197.5 c 128,-1,51
 483 181 483 181 450 181 c 2,52,-1
 234 181 l 2,53,54
 201 181 201 181 179.5 197.5 c 128,-1,55
 158 214 158 214 145 238.5 c 128,-1,56
 132 263 132 263 126.5 292 c 128,-1,57
 121 321 121 321 121 345 c 256,31,32
EndSplineSet
Validated: 9
EndChar

StartChar: p
Encoding: 112 112 79
Width: 685
Flags: W
LayerCount: 2
Fore
SplineSet
59 622 m 0,0,1
 43 622 43 622 26.5 609.5 c 128,-1,2
 10 597 10 597 10 579 c 2,3,-1
 10 223 l 2,4,5
 10 221 10 221 12.5 210.5 c 128,-1,6
 15 200 15 200 17 195 c 0,7,8
 18 193 18 193 21 184.5 c 128,-1,9
 24 176 24 176 27.5 166.5 c 128,-1,10
 31 157 31 157 34 149 c 128,-1,11
 37 141 37 141 38 139 c 0,12,13
 43 122 43 122 47.5 101 c 128,-1,14
 52 80 52 80 59.5 62 c 128,-1,15
 67 44 67 44 80.5 31.5 c 128,-1,16
 94 19 94 19 118 19 c 0,17,18
 134 19 134 19 144 23.5 c 128,-1,19
 154 28 154 28 164 41 c 1,20,21
 165 51 165 51 166 68 c 128,-1,22
 167 85 167 85 171.5 100.5 c 128,-1,23
 176 116 176 116 185.5 127.5 c 128,-1,24
 195 139 195 139 212 139 c 2,25,-1
 220 139 l 2,26,27
 223 138 223 138 232 136 c 128,-1,28
 241 134 241 134 251 132 c 128,-1,29
 261 130 261 130 270 128 c 128,-1,30
 279 126 279 126 283 125 c 2,31,-1
 471 125 l 2,32,33
 473 125 473 125 478.5 126.5 c 128,-1,34
 484 128 484 128 491 130.5 c 128,-1,35
 498 133 498 133 504 135 c 128,-1,36
 510 137 510 137 513 139 c 0,37,38
 548 158 548 158 578 182 c 128,-1,39
 608 206 608 206 629.5 235.5 c 128,-1,40
 651 265 651 265 663 300 c 128,-1,41
 675 335 675 335 675 375 c 0,42,43
 675 416 675 416 662.5 450.5 c 128,-1,44
 650 485 650 485 628.5 514 c 128,-1,45
 607 543 607 543 577 566 c 128,-1,46
 547 589 547 589 513 607 c 0,47,48
 510 608 510 608 504 610.5 c 128,-1,49
 498 613 498 613 491 615.5 c 128,-1,50
 484 618 484 618 478.5 619.5 c 128,-1,51
 473 621 473 621 471 621 c 2,52,-1
 276 621 l 2,53,54
 259 621 259 621 245 614.5 c 128,-1,55
 231 608 231 608 217.5 599.5 c 128,-1,56
 204 591 204 591 189.5 584.5 c 128,-1,57
 175 578 175 578 159 578 c 0,58,59
 144 578 144 578 131.5 585 c 128,-1,60
 119 592 119 592 107.5 600 c 128,-1,61
 96 608 96 608 84.5 615 c 128,-1,62
 73 622 73 622 59 622 c 0,0,1
121 373 m 0,63,64
 121 405 121 405 131.5 426 c 128,-1,65
 142 447 142 447 160.5 461 c 128,-1,66
 179 475 179 475 203.5 484.5 c 128,-1,67
 228 494 228 494 255 502 c 0,68,69
 260 504 260 504 270.5 506.5 c 128,-1,70
 281 509 281 509 283 509 c 2,71,-1
 450 509 l 2,72,73
 475 509 475 509 496 496 c 128,-1,74
 517 483 517 483 532 463 c 128,-1,75
 547 443 547 443 555 419 c 128,-1,76
 563 395 563 395 563 373 c 256,77,78
 563 351 563 351 555 327 c 128,-1,79
 547 303 547 303 532 283 c 128,-1,80
 517 263 517 263 496 250 c 128,-1,81
 475 237 475 237 450 237 c 2,82,-1
 276 237 l 2,83,84
 275 237 275 237 264 239.5 c 128,-1,85
 253 242 253 242 248 244 c 0,86,87
 220 252 220 252 196.5 262 c 128,-1,88
 173 272 173 272 156.5 287 c 128,-1,89
 140 302 140 302 130.5 323 c 128,-1,90
 121 344 121 344 121 373 c 0,63,64
EndSplineSet
Validated: 9
EndChar

StartChar: q
Encoding: 113 113 80
Width: 685
Flags: W
LayerCount: 2
Fore
SplineSet
524 167 m 0,0,1
 546 167 546 167 555 156 c 128,-1,2
 564 145 564 145 567 128.5 c 128,-1,3
 570 112 570 112 569.5 93 c 128,-1,4
 569 74 569 74 573 57.5 c 128,-1,5
 577 41 577 41 588 30 c 128,-1,6
 599 19 599 19 624 19 c 0,7,8
 632 19 632 19 640.5 22.5 c 128,-1,9
 649 26 649 26 656.5 32 c 128,-1,10
 664 38 664 38 669 45.5 c 128,-1,11
 674 53 674 53 674 62 c 2,12,-1
 674 572 l 2,13,14
 674 580 674 580 669.5 588.5 c 128,-1,15
 665 597 665 597 657.5 604.5 c 128,-1,16
 650 612 650 612 641.5 616.5 c 128,-1,17
 633 621 633 621 625 621 c 0,18,19
 610 621 610 621 598.5 614.5 c 128,-1,20
 587 608 587 608 575.5 599.5 c 128,-1,21
 564 591 564 591 552 584.5 c 128,-1,22
 540 578 540 578 525 578 c 256,23,24
 510 578 510 578 497.5 584.5 c 128,-1,25
 485 591 485 591 473 599.5 c 128,-1,26
 461 608 461 608 448.5 614.5 c 128,-1,27
 436 621 436 621 422 621 c 2,28,-1
 213 621 l 2,29,30
 202 621 202 621 188 615 c 128,-1,31
 174 609 174 609 159.5 601 c 128,-1,32
 145 593 145 593 133 584.5 c 128,-1,33
 121 576 121 576 115 572 c 0,34,35
 63 537 63 537 36 486 c 128,-1,36
 9 435 9 435 9 373 c 0,37,38
 9 331 9 331 21 296.5 c 128,-1,39
 33 262 33 262 54.5 233.5 c 128,-1,40
 76 205 76 205 106 181.5 c 128,-1,41
 136 158 136 158 171 139 c 0,42,43
 174 137 174 137 180 135 c 128,-1,44
 186 133 186 133 192.5 130.5 c 128,-1,45
 199 128 199 128 205 126.5 c 128,-1,46
 211 125 211 125 213 125 c 2,47,-1
 415 125 l 2,48,49
 430 125 430 125 443 131.5 c 128,-1,50
 456 138 456 138 469 146 c 128,-1,51
 482 154 482 154 495.5 160.5 c 128,-1,52
 509 167 509 167 524 167 c 0,0,1
121 369 m 0,53,54
 121 391 121 391 128.5 416 c 128,-1,55
 136 441 136 441 150.5 461.5 c 128,-1,56
 165 482 165 482 186 495.5 c 128,-1,57
 207 509 207 509 234 509 c 2,58,-1
 401 509 l 2,59,60
 431 509 431 509 460 499 c 128,-1,61
 489 489 489 489 512 471 c 128,-1,62
 535 453 535 453 549 428 c 128,-1,63
 563 403 563 403 563 373 c 0,64,65
 563 344 563 344 549.5 319 c 128,-1,66
 536 294 536 294 514.5 276 c 128,-1,67
 493 258 493 258 465 247.5 c 128,-1,68
 437 237 437 237 408 237 c 2,69,-1
 234 237 l 2,70,71
 209 237 209 237 188.5 249.5 c 128,-1,72
 168 262 168 262 153 281.5 c 128,-1,73
 138 301 138 301 129.5 324.5 c 128,-1,74
 121 348 121 348 121 369 c 0,53,54
EndSplineSet
Validated: 41
EndChar

StartChar: r
Encoding: 114 114 81
Width: 629
Flags: W
LayerCount: 2
Fore
SplineSet
10 570 m 0,0,1
 10 540 10 540 20 512.5 c 128,-1,2
 30 485 30 485 44 458.5 c 128,-1,3
 58 432 58 432 74 406.5 c 128,-1,4
 90 381 90 381 101 355 c 0,5,6
 116 320 116 320 122.5 282 c 128,-1,7
 129 244 129 244 143 209 c 0,8,9
 150 190 150 190 156.5 178.5 c 128,-1,10
 163 167 163 167 170 157 c 128,-1,11
 177 147 177 147 185.5 135 c 128,-1,12
 194 123 194 123 206 104 c 0,13,14
 213 92 213 92 219 77 c 128,-1,15
 225 62 225 62 232.5 49.5 c 128,-1,16
 240 37 240 37 251.5 28 c 128,-1,17
 263 19 263 19 280 19 c 0,18,19
 305 19 305 19 322 31 c 128,-1,20
 339 43 339 43 339 72 c 0,21,22
 339 108 339 108 323.5 139.5 c 128,-1,23
 308 171 308 171 289.5 202 c 128,-1,24
 271 233 271 233 255.5 264 c 128,-1,25
 240 295 240 295 240 331 c 0,26,27
 240 358 240 358 250.5 380 c 128,-1,28
 261 402 261 402 278 420.5 c 128,-1,29
 295 439 295 439 316.5 454 c 128,-1,30
 338 469 338 469 359 481 c 0,31,32
 365 485 365 485 375.5 490.5 c 128,-1,33
 386 496 386 496 396 501 c 128,-1,34
 406 506 406 506 413.5 509.5 c 128,-1,35
 421 513 421 513 422 513 c 2,36,-1
 590 513 l 2,37,38
 594 513 594 513 604.5 525 c 128,-1,39
 615 537 615 537 618 544 c 0,40,41
 618 545 618 545 618.5 552 c 128,-1,42
 619 559 619 559 619 563 c 0,43,44
 619 572 619 572 617 582 c 128,-1,45
 615 592 615 592 610 601 c 128,-1,46
 605 610 605 610 597 615.5 c 128,-1,47
 589 621 589 621 576 621 c 2,48,-1
 436 621 l 2,49,50
 398 621 398 621 366.5 602 c 128,-1,51
 335 583 335 583 305.5 560.5 c 128,-1,52
 276 538 276 538 246 519.5 c 128,-1,53
 216 501 216 501 181 501 c 0,54,55
 161 501 161 501 149.5 510 c 128,-1,56
 138 519 138 519 131 532.5 c 128,-1,57
 124 546 124 546 119 561.5 c 128,-1,58
 114 577 114 577 107 590.5 c 128,-1,59
 100 604 100 604 89 613 c 128,-1,60
 78 622 78 622 59 622 c 0,61,62
 37 622 37 622 23.5 607.5 c 128,-1,63
 10 593 10 593 10 570 c 0,0,1
EndSplineSet
Validated: 9
EndChar

StartChar: s
Encoding: 115 115 82
Width: 685
Flags: W
LayerCount: 2
Fore
SplineSet
9 182 m 0,0,1
 9 161 9 161 18.5 142 c 128,-1,2
 28 123 28 123 43.5 107.5 c 128,-1,3
 59 92 59 92 78 80 c 128,-1,4
 97 68 97 68 115 62 c 0,5,6
 119 60 119 60 136 55 c 128,-1,7
 153 50 153 50 174 43 c 128,-1,8
 195 36 195 36 216 29.5 c 128,-1,9
 237 23 237 23 248 20 c 0,10,11
 253 18 253 18 263.5 15.5 c 128,-1,12
 274 13 274 13 276 13 c 2,13,-1
 506 13 l 2,14,15
 538 13 538 13 568.5 27.5 c 128,-1,16
 599 42 599 42 622.5 65.5 c 128,-1,17
 646 89 646 89 660 119 c 128,-1,18
 674 149 674 149 674 181 c 0,19,20
 674 223 674 223 648.5 257.5 c 128,-1,21
 623 292 623 292 586 318 c 128,-1,22
 549 344 549 344 506 362.5 c 128,-1,23
 463 381 463 381 429 390 c 0,24,25
 413 394 413 394 380.5 397 c 128,-1,26
 348 400 348 400 315 406.5 c 128,-1,27
 282 413 282 413 257.5 427.5 c 128,-1,28
 233 442 233 442 233 471 c 0,29,30
 233 497 233 497 252.5 506.5 c 128,-1,31
 272 516 272 516 295 516 c 2,32,-1
 311 516 l 2,33,34
 321 516 321 516 340 515 c 128,-1,35
 359 514 359 514 378 512.5 c 128,-1,36
 397 511 397 511 411.5 510 c 128,-1,37
 426 509 426 509 429 509 c 0,38,39
 447 507 447 507 462.5 500.5 c 128,-1,40
 478 494 478 494 493.5 486 c 128,-1,41
 509 478 509 478 525 472 c 128,-1,42
 541 466 541 466 559 466 c 0,43,44
 562 466 562 466 574 466.5 c 128,-1,45
 586 467 586 467 590 467 c 0,46,47
 605 474 605 474 608.5 482 c 128,-1,48
 612 490 612 490 612 502 c 0,49,50
 612 504 612 504 612 509 c 256,51,52
 612 514 612 514 611 516 c 0,53,54
 599 533 599 533 574 551.5 c 128,-1,55
 549 570 549 570 520 585.5 c 128,-1,56
 491 601 491 601 462.5 611 c 128,-1,57
 434 621 434 621 415 621 c 2,58,-1
 213 621 l 2,59,60
 191 621 191 621 165 606 c 128,-1,61
 139 591 139 591 117 568.5 c 128,-1,62
 95 546 95 546 80.5 519.5 c 128,-1,63
 66 493 66 493 66 471 c 0,64,65
 66 426 66 426 96.5 394.5 c 128,-1,66
 127 363 127 363 170.5 341.5 c 128,-1,67
 214 320 214 320 260.5 308.5 c 128,-1,68
 307 297 307 297 339 293 c 0,69,70
 362 290 362 290 393 287 c 128,-1,71
 424 284 424 284 452.5 275.5 c 128,-1,72
 481 267 481 267 501 248.5 c 128,-1,73
 521 230 521 230 521 195 c 0,74,75
 521 183 521 183 516 170.5 c 128,-1,76
 511 158 511 158 502 148 c 128,-1,77
 493 138 493 138 481.5 131.5 c 128,-1,78
 470 125 470 125 457 125 c 2,79,-1
 234 125 l 2,80,81
 211 125 211 125 190 134.5 c 128,-1,82
 169 144 169 144 150 158.5 c 128,-1,83
 131 173 131 173 115.5 190 c 128,-1,84
 100 207 100 207 87 223 c 0,85,86
 84 225 84 225 73 227.5 c 128,-1,87
 62 230 62 230 59 230 c 0,88,89
 41 230 41 230 25 215 c 128,-1,90
 9 200 9 200 9 182 c 0,0,1
EndSplineSet
Validated: 9
EndChar

StartChar: t
Encoding: 116 116 83
Width: 685
Flags: W
LayerCount: 2
Fore
SplineSet
9 463 m 0,0,1
 9 440 9 440 21 427.5 c 128,-1,2
 33 415 33 415 51.5 408.5 c 128,-1,3
 70 402 70 402 91.5 399.5 c 128,-1,4
 113 397 113 397 131.5 393.5 c 128,-1,5
 150 390 150 390 162 383.5 c 128,-1,6
 174 377 174 377 174 363 c 2,7,-1
 174 216 l 2,8,9
 174 195 174 195 190 169.5 c 128,-1,10
 206 144 206 144 229 121.5 c 128,-1,11
 252 99 252 99 278.5 84 c 128,-1,12
 305 69 305 69 325 69 c 2,13,-1
 485 69 l 2,14,15
 486 69 486 69 492.5 72 c 128,-1,16
 499 75 499 75 508 79.5 c 128,-1,17
 517 84 517 84 526.5 89 c 128,-1,18
 536 94 536 94 541 97 c 0,19,20
 551 103 551 103 564.5 111 c 128,-1,21
 578 119 578 119 590 129 c 128,-1,22
 602 139 602 139 610.5 151 c 128,-1,23
 619 163 619 163 619 177 c 0,24,25
 619 197 619 197 606.5 206.5 c 128,-1,26
 594 216 594 216 575 216 c 0,27,28
 562 216 562 216 550 211.5 c 128,-1,29
 538 207 538 207 526 201.5 c 128,-1,30
 514 196 514 196 502.5 190 c 128,-1,31
 491 184 491 184 478 181 c 0,32,33
 475 181 475 181 467 180.5 c 128,-1,34
 459 180 459 180 450 180 c 256,35,36
 441 180 441 180 433 180 c 256,37,38
 425 180 425 180 422 180 c 0,39,40
 405 180 405 180 382.5 181.5 c 128,-1,41
 360 183 360 183 339.5 190 c 128,-1,42
 319 197 319 197 304.5 211.5 c 128,-1,43
 290 226 290 226 290 251 c 2,44,-1
 290 363 l 2,45,46
 290 367 290 367 294 373.5 c 128,-1,47
 298 380 298 380 303.5 386 c 128,-1,48
 309 392 309 392 315 396.5 c 128,-1,49
 321 401 321 401 325 401 c 2,50,-1
 632 401 l 2,51,52
 633 401 633 401 638.5 405 c 128,-1,53
 644 409 644 409 646 411 c 0,54,55
 657 422 657 422 665.5 431 c 128,-1,56
 674 440 674 440 674 457 c 0,57,58
 674 464 674 464 670.5 473 c 128,-1,59
 667 482 667 482 661 490 c 128,-1,60
 655 498 655 498 647.5 503.5 c 128,-1,61
 640 509 640 509 632 509 c 2,62,-1
 422 509 l 2,63,64
 395 509 395 509 377 521.5 c 128,-1,65
 359 534 359 534 359 562 c 0,66,67
 359 572 359 572 362.5 581.5 c 128,-1,68
 366 591 366 591 370 600 c 128,-1,69
 374 609 374 609 377.5 618.5 c 128,-1,70
 381 628 381 628 381 639 c 0,71,72
 381 656 381 656 371 666.5 c 128,-1,73
 361 677 361 677 342 677 c 0,74,75
 317 677 317 677 300.5 665 c 128,-1,76
 284 653 284 653 273 634.5 c 128,-1,77
 262 616 262 616 254.5 595 c 128,-1,78
 247 574 247 574 239.5 555.5 c 128,-1,79
 232 537 232 537 222.5 525 c 128,-1,80
 213 513 213 513 199 513 c 2,81,-1
 38 513 l 2,82,83
 32 513 32 513 27 507 c 128,-1,84
 22 501 22 501 18 493 c 128,-1,85
 14 485 14 485 11.5 476.5 c 128,-1,86
 9 468 9 468 9 463 c 0,0,1
EndSplineSet
Validated: 9
EndChar

StartChar: u
Encoding: 117 117 84
Width: 685
Flags: W
LayerCount: 2
Fore
SplineSet
124 559 m 256,0,1
 102 559 102 559 81.5 544.5 c 128,-1,2
 61 530 61 530 45 509 c 128,-1,3
 29 488 29 488 19.5 463.5 c 128,-1,4
 10 439 10 439 10 418 c 2,5,-1
 10 223 l 2,6,7
 10 201 10 201 24 174 c 128,-1,8
 38 147 38 147 59 124 c 128,-1,9
 80 101 80 101 104.5 85 c 128,-1,10
 129 69 129 69 150 69 c 2,11,-1
 359 69 l 2,12,13
 381 69 381 69 400.5 80 c 128,-1,14
 420 91 420 91 438.5 104 c 128,-1,15
 457 117 457 117 476 128 c 128,-1,16
 495 139 495 139 517 139 c 0,17,18
 536 139 536 139 548 128 c 128,-1,19
 560 117 560 117 570.5 104 c 128,-1,20
 581 91 581 91 592.5 80 c 128,-1,21
 604 69 604 69 622 69 c 256,22,23
 640 69 640 69 657 83.5 c 128,-1,24
 674 98 674 98 674 118 c 2,25,-1
 674 523 l 2,26,27
 674 540 674 540 657.5 549.5 c 128,-1,28
 641 559 641 559 627 559 c 0,29,30
 601 559 601 559 586 547 c 128,-1,31
 571 535 571 535 562 509 c 0,32,33
 560 500 560 500 555 478.5 c 128,-1,34
 550 457 550 457 544.5 432.5 c 128,-1,35
 539 408 539 408 534 386.5 c 128,-1,36
 529 365 529 365 527 356 c 0,37,38
 521 330 521 330 506.5 299.5 c 128,-1,39
 492 269 492 269 471.5 243 c 128,-1,40
 451 217 451 217 424 199 c 128,-1,41
 397 181 397 181 366 181 c 2,42,-1
 199 181 l 2,43,44
 169 181 169 181 149 203 c 128,-1,45
 129 225 129 225 122 251 c 0,46,47
 122 254 122 254 122 262 c 0,48,49
 122 271 122 271 121.5 280.5 c 128,-1,50
 121 290 121 290 121 298 c 0,51,52
 121 307 121 307 121 310 c 0,53,54
 121 333 121 333 120.5 354.5 c 128,-1,55
 120 376 120 376 129 398 c 0,56,57
 133 409 133 409 140.5 422.5 c 128,-1,58
 148 436 148 436 154.5 450.5 c 128,-1,59
 161 465 161 465 166 480 c 128,-1,60
 171 495 171 495 171 510 c 0,61,62
 171 531 171 531 158.5 545 c 128,-1,63
 146 559 146 559 124 559 c 256,0,1
EndSplineSet
Validated: 41
EndChar

StartChar: v
Encoding: 118 118 85
Width: 692
Flags: W
LayerCount: 2
Fore
SplineSet
10 496 m 0,0,1
 10 482 10 482 14.5 459.5 c 128,-1,2
 19 437 19 437 26 410 c 128,-1,3
 33 383 33 383 42.5 355 c 128,-1,4
 52 327 52 327 62 302 c 128,-1,5
 72 277 72 277 82 257.5 c 128,-1,6
 92 238 92 238 101 230 c 2,7,-1
 234 97 l 2,8,9
 257 74 257 74 289.5 71 c 128,-1,10
 322 68 322 68 352 68 c 0,11,12
 355 68 355 68 363 68 c 256,13,14
 371 68 371 68 380 68.5 c 128,-1,15
 389 69 389 69 397 69 c 256,16,17
 405 69 405 69 408 69 c 0,18,19
 412 70 412 70 419.5 72.5 c 128,-1,20
 427 75 427 75 434.5 78 c 128,-1,21
 442 81 442 81 448.5 84 c 128,-1,22
 455 87 455 87 457 90 c 2,23,-1
 597 230 l 2,24,25
 600 233 600 233 604.5 240 c 128,-1,26
 609 247 609 247 613 254.5 c 128,-1,27
 617 262 617 262 620.5 269 c 128,-1,28
 624 276 624 276 625 279 c 0,29,30
 631 296 631 296 640.5 323 c 128,-1,31
 650 350 650 350 659 375.5 c 128,-1,32
 668 401 668 401 674.5 419.5 c 128,-1,33
 681 438 681 438 681 439 c 2,34,-1
 681 523 l 2,35,36
 681 530 681 530 676 538 c 128,-1,37
 671 546 671 546 663.5 552 c 128,-1,38
 656 558 656 558 647.5 562 c 128,-1,39
 639 566 639 566 632 566 c 0,40,41
 614 566 614 566 597.5 554 c 128,-1,42
 581 542 581 542 576 523 c 0,43,44
 576 516 576 516 575 499 c 128,-1,45
 574 482 574 482 573 463.5 c 128,-1,46
 572 445 572 445 571 428 c 128,-1,47
 570 411 570 411 569 405 c 0,48,49
 569 403 569 403 566.5 394.5 c 128,-1,50
 564 386 564 386 562 384 c 0,51,52
 558 376 558 376 548.5 357 c 128,-1,53
 539 338 539 338 527.5 317 c 128,-1,54
 516 296 516 296 506 277 c 128,-1,55
 496 258 496 258 492 251 c 0,56,57
 463 217 463 217 425.5 198.5 c 128,-1,58
 388 180 388 180 344 180 c 0,59,60
 299 180 299 180 262.5 202 c 128,-1,61
 226 224 226 224 199 258 c 0,62,63
 195 265 195 265 186 282.5 c 128,-1,64
 177 300 177 300 167 320 c 128,-1,65
 157 340 157 340 148 358 c 128,-1,66
 139 376 139 376 136 384 c 0,67,68
 134 386 134 386 131.5 394.5 c 128,-1,69
 129 403 129 403 129 405 c 0,70,71
 128 411 128 411 127 428 c 128,-1,72
 126 445 126 445 125 463.5 c 128,-1,73
 124 482 124 482 123 499 c 128,-1,74
 122 516 122 516 122 523 c 0,75,76
 116 544 116 544 100 551.5 c 128,-1,77
 84 559 84 559 64 559 c 0,78,79
 40 559 40 559 25 539 c 128,-1,80
 10 519 10 519 10 496 c 0,0,1
EndSplineSet
Validated: 9
EndChar

StartChar: w
Encoding: 119 119 86
Width: 685
Flags: W
LayerCount: 2
Fore
SplineSet
178 566 m 0,0,1
 157 566 157 566 136.5 556 c 128,-1,2
 116 546 116 546 98.5 530.5 c 128,-1,3
 81 515 81 515 67 496.5 c 128,-1,4
 53 478 53 478 45 460 c 0,5,6
 41 451 41 451 35 436 c 128,-1,7
 29 421 29 421 23.5 405.5 c 128,-1,8
 18 390 18 390 14 377.5 c 128,-1,9
 10 365 10 365 10 363 c 2,10,-1
 10 216 l 2,11,12
 10 189 10 189 25.5 162.5 c 128,-1,13
 41 136 41 136 64.5 115 c 128,-1,14
 88 94 88 94 116 81 c 128,-1,15
 144 68 144 68 168 68 c 256,16,17
 192 68 192 68 212.5 76 c 128,-1,18
 233 84 233 84 253 93 c 128,-1,19
 273 102 273 102 294 110 c 128,-1,20
 315 118 315 118 339 118 c 0,21,22
 362 118 362 118 383 110 c 128,-1,23
 404 102 404 102 424 93 c 128,-1,24
 444 84 444 84 465 76 c 128,-1,25
 486 68 486 68 510 68 c 0,26,27
 536 68 536 68 565 80.5 c 128,-1,28
 594 93 594 93 618 113.5 c 128,-1,29
 642 134 642 134 658 160.5 c 128,-1,30
 674 187 674 187 674 216 c 2,31,-1
 674 356 l 2,32,33
 674 385 674 385 660 420.5 c 128,-1,34
 646 456 646 456 623 487 c 128,-1,35
 600 518 600 518 570 539 c 128,-1,36
 540 560 540 560 508 560 c 0,37,38
 491 560 491 560 477.5 553 c 128,-1,39
 464 546 464 546 464 525 c 0,40,41
 464 508 464 508 471 496.5 c 128,-1,42
 478 485 478 485 488.5 475 c 128,-1,43
 499 465 499 465 511 455 c 128,-1,44
 523 445 523 445 534 432 c 0,45,46
 558 403 558 403 560.5 367 c 128,-1,47
 563 331 563 331 563 296 c 0,48,49
 563 293 563 293 563 284 c 0,50,51
 563 276 563 276 562.5 266.5 c 128,-1,52
 562 257 562 257 562 248 c 0,53,54
 562 240 562 240 562 237 c 0,55,56
 554 206 554 206 537 193 c 128,-1,57
 520 180 520 180 487 180 c 0,58,59
 462 180 462 180 444 189 c 128,-1,60
 426 198 426 198 410 208.5 c 128,-1,61
 394 219 394 219 378 228 c 128,-1,62
 362 237 362 237 342 237 c 0,63,64
 321 237 321 237 305 228 c 128,-1,65
 289 219 289 219 273.5 208.5 c 128,-1,66
 258 198 258 198 240 189 c 128,-1,67
 222 180 222 180 197 180 c 0,68,69
 166 180 166 180 149.5 191 c 128,-1,70
 133 202 133 202 122 230 c 0,71,72
 122 233 122 233 122 241 c 0,73,74
 122 250 122 250 121.5 259.5 c 128,-1,75
 121 269 121 269 121 277 c 0,76,77
 121 286 121 286 121 289 c 0,78,79
 121 306 121 306 121 325 c 256,80,81
 121 344 121 344 123.5 363 c 128,-1,82
 126 382 126 382 132 400 c 128,-1,83
 138 418 138 418 150 432 c 0,84,85
 159 444 159 444 171 455 c 128,-1,86
 183 466 183 466 194 477.5 c 128,-1,87
 205 489 205 489 212.5 502 c 128,-1,88
 220 515 220 515 220 531 c 0,89,90
 220 549 220 549 207 557.5 c 128,-1,91
 194 566 194 566 178 566 c 0,0,1
EndSplineSet
Validated: 9
EndChar

StartChar: x
Encoding: 120 120 87
Width: 622
Flags: W
LayerCount: 2
Fore
SplineSet
9 100 m 0,0,1
 9 85 9 85 23.5 73.5 c 128,-1,2
 38 62 38 62 52 62 c 0,3,4
 63 62 63 62 74 66 c 128,-1,5
 85 70 85 70 94 76 c 0,6,7
 100 83 100 83 117 100 c 128,-1,8
 134 117 134 117 153 135.5 c 128,-1,9
 172 154 172 154 189 171 c 128,-1,10
 206 188 206 188 213 195 c 0,11,12
 233 214 233 214 252.5 225.5 c 128,-1,13
 272 237 272 237 299 237 c 0,14,15
 317 237 317 237 331 233.5 c 128,-1,16
 345 230 345 230 359 216 c 2,17,-1
 478 97 l 2,18,19
 492 83 492 83 515.5 72.5 c 128,-1,20
 539 62 539 62 559 62 c 0,21,22
 576 62 576 62 590.5 73.5 c 128,-1,23
 605 85 605 85 605 103 c 0,24,25
 605 117 605 117 599.5 130 c 128,-1,26
 594 143 594 143 583 153 c 2,27,-1
 422 307 l 2,28,29
 401 328 401 328 401 359 c 0,30,31
 401 377 401 377 410.5 391 c 128,-1,32
 420 405 420 405 434.5 415.5 c 128,-1,33
 449 426 449 426 466.5 433.5 c 128,-1,34
 484 441 484 441 499 446 c 0,35,36
 513 451 513 451 532.5 454.5 c 128,-1,37
 552 458 552 458 569.5 464.5 c 128,-1,38
 587 471 587 471 599.5 483 c 128,-1,39
 612 495 612 495 612 516 c 0,40,41
 612 538 612 538 597.5 552 c 128,-1,42
 583 566 583 566 560 566 c 0,43,44
 520 566 520 566 476.5 549 c 128,-1,45
 433 532 433 532 401 509 c 0,46,47
 385 498 385 498 374 486.5 c 128,-1,48
 363 475 363 475 352.5 466 c 128,-1,49
 342 457 342 457 329.5 451.5 c 128,-1,50
 317 446 317 446 298 446 c 0,51,52
 275 446 275 446 255.5 455 c 128,-1,53
 236 464 236 464 218 477 c 128,-1,54
 200 490 200 490 182.5 506 c 128,-1,55
 165 522 165 522 146.5 535 c 128,-1,56
 128 548 128 548 107.5 557 c 128,-1,57
 87 566 87 566 62 566 c 0,58,59
 42 566 42 566 25 555 c 128,-1,60
 8 544 8 544 8 522 c 0,61,62
 8 520 8 520 8.5 515 c 128,-1,63
 9 510 9 510 10 509 c 2,64,-1
 136 383 l 2,65,66
 146 373 146 373 155 354 c 128,-1,67
 164 335 164 335 164 321 c 0,68,69
 164 303 164 303 156 283.5 c 128,-1,70
 148 264 148 264 136 251 c 0,71,72
 130 244 130 244 114 228 c 128,-1,73
 98 212 98 212 80 194 c 128,-1,74
 62 176 62 176 46 160.5 c 128,-1,75
 30 145 30 145 24 139 c 0,76,77
 16 128 16 128 12.5 119.5 c 128,-1,78
 9 111 9 111 9 100 c 0,0,1
EndSplineSet
Validated: 9
EndChar

StartChar: y
Encoding: 121 121 88
Width: 685
Flags: W
LayerCount: 2
Fore
SplineSet
177 62 m 0,0,1
 177 38 177 38 198.5 25.5 c 128,-1,2
 220 13 220 13 241 13 c 0,3,4
 258 13 258 13 278 20.5 c 128,-1,5
 298 28 298 28 311 41 c 2,6,-1
 527 258 l 2,7,8
 529 260 529 260 534 267.5 c 128,-1,9
 539 275 539 275 541 279 c 0,10,11
 543 284 543 284 551 299 c 128,-1,12
 559 314 559 314 569 334 c 128,-1,13
 579 354 579 354 590 376.5 c 128,-1,14
 601 399 601 399 611 419 c 128,-1,15
 621 439 621 439 628.5 454 c 128,-1,16
 636 469 636 469 639 474 c 0,17,18
 650 496 650 496 662.5 514 c 128,-1,19
 675 532 675 532 675 557 c 0,20,21
 675 580 675 580 661.5 601 c 128,-1,22
 648 622 648 622 622 622 c 0,23,24
 609 622 609 622 600 616 c 128,-1,25
 591 610 591 610 583 600 c 0,26,27
 579 594 579 594 570 578 c 128,-1,28
 561 562 561 562 551 544 c 128,-1,29
 541 526 541 526 532 510 c 128,-1,30
 523 494 523 494 520 488 c 0,31,32
 501 452 501 452 492 424 c 128,-1,33
 483 396 483 396 472.5 371 c 128,-1,34
 462 346 462 346 445 320.5 c 128,-1,35
 428 295 428 295 394 265 c 0,36,37
 385 257 385 257 374 257 c 256,38,39
 363 257 363 257 352 257 c 256,40,41
 341 257 341 257 333 258 c 128,-1,42
 325 259 325 259 318.5 261.5 c 128,-1,43
 312 264 312 264 305.5 268 c 128,-1,44
 299 272 299 272 290 279 c 0,45,46
 284 284 284 284 269.5 298.5 c 128,-1,47
 255 313 255 313 239 329.5 c 128,-1,48
 223 346 223 346 209.5 361.5 c 128,-1,49
 196 377 196 377 192 383 c 0,50,51
 190 385 190 385 183 399 c 128,-1,52
 176 413 176 413 167 431 c 128,-1,53
 158 449 158 449 149 467 c 128,-1,54
 140 485 140 485 136 495 c 0,55,56
 129 510 129 510 125 531.5 c 128,-1,57
 121 553 121 553 114 573.5 c 128,-1,58
 107 594 107 594 94.5 608 c 128,-1,59
 82 622 82 622 59 622 c 256,60,61
 36 622 36 622 22.5 605.5 c 128,-1,62
 9 589 9 589 9 566 c 0,63,64
 9 520 9 520 30.5 470 c 128,-1,65
 52 420 52 420 84 372 c 128,-1,66
 116 324 116 324 153 282 c 128,-1,67
 190 240 190 240 220 209 c 0,68,69
 230 197 230 197 232 188.5 c 128,-1,70
 234 180 234 180 234 167 c 0,71,72
 234 150 234 150 225 137.5 c 128,-1,73
 216 125 216 125 205.5 113 c 128,-1,74
 195 101 195 101 186 89 c 128,-1,75
 177 77 177 77 177 62 c 0,0,1
EndSplineSet
Validated: 9
EndChar

StartChar: z
Encoding: 122 122 89
Width: 678
Flags: W
LayerCount: 2
Fore
SplineSet
16 201 m 0,0,1
 16 181 16 181 29.5 158 c 128,-1,2
 43 135 43 135 63.5 115.5 c 128,-1,3
 84 96 84 96 107 82.5 c 128,-1,4
 130 69 130 69 150 69 c 2,5,-1
 527 69 l 2,6,7
 546 69 546 69 570.5 80.5 c 128,-1,8
 595 92 595 92 617 110 c 128,-1,9
 639 128 639 128 653.5 150 c 128,-1,10
 668 172 668 172 668 192 c 0,11,12
 668 209 668 209 652.5 219.5 c 128,-1,13
 637 230 637 230 622 230 c 0,14,15
 602 230 602 230 584.5 223 c 128,-1,16
 567 216 567 216 549.5 207.5 c 128,-1,17
 532 199 532 199 514.5 191 c 128,-1,18
 497 183 497 183 478 181 c 0,19,20
 466 181 466 181 435 180 c 128,-1,21
 404 179 404 179 369.5 177.5 c 128,-1,22
 335 176 335 176 304.5 175 c 128,-1,23
 274 174 274 174 262 174 c 2,24,-1
 242 174 l 2,25,26
 231 174 231 174 219.5 176 c 128,-1,27
 208 178 208 178 199 183 c 128,-1,28
 190 188 190 188 184 196.5 c 128,-1,29
 178 205 178 205 178 219 c 0,30,31
 178 239 178 239 190.5 252 c 128,-1,32
 203 265 203 265 223 272.5 c 128,-1,33
 243 280 243 280 267.5 284 c 128,-1,34
 292 288 292 288 316 291.5 c 128,-1,35
 340 295 340 295 361 298 c 128,-1,36
 382 301 382 301 394 307 c 2,37,-1
 639 425 l 2,38,39
 656 433 656 433 662 452 c 128,-1,40
 668 471 668 471 668 487 c 0,41,42
 668 496 668 496 668 506 c 256,43,44
 668 516 668 516 660 523 c 0,45,46
 651 534 651 534 636.5 550.5 c 128,-1,47
 622 567 622 567 604.5 583 c 128,-1,48
 587 599 587 599 567 610 c 128,-1,49
 547 621 547 621 527 621 c 2,50,-1
 164 621 l 2,51,52
 148 621 148 621 122 610 c 128,-1,53
 96 599 96 599 71 582 c 128,-1,54
 46 565 46 565 28 545 c 128,-1,55
 10 525 10 525 10 506 c 0,56,57
 10 480 10 480 27 473.5 c 128,-1,58
 44 467 44 467 66 467 c 0,59,60
 85 467 85 467 102.5 473.5 c 128,-1,61
 120 480 120 480 137 488 c 128,-1,62
 154 496 154 496 171 502.5 c 128,-1,63
 188 509 188 509 206 509 c 2,64,-1
 422 509 l 2,65,66
 440 509 440 509 449 497 c 128,-1,67
 458 485 458 485 458 471 c 0,68,69
 458 451 458 451 442.5 437 c 128,-1,70
 427 423 427 423 408 418 c 2,71,-1
 143 342 l 2,72,73
 122 336 122 336 99.5 322 c 128,-1,74
 77 308 77 308 58.5 289 c 128,-1,75
 40 270 40 270 28 247.5 c 128,-1,76
 16 225 16 225 16 201 c 0,0,1
EndSplineSet
Validated: 9
EndChar

StartChar: bar
Encoding: 124 124 90
Width: 140
Flags: W
LayerCount: 2
Fore
SplineSet
71 -97 m 0,0,1
 48 -97 48 -97 29.5 -81 c 128,-1,2
 11 -65 11 -65 11 -40 c 2,3,-1
 11 640 l 2,4,5
 11 661 11 661 28.5 672 c 128,-1,6
 46 683 46 683 63 683 c 0,7,8
 72 683 72 683 84 679.5 c 128,-1,9
 96 676 96 676 106 669.5 c 128,-1,10
 116 663 116 663 123 653.5 c 128,-1,11
 130 644 130 644 130 633 c 2,12,-1
 130 -47 l 2,13,14
 130 -59 130 -59 124.5 -68 c 128,-1,15
 119 -77 119 -77 110 -83.5 c 128,-1,16
 101 -90 101 -90 90.5 -93.5 c 128,-1,17
 80 -97 80 -97 71 -97 c 0,0,1
EndSplineSet
Validated: 1
EndChar

StartChar: AE
Encoding: 198 198 91
Width: 1180
Flags: W
LayerCount: 2
Fore
SplineSet
1069 633 m 0,0,1
 1066 643 1066 643 1058.5 652 c 128,-1,2
 1051 661 1051 661 1041 668.5 c 128,-1,3
 1031 676 1031 676 1019.5 680.5 c 128,-1,4
 1008 685 1008 685 998 685 c 2,5,-1
 462 685 l 2,6,7
 454 685 454 685 440.5 684.5 c 128,-1,8
 427 684 427 684 426 684 c 2,9,10
 426 684 426 684 420 684 c 0,11,12
 415 684 415 684 406.5 683.5 c 128,-1,13
 398 683 398 683 388 683 c 256,14,15
 378 683 378 683 370 683 c 0,16,17
 337 683 337 683 304 662 c 128,-1,18
 271 641 271 641 242 610.5 c 128,-1,19
 213 580 213 580 190 546 c 128,-1,20
 167 512 167 512 153 486 c 0,21,22
 147 474 147 474 132 444 c 128,-1,23
 117 414 117 414 100.5 381 c 128,-1,24
 84 348 84 348 69 318.5 c 128,-1,25
 54 289 54 289 48 277 c 0,26,27
 45 269 45 269 39.5 248.5 c 128,-1,28
 34 228 34 228 28.5 204 c 128,-1,29
 23 180 23 180 18.5 159 c 128,-1,30
 14 138 14 138 13 130 c 0,31,32
 13 128 13 128 12.5 113.5 c 128,-1,33
 12 99 12 99 12 91 c 0,34,35
 12 89 12 89 12 84 c 256,36,37
 12 79 12 79 12.5 73 c 128,-1,38
 13 67 13 67 13 61 c 0,39,40
 13 56 13 56 13 53 c 0,41,42
 18 38 18 38 32 28 c 128,-1,43
 46 18 46 18 62 18 c 0,44,45
 86 18 86 18 97.5 30.5 c 128,-1,46
 109 43 109 43 115 61.5 c 128,-1,47
 121 80 121 80 125 102 c 128,-1,48
 129 124 129 124 137.5 142.5 c 128,-1,49
 146 161 146 161 163 173.5 c 128,-1,50
 180 186 180 186 212 186 c 0,51,52
 233 186 233 186 251.5 178 c 128,-1,53
 270 170 270 170 287.5 161 c 128,-1,54
 305 152 305 152 322.5 144 c 128,-1,55
 340 136 340 136 358 136 c 0,56,57
 381 136 381 136 397 158 c 0,58,59
 398 160 398 160 398 172 c 2,60,-1
 398 186 l 2,61,62
 398 219 398 219 385 236.5 c 128,-1,63
 372 254 372 254 352.5 262.5 c 128,-1,64
 333 271 333 271 310 275 c 128,-1,65
 287 279 287 279 267.5 285.5 c 128,-1,66
 248 292 248 292 235 305 c 128,-1,67
 222 318 222 318 222 346 c 0,68,69
 222 371 222 371 236.5 401.5 c 128,-1,70
 251 432 251 432 273 459 c 128,-1,71
 295 486 295 486 321 504 c 128,-1,72
 347 522 347 522 371 522 c 0,73,74
 399 522 399 522 419 505.5 c 128,-1,75
 439 489 439 489 452.5 465 c 128,-1,76
 466 441 466 441 476 414.5 c 128,-1,77
 486 388 486 388 495 367 c 0,78,79
 496 364 496 364 498.5 357.5 c 128,-1,80
 501 351 501 351 503 344.5 c 128,-1,81
 505 338 505 338 507 332.5 c 128,-1,82
 509 327 509 327 509 326 c 0,83,84
 510 322 510 322 511 307.5 c 128,-1,85
 512 293 512 293 512.5 276.5 c 128,-1,86
 513 260 513 260 514 245.5 c 128,-1,87
 515 231 515 231 516 228 c 0,88,89
 517 224 517 224 523 204.5 c 128,-1,90
 529 185 529 185 536.5 160.5 c 128,-1,91
 544 136 544 136 552 111.5 c 128,-1,92
 560 87 560 87 565 74 c 0,93,94
 573 51 573 51 587 37.5 c 128,-1,95
 601 24 601 24 626 24 c 0,96,97
 642 24 642 24 656.5 23 c 128,-1,98
 671 22 671 22 671 22 c 257,99,100
 671 22 671 22 680 22 c 256,101,102
 689 22 689 22 702 21.5 c 128,-1,103
 715 21 715 21 728 21 c 0,104,105
 742 21 742 21 752 21 c 2,106,-1
 949 20 l 2,107,108
 961 20 961 20 983 28 c 128,-1,109
 1005 36 1005 36 1031 49.5 c 128,-1,110
 1057 63 1057 63 1083.5 80 c 128,-1,111
 1110 97 1110 97 1130.5 116 c 128,-1,112
 1151 135 1151 135 1162.5 153.5 c 128,-1,113
 1174 172 1174 172 1170 188 c 0,114,115
 1167 199 1167 199 1159 208 c 128,-1,116
 1151 217 1151 217 1141 223.5 c 128,-1,117
 1131 230 1131 230 1119.5 233.5 c 128,-1,118
 1108 237 1108 237 1098 237 c 0,119,120
 1068 237 1068 237 1050 220.5 c 128,-1,121
 1032 204 1032 204 1016.5 184.5 c 128,-1,122
 1001 165 1001 165 984 148.5 c 128,-1,123
 967 132 967 132 940 132 c 2,124,-1
 743 133 l 2,125,126
 721 133 721 133 701 146.5 c 128,-1,127
 681 160 681 160 666 180 c 1,128,129
 657 200 657 200 650.5 224 c 128,-1,130
 644 248 644 248 639 274 c 1,131,132
 643 285 643 285 652.5 293 c 128,-1,133
 662 301 662 301 677 301 c 2,134,-1
 947 301 l 2,135,136
 968 301 968 301 978.5 316 c 128,-1,137
 989 331 989 331 984 353 c 0,138,139
 979 373 979 373 959 389 c 128,-1,140
 939 405 939 405 919 405 c 2,141,-1
 649 405 l 2,142,143
 632 405 632 405 619 412.5 c 128,-1,144
 606 420 606 420 596 432 c 1,145,146
 589 449 589 449 582 467 c 128,-1,147
 575 485 575 485 566 504 c 0,148,149
 563 518 563 518 563 531 c 0,150,151
 563 545 563 545 567.5 556 c 128,-1,152
 572 567 572 567 581.5 573.5 c 128,-1,153
 591 580 591 580 609 580 c 2,154,-1
 1026 580 l 2,155,156
 1046 580 1046 580 1060 596.5 c 128,-1,157
 1074 613 1074 613 1069 633 c 0,0,1
EndSplineSet
Validated: 41
EndChar

StartChar: ae
Encoding: 230 230 92
Width: 1172
Flags: W
LayerCount: 2
Fore
SplineSet
33 161 m 0,0,1
 38 155 38 155 52 140 c 128,-1,2
 66 125 66 125 81.5 108 c 128,-1,3
 97 91 97 91 111 76.5 c 128,-1,4
 125 62 125 62 131 56 c 0,5,6
 138 49 138 49 148 41.5 c 128,-1,7
 158 34 158 34 169 28 c 128,-1,8
 180 22 180 22 192 18 c 128,-1,9
 204 14 204 14 215 14 c 2,10,-1
 361 14 l 2,11,12
 386 14 386 14 404.5 27 c 128,-1,13
 423 40 423 40 440 56 c 128,-1,14
 457 72 457 72 474.5 85 c 128,-1,15
 492 98 492 98 516 98 c 0,16,17
 530 98 530 98 539 91.5 c 128,-1,18
 548 85 548 85 556 76 c 2,19,-1
 568 61 l 2,20,21
 576 48 576 48 586 36.5 c 128,-1,22
 596 25 596 25 612 21 c 1,23,24
 642 1 642 1 679 -12.5 c 128,-1,25
 716 -26 716 -26 754 -33 c 128,-1,26
 792 -40 792 -40 829 -39.5 c 128,-1,27
 866 -39 866 -39 896 -31 c 0,28,29
 908 -28 908 -28 921.5 -22.5 c 128,-1,30
 935 -17 935 -17 945.5 -9 c 128,-1,31
 956 -1 956 -1 961.5 10.5 c 128,-1,32
 967 22 967 22 963 38 c 0,33,34
 956 63 956 63 938 70.5 c 128,-1,35
 920 78 920 78 898 77 c 128,-1,36
 876 76 876 76 853.5 72.5 c 128,-1,37
 831 69 831 69 815 72 c 2,38,-1
 692 97 l 2,39,40
 678 102 678 102 672 109 c 0,41,42
 669 119 669 119 665 127.5 c 128,-1,43
 661 136 661 136 656 145 c 0,44,45
 654 150 654 150 653.5 157 c 128,-1,46
 653 164 653 164 652 166 c 0,47,48
 659 183 659 183 670 189 c 128,-1,49
 681 195 681 195 698 200 c 0,50,51
 729 208 729 208 775 203.5 c 128,-1,52
 821 199 821 199 870 191.5 c 128,-1,53
 919 184 919 184 965 179.5 c 128,-1,54
 1011 175 1011 175 1044 184 c 0,55,56
 1074 192 1074 192 1098.5 214 c 128,-1,57
 1123 236 1123 236 1138.5 265 c 128,-1,58
 1154 294 1154 294 1159 326.5 c 128,-1,59
 1164 359 1164 359 1156 388 c 0,60,61
 1142 439 1142 439 1103 479.5 c 128,-1,62
 1064 520 1064 520 1012.5 545.5 c 128,-1,63
 961 571 961 571 904 579.5 c 128,-1,64
 847 588 847 588 799 575 c 2,65,-1
 760 565 l 2,66,67
 740 560 740 560 723 546 c 0,68,69
 716 540 716 540 699.5 524.5 c 128,-1,70
 683 509 683 509 663.5 491 c 128,-1,71
 644 473 644 473 625 456 c 128,-1,72
 606 439 606 439 596 429 c 1,73,74
 583 461 583 461 562.5 486.5 c 128,-1,75
 542 512 542 512 512 530 c 128,-1,76
 482 548 482 548 440.5 557.5 c 128,-1,77
 399 567 399 567 344 567 c 0,78,79
 279 567 279 567 219 545 c 128,-1,80
 159 523 159 523 113 482.5 c 128,-1,81
 67 442 67 442 39 386 c 128,-1,82
 11 330 11 330 11 262 c 0,83,84
 11 233 11 233 14 209.5 c 128,-1,85
 17 186 17 186 33 161 c 0,0,1
123 276 m 0,86,87
 123 302 123 302 133 333 c 128,-1,88
 143 364 143 364 161 391 c 128,-1,89
 179 418 179 418 203.5 436 c 128,-1,90
 228 454 228 454 257 454 c 2,91,-1
 431 454 l 2,92,93
 461 454 461 454 478.5 436 c 128,-1,94
 496 418 496 418 504 392 c 128,-1,95
 512 366 512 366 514 337.5 c 128,-1,96
 516 309 516 309 516 289 c 0,97,98
 516 266 516 266 502.5 238 c 128,-1,99
 489 210 489 210 468.5 185 c 128,-1,100
 448 160 448 160 423 143 c 128,-1,101
 398 126 398 126 375 126 c 2,102,-1
 236 126 l 2,103,104
 209 126 209 126 188 141.5 c 128,-1,105
 167 157 167 157 152.5 179.5 c 128,-1,106
 138 202 138 202 130.5 228 c 128,-1,107
 123 254 123 254 123 276 c 0,86,87
691 339 m 0,108,109
 683 366 683 366 695 387 c 128,-1,110
 707 408 707 408 728 423.5 c 128,-1,111
 749 439 749 439 775 449 c 128,-1,112
 801 459 801 459 821 465 c 0,113,114
 848 472 848 472 882.5 473.5 c 128,-1,115
 917 475 917 475 949.5 466 c 128,-1,116
 982 457 982 457 1007.5 437 c 128,-1,117
 1033 417 1033 417 1042 382 c 0,118,119
 1050 351 1050 351 1034 325 c 128,-1,120
 1018 299 1018 299 987 291 c 0,121,122
 961 284 961 284 931.5 290 c 128,-1,123
 902 296 902 296 876 299 c 0,124,125
 856 301 856 301 827.5 296 c 128,-1,126
 799 291 799 291 771.5 290 c 128,-1,127
 744 289 744 289 721.5 298.5 c 128,-1,128
 699 308 699 308 691 339 c 0,108,109
EndSplineSet
Validated: 41
EndChar

